<svg width="79" height="32" viewBox="0 0 79 32" fill="none" xmlns="http://www.w3.org/2000/svg">
<g clip-path="url(#clip0_1544_165)">
<path d="M22.5978 19.5682L23.9243 11.205H21.1714L21.5276 8.99561H29.4893L29.1316 11.205H26.3927L25.0663 19.5682H22.5978Z" fill="#FAF9FA"/>
<path fill-rule="evenodd" clip-rule="evenodd" d="M31.3012 19.6519C30.5607 19.6519 29.9684 19.5365 29.5246 19.304C29.0825 19.0715 28.7639 18.7361 28.5703 18.2992C28.3749 17.8623 28.2764 17.3396 28.2764 16.7327C28.2764 16.4752 28.2921 16.2303 28.3202 15.9977C28.3482 15.7653 28.3811 15.5406 28.4201 15.3222C28.5529 14.4671 28.7951 13.7821 29.1482 13.2704C29.4997 12.757 29.9561 12.3841 30.5169 12.1517C31.0778 11.9191 31.7293 11.8021 32.4715 11.8021C32.8417 11.8021 33.2041 11.838 33.5555 11.9098C33.9072 11.98 34.2258 12.0986 34.5119 12.2655C34.7962 12.4309 35.0272 12.6665 35.2038 12.9708C35.379 13.2751 35.4679 13.6682 35.4679 14.1535C35.4679 14.6949 35.3821 15.138 35.2103 15.486C35.0399 15.8324 34.8038 16.0976 34.504 16.2833C34.2056 16.469 33.8618 16.5969 33.4775 16.6671C33.0915 16.7389 32.6761 16.7748 32.2292 16.7748C31.9151 16.7748 31.6277 16.7623 31.3652 16.7389C31.1042 16.7155 30.8919 16.6843 30.7308 16.6468C30.7216 16.703 30.7137 16.767 30.7089 16.8388C30.7044 16.9105 30.7028 16.9792 30.7028 17.0447C30.7028 17.3209 30.8263 17.5253 31.073 17.6579C31.32 17.7905 31.7245 17.8576 32.2853 17.8576H34.7962L34.568 19.2962C34.1602 19.382 33.6729 19.4631 33.1056 19.538C32.5399 19.6145 31.9387 19.6519 31.3012 19.6519ZM31.6293 15.4361C32.0198 15.4361 32.3261 15.397 32.5495 15.3222C32.7729 15.2457 32.9324 15.1318 33.0275 14.9789C33.123 14.8275 33.1712 14.6419 33.1712 14.4234C33.1712 14.1769 33.0994 13.9912 32.9573 13.8679C32.8136 13.7447 32.5947 13.6823 32.2994 13.6823C32.0246 13.6823 31.7916 13.7447 31.601 13.8679C31.4104 13.9912 31.2588 14.18 31.1449 14.4312C31.0309 14.6824 30.945 14.9929 30.8872 15.3643C31.0028 15.3736 31.123 15.3877 31.2512 15.4064C31.3809 15.4267 31.5058 15.4361 31.6293 15.4361Z" fill="#FAF9FA"/>
<path d="M38.3332 19.568C37.5144 19.568 36.8989 19.4011 36.4848 19.0687C36.0725 18.7364 35.8647 18.3089 35.8647 17.7862C35.8647 17.6161 35.8678 17.457 35.8726 17.3087C35.8771 17.1621 35.888 17.0216 35.9085 16.889L37.2208 8.69592H39.6736L38.5191 16.034C38.5098 16.0917 38.4941 16.1869 38.4753 16.3195C38.4567 16.4521 38.4393 16.5832 38.4253 16.7111C38.4113 16.8391 38.4051 16.9452 38.4051 17.031C38.4051 17.2791 38.4643 17.4445 38.5831 17.5303C38.7018 17.6161 38.8705 17.6723 39.0894 17.7004L39.5596 17.7862L39.2893 19.568H38.3332Z" fill="#FAF9FA"/>
<path fill-rule="evenodd" clip-rule="evenodd" d="M43.2987 19.6519C42.5568 19.6519 41.9646 19.5365 41.5225 19.304C41.0803 19.0715 40.7617 18.7361 40.5664 18.2992C40.371 17.8623 40.2742 17.3396 40.2742 16.7327C40.2742 16.4752 40.2882 16.2303 40.3163 15.9977C40.3443 15.7653 40.3789 15.5406 40.4162 15.3222C40.5493 14.4671 40.7929 13.7821 41.1443 13.2704C41.4958 12.757 41.9522 12.3841 42.513 12.1517C43.0739 11.9191 43.7271 11.8021 44.4676 11.8021C44.8392 11.8021 45.2002 11.838 45.5516 11.9098C45.9034 11.98 46.222 12.0986 46.508 12.2655C46.7938 12.4309 47.0234 12.6665 47.1999 12.9708C47.3765 13.2751 47.4641 13.6682 47.4641 14.1535C47.4641 14.6949 47.3782 15.138 47.2078 15.486C47.036 15.8324 46.8002 16.0976 46.5015 16.2833C46.2017 16.469 45.8596 16.5969 45.4736 16.6671C45.0893 16.7389 44.6722 16.7748 44.2253 16.7748C43.9112 16.7748 43.6238 16.7623 43.363 16.7389C43.1006 16.7155 42.8895 16.6843 42.7269 16.6468C42.7177 16.703 42.7115 16.767 42.7067 16.8388C42.7006 16.9105 42.6989 16.9792 42.6989 17.0447C42.6989 17.3209 42.8224 17.5253 43.0708 17.6579C43.3175 17.7905 43.7206 17.8576 44.2832 17.8576H46.7937L46.5658 19.2962C46.1563 19.382 45.669 19.4631 45.1034 19.538C44.5363 19.6145 43.9348 19.6519 43.2987 19.6519ZM43.6269 15.4361C44.0159 15.4361 44.3222 15.397 44.5473 15.3222C44.7707 15.2457 44.9299 15.1318 45.0253 14.9789C45.1191 14.8275 45.1674 14.6419 45.1674 14.4234C45.1674 14.1769 45.0955 13.9912 44.9535 13.8679C44.8097 13.7447 44.5908 13.6823 44.2972 13.6823C44.0207 13.6823 43.788 13.7447 43.5974 13.8679C43.4082 13.9912 43.2552 14.18 43.141 14.4312C43.027 14.6824 42.9411 14.9929 42.885 15.3643C42.9989 15.3736 43.1191 15.3877 43.2488 15.4064C43.377 15.4267 43.502 15.4361 43.6269 15.4361Z" fill="#FAF9FA"/>
<path d="M50.6578 19.6524C50.0785 19.6524 49.5738 19.5603 49.1457 19.3746C48.7176 19.1905 48.3895 18.8863 48.1613 18.4634C47.9333 18.0406 47.8191 17.4539 47.8191 16.7034C47.8191 16.5427 47.8317 16.3399 47.855 16.098C47.8786 15.8562 47.9098 15.6019 47.9474 15.3366C48.0801 14.4722 48.3145 13.7825 48.6472 13.2708C48.9801 12.7574 49.391 12.3861 49.8814 12.1583C50.3704 11.9305 50.9206 11.8166 51.5283 11.8166C51.9564 11.8166 52.3985 11.8618 52.8546 11.9523C53.3124 12.0428 53.7593 12.1489 54.1966 12.2722L53.9544 13.6827H52.1001C51.7281 13.6827 51.4281 13.7638 51.2001 13.9261C50.9719 14.0868 50.794 14.3193 50.6657 14.6236C50.5377 14.9278 50.4299 15.2976 50.344 15.7345C50.3159 15.9248 50.2971 16.0793 50.2876 16.1979C50.2783 16.3165 50.2735 16.4038 50.2735 16.4616C50.2735 16.7752 50.3173 17.0295 50.408 17.223C50.4987 17.418 50.6314 17.5631 50.808 17.6583C50.9846 17.7535 51.2001 17.8003 51.4578 17.8003H53.4264L53.1985 19.1967C52.8748 19.3309 52.5124 19.4386 52.1141 19.5244C51.7141 19.6102 51.2282 19.6524 50.6578 19.6524Z" fill="#FAF9FA"/>
<path fill-rule="evenodd" clip-rule="evenodd" d="M57.364 19.6524C56.6797 19.6524 56.1062 19.5509 55.6453 19.3466C55.183 19.1421 54.8391 18.841 54.6112 18.4416C54.3816 18.0437 54.2673 17.5491 54.2673 16.9609C54.2673 16.6753 54.2769 16.4148 54.2971 16.176C54.3159 15.9389 54.344 15.7111 54.3816 15.4926C54.5048 14.7234 54.6769 14.0993 54.8955 13.6187C55.1142 13.1397 55.3907 12.7699 55.7236 12.5078C56.0562 12.2472 56.4593 12.0662 56.936 11.9664C57.4109 11.8665 57.9625 11.8166 58.5904 11.8166C59.4373 11.8166 60.0809 11.9196 60.5245 12.124C60.9668 12.3284 61.2652 12.6388 61.423 13.057C61.5791 13.4752 61.6574 14.001 61.6574 14.6376C61.6574 14.8654 61.6478 15.1135 61.6293 15.3787C61.6105 15.6455 61.5777 15.9155 61.5291 16.1901C61.3871 17.1216 61.1465 17.8393 60.8088 18.3417C60.4714 18.8457 60.0214 19.1905 59.4606 19.3746C58.8998 19.5603 58.2 19.6524 57.364 19.6524ZM57.6203 17.6864C57.8482 17.6864 58.0436 17.6583 58.2061 17.6006C58.367 17.5444 58.4998 17.4524 58.6045 17.3229C58.7092 17.1949 58.7998 17.0108 58.8765 16.7674C58.9514 16.5255 59.0185 16.215 59.0763 15.8343C59.1232 15.5691 59.156 15.3319 59.1762 15.1228C59.1951 14.9138 59.2043 14.7187 59.2043 14.5377C59.2043 14.235 59.1311 14.026 58.9826 13.9121C58.8358 13.7981 58.5952 13.7404 58.2623 13.7404C58.0248 13.7404 57.828 13.7685 57.6703 13.8262C57.5139 13.8824 57.3828 13.9869 57.2781 14.1398C57.1734 14.2912 57.0828 14.5081 57.0078 14.7874C56.9312 15.0682 56.8641 15.4162 56.8077 15.8343C56.7687 16.034 56.7437 16.215 56.7297 16.3757C56.7139 16.538 56.7078 16.6941 56.7078 16.847C56.7078 17.0654 56.7406 17.2355 56.8077 17.3587C56.8734 17.4836 56.9733 17.5678 57.1061 17.6162C57.2405 17.663 57.4109 17.6864 57.6203 17.6864Z" fill="#FAF9FA"/>
<path d="M61.9016 19.5681L63.0999 11.9024H65.1544L65.4528 12.6576C65.7761 12.4204 66.1388 12.2207 66.5371 12.0584C66.9371 11.8977 67.4261 11.8166 68.0074 11.8166C68.4355 11.8166 68.7962 11.9009 69.0915 12.0662C69.3854 12.2332 69.6338 12.5203 69.8337 12.9275C70.2508 12.5203 70.7039 12.2332 71.1883 12.0662C71.6742 11.9009 72.1163 11.8166 72.5147 11.8166C73.2756 11.8166 73.8067 11.9836 74.1051 12.3159C74.4052 12.6482 74.5551 13.0898 74.5551 13.6406C74.5551 13.859 74.5458 14.0728 74.527 14.2819C74.5082 14.4909 74.4785 14.6953 74.4411 14.895L73.6989 19.5681H71.2319L71.9726 14.9512C71.9819 14.9138 71.9867 14.8732 71.9867 14.8311C71.9867 14.7874 71.9867 14.7468 71.9867 14.7094C71.9867 14.2538 71.7256 14.026 71.2024 14.026C70.9554 14.026 70.7148 14.0759 70.4821 14.1742C70.2494 14.274 70.0226 14.4191 69.8039 14.6095C69.7947 14.6657 69.7885 14.7281 69.7837 14.7952C69.7789 14.8607 69.7711 14.9278 69.7618 14.9933L69.0337 19.5681H66.5669L67.2933 14.9793C67.3026 14.9138 67.3074 14.8607 67.3074 14.8233C67.3074 14.7858 67.3074 14.7421 67.3074 14.6953C67.3074 14.4472 67.2417 14.274 67.1089 14.1742C66.9745 14.0759 66.7855 14.026 66.5371 14.026C66.223 14.026 65.9592 14.0821 65.745 14.196C65.5325 14.3099 65.334 14.4426 65.1544 14.5955L64.3547 19.5681H61.9016Z" fill="#FAF9FA"/>
<g style="mix-blend-mode:multiply">
<path d="M36.72 23.4827C36.5137 23.4827 36.3624 23.4265 36.2652 23.3157C36.1684 23.2049 36.1201 23.0489 36.1201 22.8492C36.1201 22.7868 36.1232 22.7212 36.1294 22.6542C36.1356 22.5871 36.1434 22.52 36.1544 22.4544C36.1858 22.2547 36.2327 22.0862 36.2967 21.9489C36.3607 21.8116 36.4466 21.7086 36.5544 21.64C36.6608 21.5713 36.7949 21.537 36.9544 21.537C37.0998 21.537 37.2216 21.5479 37.3198 21.5682C37.4184 21.59 37.4995 21.6119 37.5621 21.6322L37.52 21.8834C37.4419 21.8662 37.3605 21.8522 37.273 21.8412C37.1871 21.8303 37.0981 21.8241 37.0091 21.8241C36.9342 21.8241 36.8685 21.835 36.8123 21.8553C36.7559 21.8756 36.7059 21.9114 36.6638 21.963C36.6215 22.0144 36.5855 22.0846 36.5544 22.1751C36.5232 22.2641 36.4965 22.378 36.4732 22.5168C36.4637 22.5761 36.4544 22.6339 36.4483 22.6932C36.4418 22.7525 36.4387 22.8055 36.4387 22.8523C36.4387 22.9709 36.4668 23.0583 36.5215 23.1129C36.5763 23.1675 36.6717 23.194 36.8059 23.194C36.9246 23.194 37.0215 23.1909 37.0964 23.1846C37.1716 23.1784 37.2449 23.1706 37.3167 23.1597L37.2763 23.4124C37.1918 23.439 37.0998 23.4577 37.0012 23.4671C36.9044 23.478 36.8106 23.4827 36.72 23.4827Z" fill="#FAF9FA"/>
</g>
<g style="mix-blend-mode:multiply">
<path fill-rule="evenodd" clip-rule="evenodd" d="M38.2678 23.4827C38.171 23.4827 38.082 23.4733 38.0023 23.4577C37.9226 23.4405 37.8555 23.4109 37.7977 23.3688C37.7398 23.3266 37.696 23.2673 37.6666 23.1909C37.6368 23.1129 37.6211 23.013 37.6211 22.8882C37.6211 22.8289 37.6242 22.7634 37.632 22.6916C37.6382 22.6183 37.6478 22.5434 37.6601 22.4654C37.6899 22.2812 37.7289 22.1299 37.7774 22.0082C37.8257 21.8881 37.8866 21.7929 37.9602 21.7242C38.0337 21.6556 38.121 21.6072 38.2243 21.5791C38.3257 21.551 38.4461 21.537 38.5819 21.537C38.6774 21.537 38.7647 21.5448 38.843 21.5604C38.9227 21.5775 38.9898 21.6088 39.0476 21.6524C39.1038 21.6977 39.1492 21.7617 39.1787 21.8428C39.2101 21.9239 39.2256 22.0285 39.2256 22.1564C39.2256 22.211 39.2225 22.275 39.2163 22.3483C39.2085 22.4217 39.1992 22.4966 39.1866 22.5761C39.1585 22.7634 39.1178 22.9163 39.0695 23.0364C39.0196 23.155 38.9586 23.2471 38.8868 23.311C38.8132 23.375 38.7257 23.4187 38.6243 23.4437C38.521 23.4702 38.4023 23.4827 38.2678 23.4827ZM38.3195 23.1909C38.4023 23.1909 38.4741 23.18 38.5351 23.1597C38.596 23.1379 38.6476 23.102 38.6883 23.052C38.7304 23.0037 38.7647 22.9366 38.7944 22.8508C38.8225 22.7649 38.8475 22.6573 38.868 22.5293C38.8803 22.456 38.8899 22.3858 38.8944 22.3218C38.9008 22.2578 38.9039 22.2032 38.9039 22.1595C38.9039 22.0659 38.8899 21.9957 38.8632 21.9473C38.8351 21.9005 38.7944 21.8678 38.7397 21.8506C38.6852 21.8334 38.6165 21.8241 38.5351 21.8241C38.4539 21.8241 38.3835 21.835 38.3243 21.8537C38.2633 21.874 38.2134 21.9083 38.171 21.9583C38.1275 22.0066 38.0916 22.0768 38.0601 22.1673C38.029 22.2563 38.0023 22.3717 37.9821 22.5122C37.9694 22.5824 37.9602 22.6495 37.954 22.7134C37.9461 22.7774 37.9431 22.832 37.9431 22.8742C37.9431 22.96 37.9554 23.0255 37.9821 23.0707C38.0087 23.116 38.0492 23.1488 38.1056 23.1659C38.1617 23.1831 38.2336 23.1909 38.3195 23.1909Z" fill="#FAF9FA"/>
</g>
<g style="mix-blend-mode:multiply">
<path d="M39.3435 23.4671L39.6481 21.5527H39.9074L40.562 22.921L40.781 21.5527H41.1027L40.7981 23.4671H40.5387L39.8841 22.0941L39.6655 23.4671H39.3435Z" fill="#FAF9FA"/>
</g>
<g style="mix-blend-mode:multiply">
<path d="M41.5657 23.4827C41.5188 23.4827 41.4705 23.4765 41.4203 23.4671C41.3703 23.4562 41.3251 23.4359 41.2844 23.4063C41.244 23.3782 41.2125 23.3345 41.1923 23.2799C41.1721 23.2237 41.1673 23.1535 41.1814 23.0677L41.3579 21.9693C41.3737 21.8631 41.4048 21.7789 41.4531 21.718C41.5 21.6572 41.5578 21.6151 41.6252 21.5885C41.6939 21.562 41.7658 21.5511 41.8438 21.5526C41.9735 21.5526 42.1032 21.5542 42.2343 21.5604C42.364 21.5651 42.4937 21.5714 42.6264 21.5807L42.5843 21.8475H41.8876C41.8233 21.8475 41.7734 21.8631 41.7375 21.8943C41.7015 21.9255 41.6765 21.977 41.6656 22.0504L41.6156 22.364L42.3766 22.3843L42.3376 22.637L41.5687 22.6542L41.5188 22.9865C41.5126 23.0365 41.514 23.0755 41.5266 23.1051C41.5376 23.1332 41.5564 23.1535 41.5859 23.1644C41.6142 23.1753 41.6502 23.1816 41.6906 23.1816H42.3766L42.3328 23.4484C42.2093 23.4546 42.0861 23.4624 41.9595 23.4687C41.8343 23.4765 41.7032 23.4796 41.5657 23.4827Z" fill="#FAF9FA"/>
</g>
<g style="mix-blend-mode:multiply">
<path d="M43.3323 23.4827C43.126 23.4827 42.9744 23.4265 42.8775 23.3157C42.7807 23.2049 42.7324 23.0489 42.7324 22.8492C42.7324 22.7868 42.7355 22.7212 42.7417 22.6542C42.7479 22.5871 42.7557 22.52 42.7653 22.4544C42.7964 22.2547 42.8447 22.0862 42.909 21.9489C42.973 21.8116 43.0589 21.7086 43.165 21.64C43.2731 21.5713 43.4072 21.537 43.565 21.537C43.7121 21.537 43.8339 21.5479 43.9321 21.5682C44.0307 21.59 44.1118 21.6119 44.1744 21.6322L44.1323 21.8834C44.054 21.8662 43.9712 21.8522 43.8853 21.8412C43.7994 21.8303 43.7104 21.8241 43.6197 21.8241C43.5465 21.8241 43.4808 21.835 43.4244 21.8553C43.3682 21.8756 43.3182 21.9114 43.2761 21.963C43.2338 22.0144 43.1964 22.0846 43.165 22.1751C43.1355 22.2641 43.1074 22.378 43.0855 22.5168C43.0746 22.5761 43.0667 22.6339 43.0606 22.6932C43.0541 22.7525 43.051 22.8055 43.051 22.8523C43.051 22.9709 43.0791 23.0583 43.1338 23.1129C43.1886 23.1675 43.2823 23.194 43.4182 23.194C43.5369 23.194 43.6338 23.1909 43.7087 23.1846C43.7839 23.1784 43.8572 23.1706 43.9291 23.1597L43.8884 23.4124C43.8025 23.439 43.7121 23.4577 43.6135 23.4671C43.5167 23.478 43.423 23.4827 43.3323 23.4827Z" fill="#FAF9FA"/>
</g>
<g style="mix-blend-mode:multiply">
<path d="M44.6286 23.4671L44.8862 21.8397H44.3333L44.3801 21.5527H45.8081L45.7612 21.8397H45.2082L44.9519 23.4671H44.6286Z" fill="#FAF9FA"/>
</g>
<g style="mix-blend-mode:multiply">
<path fill-rule="evenodd" clip-rule="evenodd" d="M45.5334 23.4671L46.4676 21.5527H46.8741L47.1848 23.4671H46.8536L46.7803 23.0147H46.0833L45.8664 23.4671H45.5334ZM46.2069 22.7276H46.7489L46.624 21.8304L46.2069 22.7276Z" fill="#FAF9FA"/>
</g>
<g style="mix-blend-mode:multiply">
<path fill-rule="evenodd" clip-rule="evenodd" d="M47.4211 23.4671L47.7243 21.5527H48.4463C48.5181 21.5527 48.5835 21.5604 48.6447 21.5761C48.7039 21.5917 48.757 21.6166 48.8025 21.6525C48.8477 21.6868 48.8822 21.7352 48.9072 21.7945C48.9322 21.8538 48.9462 21.9271 48.9462 22.0145C48.9462 22.0379 48.9445 22.0629 48.9414 22.0909C48.9383 22.1175 48.9352 22.1456 48.9322 22.1768C48.9164 22.2719 48.8929 22.35 48.8617 22.4108C48.8305 22.4717 48.796 22.52 48.757 22.5559C48.718 22.5918 48.679 22.6199 48.6383 22.6371C48.5992 22.6558 48.5633 22.6698 48.5322 22.6776L48.7758 23.4671H48.4494L48.2369 22.7291C48.2133 22.7291 48.1869 22.7291 48.1541 22.7291C48.1229 22.7276 48.0884 22.726 48.0524 22.726C48.0182 22.7244 47.9837 22.7244 47.9508 22.7229C47.918 22.7229 47.8885 22.7213 47.8618 22.7213L47.7431 23.4671H47.4211ZM47.9009 22.4701H48.2837C48.343 22.4701 48.3946 22.4607 48.4384 22.4436C48.4805 22.4249 48.515 22.3937 48.5445 22.3484C48.5726 22.3032 48.5945 22.2392 48.6071 22.1534C48.6119 22.1362 48.6133 22.1206 48.6133 22.105C48.6133 22.0894 48.6133 22.0738 48.6133 22.0598C48.6133 22.002 48.6023 21.9568 48.5835 21.9256C48.5633 21.8944 48.5352 21.8725 48.4993 21.86C48.4648 21.846 48.4244 21.8397 48.382 21.8397H47.9994L47.9009 22.4701Z" fill="#FAF9FA"/>
</g>
<g style="mix-blend-mode:multiply">
<path d="M50.1302 23.4826C50.0833 23.4826 50.035 23.4764 49.9851 23.4671C49.9334 23.4561 49.8882 23.4359 49.8475 23.4062C49.8068 23.3781 49.7757 23.3344 49.7555 23.2798C49.735 23.2236 49.7319 23.1534 49.7459 23.0676L49.9225 21.9692C49.9382 21.8631 49.9694 21.7788 50.0162 21.718C50.0648 21.6571 50.1226 21.615 50.1897 21.5885C50.2568 21.5619 50.3303 21.551 50.4084 21.5526C50.5381 21.5526 50.6677 21.5541 50.7974 21.5604C50.9271 21.5651 51.0585 21.5713 51.1896 21.5807L51.1475 21.8475H50.4522C50.3882 21.8475 50.3382 21.8631 50.3006 21.8943C50.2647 21.9255 50.2414 21.977 50.2287 22.0503L50.1788 22.3639L50.9397 22.3842L50.9004 22.637L50.1319 22.6542L50.0833 22.9865C50.0757 23.0364 50.0788 23.0754 50.0898 23.1051C50.1007 23.1331 50.1209 23.1534 50.149 23.1644C50.1771 23.1753 50.213 23.1815 50.2537 23.1815H50.9397L50.8959 23.4483C50.7724 23.4546 50.6489 23.4624 50.524 23.4686C50.3974 23.4764 50.2663 23.4795 50.1302 23.4826ZM50.499 21.4153L50.7741 21.0533H51.052L50.7006 21.4153H50.499Z" fill="#FAF9FA"/>
</g>
<g style="mix-blend-mode:multiply">
<path fill-rule="evenodd" clip-rule="evenodd" d="M52.5662 23.4827C52.4694 23.4827 52.3801 23.4733 52.3021 23.4577C52.2223 23.4405 52.1536 23.4109 52.0958 23.3688C52.0396 23.3266 51.9958 23.2673 51.9647 23.1909C51.9349 23.1129 51.9192 23.013 51.9192 22.8882C51.9192 22.8289 51.9226 22.7634 51.9301 22.6916C51.9366 22.6183 51.9459 22.5434 51.9585 22.4654C51.988 22.2812 52.027 22.1299 52.0755 22.0082C52.1241 21.8881 52.185 21.7929 52.2583 21.7242C52.3318 21.6556 52.4191 21.6072 52.5224 21.5791C52.624 21.551 52.7442 21.537 52.88 21.537C52.9755 21.537 53.063 21.5448 53.1411 21.5604C53.2208 21.5775 53.2879 21.6088 53.3457 21.6524C53.4019 21.6977 53.4473 21.7617 53.4785 21.8428C53.5096 21.9239 53.5254 22.0285 53.5254 22.1564C53.5254 22.211 53.5206 22.275 53.5144 22.3483C53.5066 22.4217 53.4973 22.4966 53.4863 22.5761C53.4566 22.7634 53.4176 22.9163 53.3676 23.0364C53.3176 23.155 53.2567 23.2471 53.1849 23.311C53.1113 23.375 53.0237 23.4187 52.9224 23.4437C52.8191 23.4702 52.7021 23.4827 52.5662 23.4827ZM52.6176 23.1909C52.7021 23.1909 52.7722 23.18 52.8332 23.1597C52.8941 23.1379 52.9457 23.102 52.9864 23.052C53.0285 23.0037 53.063 22.9366 53.0925 22.8508C53.1209 22.7649 53.1459 22.6573 53.1661 22.5293C53.1784 22.456 53.188 22.3858 53.1941 22.3218C53.1989 22.2578 53.202 22.2032 53.202 22.1595C53.202 22.0659 53.188 21.9957 53.1613 21.9473C53.1332 21.9005 53.0925 21.8678 53.0381 21.8506C52.9833 21.8334 52.9146 21.8241 52.8332 21.8241C52.752 21.8241 52.6819 21.835 52.6223 21.8537C52.5631 21.874 52.5115 21.9083 52.4694 21.9583C52.427 22.0066 52.3896 22.0768 52.3582 22.1673C52.327 22.2563 52.3021 22.3717 52.2802 22.5122C52.2678 22.5824 52.2583 22.6495 52.2521 22.7134C52.2442 22.7774 52.2412 22.832 52.2412 22.8742C52.2412 22.96 52.2552 23.0255 52.2802 23.0707C52.3068 23.116 52.3473 23.1488 52.4037 23.1659C52.4598 23.1831 52.5317 23.1909 52.6176 23.1909Z" fill="#FAF9FA"/>
</g>
<g style="mix-blend-mode:multiply">
<path d="M54.2727 23.4671L54.5773 21.5527H54.8366L55.4912 22.921L55.7099 21.5527H56.0319L55.727 23.4671H55.4679L54.8131 22.0941L54.5961 23.4671H54.2727Z" fill="#FAF9FA"/>
</g>
<g style="mix-blend-mode:multiply">
<path fill-rule="evenodd" clip-rule="evenodd" d="M56.7742 23.4827C56.6774 23.4827 56.5898 23.4733 56.5101 23.4577C56.4304 23.4405 56.3616 23.4109 56.3038 23.3688C56.2476 23.3266 56.2038 23.2673 56.1727 23.1909C56.1429 23.1129 56.1272 23.013 56.1272 22.8882C56.1272 22.8289 56.132 22.7634 56.1381 22.6916C56.1446 22.6183 56.1555 22.5434 56.1665 22.4654C56.196 22.2812 56.235 22.1299 56.2835 22.0082C56.3318 21.8881 56.393 21.7929 56.4663 21.7242C56.5398 21.6556 56.6288 21.6072 56.7304 21.5791C56.8334 21.551 56.9522 21.537 57.088 21.537C57.1835 21.537 57.2711 21.5448 57.3505 21.5604C57.4288 21.5775 57.4976 21.6088 57.5537 21.6524C57.6115 21.6977 57.6553 21.7617 57.6865 21.8428C57.7177 21.9239 57.7334 22.0285 57.7334 22.1564C57.7334 22.211 57.7303 22.275 57.7224 22.3483C57.7162 22.4217 57.7067 22.4966 57.6944 22.5761C57.6646 22.7634 57.6256 22.9163 57.5756 23.0364C57.5271 23.155 57.4661 23.2471 57.3929 23.311C57.321 23.375 57.2318 23.4187 57.1304 23.4437C57.0288 23.4702 56.9101 23.4827 56.7742 23.4827ZM56.8273 23.1909C56.9101 23.1909 56.9819 23.18 57.0428 23.1597C57.1021 23.1379 57.1537 23.102 57.1958 23.052C57.2365 23.0037 57.2725 22.9366 57.3005 22.8508C57.3286 22.7649 57.3539 22.6573 57.3741 22.5293C57.3864 22.456 57.396 22.3858 57.4021 22.3218C57.4083 22.2578 57.4114 22.2032 57.4114 22.1595C57.4114 22.0659 57.3974 21.9957 57.3693 21.9473C57.3412 21.9005 57.3005 21.8678 57.2461 21.8506C57.1913 21.8334 57.124 21.8241 57.0428 21.8241C56.96 21.8241 56.8896 21.835 56.8304 21.8537C56.7708 21.874 56.7195 21.9083 56.6774 21.9583C56.635 22.0066 56.5977 22.0768 56.5662 22.1673C56.5351 22.2563 56.5101 22.3717 56.4882 22.5122C56.4772 22.5824 56.468 22.6495 56.4601 22.7134C56.4539 22.7774 56.4492 22.832 56.4492 22.8742C56.4492 22.96 56.4632 23.0255 56.4882 23.0707C56.5148 23.116 56.5553 23.1488 56.6117 23.1659C56.6678 23.1831 56.7397 23.1909 56.8273 23.1909Z" fill="#FAF9FA"/>
</g>
<g style="mix-blend-mode:multiply">
<path d="M58.4719 23.4827C58.3891 23.4827 58.308 23.4796 58.2297 23.4733C58.1516 23.4671 58.0815 23.4593 58.0172 23.4515C57.9532 23.4437 57.8984 23.4359 57.8516 23.4249L57.8909 23.1737C57.9672 23.18 58.0596 23.1846 58.1626 23.1893C58.2673 23.1925 58.3689 23.194 58.4688 23.194C58.5455 23.194 58.6111 23.1878 58.6656 23.1753C58.7203 23.1644 58.7624 23.141 58.7939 23.1082C58.825 23.0754 58.8452 23.0286 58.8531 22.9678L58.8671 22.8804C58.8702 22.8695 58.8719 22.8601 58.8719 22.8492C58.8719 22.8383 58.8719 22.8289 58.8719 22.8211C58.8719 22.7649 58.8531 22.7259 58.8158 22.701C58.7782 22.6776 58.7189 22.6651 58.6361 22.6651H58.4531C58.3158 22.6651 58.2081 22.6307 58.1314 22.5621C58.0548 22.4935 58.0172 22.4014 58.0172 22.2828C58.0172 22.2485 58.0205 22.2142 58.025 22.1767L58.0517 22.0191C58.0705 21.8943 58.1095 21.7976 58.1674 21.7273C58.2252 21.6571 58.3001 21.6072 58.3908 21.5791C58.4829 21.551 58.5893 21.537 58.7111 21.537C58.7484 21.537 58.7922 21.537 58.8408 21.5401C58.889 21.5432 58.939 21.5463 58.9907 21.5526C59.0437 21.5573 59.0954 21.5635 59.1453 21.5697C59.197 21.5775 59.2438 21.5854 59.2876 21.5963L59.2483 21.8475C59.1905 21.8428 59.1265 21.8381 59.0563 21.8366C58.9859 21.8334 58.9157 21.8319 58.8486 21.8303C58.7812 21.8272 58.7234 21.8272 58.6751 21.8272C58.6142 21.8272 58.5609 21.8334 58.5174 21.8459C58.4736 21.8568 58.4377 21.8803 58.4079 21.913C58.3798 21.9458 58.361 21.9926 58.3518 22.055L58.3391 22.1408C58.3375 22.1533 58.3361 22.1642 58.3344 22.1751C58.333 22.1845 58.3313 22.1954 58.3313 22.2063C58.3313 22.261 58.347 22.3 58.3798 22.3234C58.411 22.3468 58.461 22.3592 58.5297 22.3592H58.7189C58.875 22.3592 58.9907 22.3936 59.0687 22.4638C59.147 22.534 59.186 22.6261 59.186 22.7431C59.186 22.7743 59.1843 22.8086 59.1782 22.8461L59.1501 23.0255C59.1344 23.1347 59.1001 23.2221 59.0454 23.2892C58.9923 23.3547 58.9188 23.4047 58.825 23.4359C58.7313 23.4671 58.6142 23.4827 58.4719 23.4827Z" fill="#FAF9FA"/>
</g>
<g style="mix-blend-mode:multiply">
<path d="M59.9533 23.4827C59.8705 23.4827 59.7908 23.4796 59.7128 23.4733C59.6347 23.4671 59.5629 23.4593 59.4989 23.4515C59.4346 23.4437 59.3801 23.4359 59.3333 23.4249L59.3723 23.1737C59.4503 23.18 59.541 23.1846 59.6457 23.1893C59.7487 23.1925 59.8503 23.194 59.9519 23.194C60.0269 23.194 60.0926 23.1878 60.147 23.1753C60.2017 23.1644 60.2438 23.141 60.2753 23.1082C60.3064 23.0754 60.3267 23.0286 60.3362 22.9678L60.3486 22.8804C60.3516 22.8695 60.3533 22.8601 60.3533 22.8492C60.3533 22.8383 60.3533 22.8289 60.3533 22.8211C60.3533 22.7649 60.3345 22.7259 60.2986 22.701C60.2613 22.6776 60.2003 22.6651 60.1175 22.6651H59.9362C59.7973 22.6651 59.6895 22.6307 59.6128 22.5621C59.5379 22.4935 59.4989 22.4014 59.4989 22.2828C59.4989 22.2485 59.502 22.2142 59.5064 22.1767L59.5331 22.0191C59.5519 21.8943 59.5909 21.7976 59.6488 21.7273C59.7066 21.6571 59.7815 21.6072 59.8736 21.5791C59.9643 21.551 60.0721 21.537 60.1925 21.537C60.2315 21.537 60.2736 21.537 60.3222 21.5401C60.3704 21.5432 60.4221 21.5463 60.4737 21.5526C60.5251 21.5573 60.5768 21.5635 60.6284 21.5697C60.6784 21.5775 60.7267 21.5854 60.769 21.5963L60.7297 21.8475C60.6736 21.8428 60.6096 21.8381 60.5377 21.8366C60.4673 21.8334 60.3985 21.8319 60.33 21.8303C60.2627 21.8272 60.2048 21.8272 60.1565 21.8272C60.0956 21.8272 60.044 21.8334 59.9988 21.8459C59.955 21.8568 59.9191 21.8803 59.891 21.913C59.8613 21.9458 59.8424 21.9926 59.8346 22.055L59.8205 22.1408C59.8191 22.1533 59.8175 22.1642 59.8158 22.1751C59.8144 22.1845 59.8144 22.1954 59.8144 22.2063C59.8144 22.261 59.8298 22.3 59.8613 22.3234C59.8941 22.3468 59.9441 22.3592 60.0111 22.3592H60.2003C60.3564 22.3592 60.4737 22.3936 60.5518 22.4638C60.6298 22.534 60.6674 22.6261 60.6674 22.7431C60.6674 22.7743 60.6657 22.8086 60.6613 22.8461L60.6315 23.0255C60.6158 23.1347 60.5815 23.2221 60.5282 23.2892C60.4737 23.3547 60.4002 23.4047 60.3064 23.4359C60.2144 23.4671 60.0956 23.4827 59.9533 23.4827Z" fill="#FAF9FA"/>
</g>
<g style="mix-blend-mode:multiply">
<path fill-rule="evenodd" clip-rule="evenodd" d="M61.5398 23.4827C61.443 23.4827 61.3554 23.4733 61.2757 23.4577C61.1962 23.4405 61.1275 23.4109 61.0696 23.3688C61.0132 23.3266 60.9697 23.2673 60.9383 23.1909C60.9085 23.1129 60.8931 23.013 60.8931 22.8882C60.8931 22.8289 60.8962 22.7634 60.904 22.6916C60.9102 22.6183 60.9195 22.5434 60.9321 22.4654C60.9618 22.2812 61.0009 22.1299 61.0491 22.0082C61.0977 21.8881 61.1586 21.7929 61.2322 21.7242C61.3054 21.6556 61.393 21.6072 61.496 21.5791C61.5976 21.551 61.718 21.537 61.8539 21.537C61.9491 21.537 62.0366 21.5448 62.1147 21.5604C62.1944 21.5775 62.2618 21.6088 62.3193 21.6524C62.3757 21.6977 62.4209 21.7617 62.4524 21.8428C62.4835 21.9239 62.4992 22.0285 62.4992 22.1564C62.4992 22.211 62.4945 22.275 62.4883 22.3483C62.4818 22.4217 62.4709 22.4966 62.4599 22.5761C62.4305 22.7634 62.3912 22.9163 62.3412 23.0364C62.2912 23.155 62.2303 23.2471 62.1585 23.311C62.0852 23.375 61.9976 23.4187 61.896 23.4437C61.793 23.4702 61.6757 23.4827 61.5398 23.4827ZM61.5914 23.1909C61.6757 23.1909 61.7475 23.18 61.807 23.1597C61.8679 23.1379 61.9196 23.102 61.96 23.052C62.0024 23.0037 62.0383 22.9366 62.0664 22.8508C62.0945 22.7649 62.1195 22.6573 62.1397 22.5293C62.1523 22.456 62.1616 22.3858 62.168 22.3218C62.1725 22.2578 62.1756 22.2032 62.1756 22.1595C62.1756 22.0659 62.1632 21.9957 62.1352 21.9473C62.1068 21.9005 62.0664 21.8678 62.0117 21.8506C61.9569 21.8334 61.8882 21.8241 61.807 21.8241C61.7256 21.8241 61.6555 21.835 61.5959 21.8537C61.5367 21.874 61.4851 21.9083 61.443 21.9583C61.4009 22.0066 61.3632 22.0768 61.3321 22.1673C61.3009 22.2563 61.2757 22.3717 61.254 22.5122C61.2414 22.5824 61.2322 22.6495 61.2257 22.7134C61.2195 22.7774 61.2147 22.832 61.2147 22.8742C61.2147 22.96 61.2288 23.0255 61.254 23.0707C61.2804 23.116 61.3211 23.1488 61.3773 23.1659C61.4337 23.1831 61.5056 23.1909 61.5914 23.1909Z" fill="#FAF9FA"/>
</g>
<g style="mix-blend-mode:multiply">
<path d="M63.2478 23.4671L63.5524 21.5527H63.8117L64.4663 22.921L64.685 21.5527H65.007L64.7024 23.4671H64.443L63.7884 22.0941L63.5712 23.4671H63.2478Z" fill="#FAF9FA"/>
</g>
<g style="mix-blend-mode:multiply">
<path d="M65.4714 23.4827C65.4245 23.4827 65.3746 23.4765 65.3246 23.4671C65.2743 23.4562 65.2291 23.4359 65.1884 23.4063C65.148 23.3782 65.1166 23.3345 65.0964 23.2799C65.0762 23.2237 65.0731 23.1535 65.0854 23.0677L65.2637 21.9693C65.2777 21.8631 65.3106 21.7789 65.3572 21.718C65.4057 21.6572 65.4635 21.6151 65.5306 21.5885C65.598 21.562 65.6713 21.5511 65.7479 21.5526C65.879 21.5526 66.0087 21.5542 66.1383 21.5604C66.268 21.5651 66.3994 21.5714 66.5305 21.5807L66.4884 21.8475H65.7931C65.7291 21.8475 65.6791 21.8631 65.6415 21.8943C65.6056 21.9255 65.5806 21.977 65.5696 22.0504L65.5197 22.364L66.2807 22.3843L66.2416 22.637L65.4728 22.6542L65.4245 22.9865C65.4167 23.0365 65.4183 23.0755 65.4307 23.1051C65.4416 23.1332 65.4619 23.1535 65.4902 23.1644C65.5183 23.1753 65.5542 23.1816 65.5946 23.1816H66.2807L66.2369 23.4484C66.1134 23.4546 65.9901 23.4624 65.8635 23.4687C65.7386 23.4765 65.6073 23.4796 65.4714 23.4827Z" fill="#FAF9FA"/>
</g>
<g style="mix-blend-mode:multiply">
<path d="M67.1287 23.4826C66.9491 23.4826 66.8208 23.4342 66.7458 23.3359C66.6709 23.2392 66.6335 23.0879 66.6335 22.8835C66.6335 22.8117 66.6366 22.7384 66.6442 22.6635C66.6521 22.5886 66.663 22.5137 66.674 22.4388C66.7068 22.2437 66.7585 22.0783 66.8255 21.9442C66.8926 21.8084 66.9819 21.707 67.0928 21.6383C67.2037 21.5681 67.3395 21.5338 67.5006 21.5338C67.6553 21.5338 67.7816 21.5416 67.8801 21.5588C67.9787 21.5744 68.066 21.5947 68.1443 21.6196L68.1053 21.8677C68.0458 21.8568 67.9677 21.8459 67.874 21.835C67.7785 21.824 67.6662 21.8193 67.5349 21.8193C67.4161 21.8193 67.3224 21.8443 67.2522 21.8927C67.1818 21.9426 67.127 22.0175 67.088 22.1189C67.0507 22.2203 67.0178 22.3514 66.9912 22.5121C66.9693 22.6557 66.9583 22.7727 66.9583 22.8616C66.9583 22.9693 66.9788 23.0504 67.0223 23.105C67.0661 23.1596 67.138 23.1862 67.2413 23.1862C67.2755 23.1862 67.3145 23.183 67.3569 23.1784C67.399 23.1737 67.4397 23.1674 67.4818 23.1596C67.5225 23.1518 67.5585 23.144 67.5927 23.1362C67.6269 23.1284 67.6536 23.1206 67.6738 23.1128L67.7443 22.6697H67.3583L67.3973 22.4185C67.4428 22.4138 67.5037 22.4091 67.5756 22.4044C67.6488 22.3998 67.7347 22.3982 67.8333 22.3982C67.8582 22.3982 67.888 22.3982 67.9208 22.3982C67.9537 22.3998 67.9865 22.4013 68.0177 22.4013C68.0488 22.4029 68.0738 22.4029 68.0957 22.4029L67.927 23.467H67.6879L67.6615 23.3344C67.6379 23.3484 67.6037 23.364 67.5615 23.3812C67.5192 23.3983 67.4723 23.414 67.4223 23.428C67.3724 23.4436 67.321 23.4561 67.2707 23.467C67.2194 23.4764 67.1725 23.4826 67.1287 23.4826Z" fill="#FAF9FA"/>
</g>
<g style="mix-blend-mode:multiply">
<path fill-rule="evenodd" clip-rule="evenodd" d="M68.9744 23.4826C68.8775 23.4826 68.79 23.4733 68.7105 23.4577C68.6308 23.4405 68.562 23.4109 68.5042 23.3688C68.4481 23.3266 68.4043 23.2673 68.3728 23.1909C68.3434 23.1129 68.3276 23.013 68.3276 22.8882C68.3276 22.8289 68.3307 22.7634 68.3386 22.6916C68.3448 22.6183 68.3543 22.5434 68.3667 22.4654C68.3964 22.2812 68.4354 22.1299 68.484 22.0082C68.5323 21.888 68.5932 21.7928 68.6667 21.7242C68.74 21.6556 68.8292 21.6072 68.9306 21.5791C69.0322 21.551 69.1526 21.537 69.2885 21.537C69.3836 21.537 69.4712 21.5448 69.5492 21.5604C69.629 21.5775 69.6963 21.6087 69.7542 21.6524C69.812 21.6977 69.8555 21.7617 69.8869 21.8428C69.9181 21.9239 69.9338 22.0285 69.9338 22.1564C69.9338 22.211 69.9307 22.275 69.9229 22.3483C69.9164 22.4216 69.9055 22.4965 69.8948 22.5761C69.865 22.7634 69.826 22.9163 69.7761 23.0364C69.7275 23.155 69.6649 23.2471 69.593 23.311C69.5198 23.375 69.4322 23.4187 69.3306 23.4437C69.229 23.4702 69.1102 23.4826 68.9744 23.4826ZM69.026 23.1909C69.1102 23.1909 69.1821 23.18 69.2416 23.1597C69.3025 23.1378 69.3542 23.102 69.3963 23.052C69.437 23.0037 69.4729 22.9365 69.501 22.8507C69.529 22.7649 69.554 22.6573 69.5745 22.5293C69.5869 22.456 69.5961 22.3858 69.6026 22.3218C69.6088 22.2578 69.6118 22.2032 69.6118 22.1595C69.6118 22.0659 69.5978 21.9957 69.5697 21.9473C69.5417 21.9005 69.501 21.8678 69.4462 21.8506C69.3915 21.8334 69.3244 21.8241 69.2416 21.8241C69.1605 21.8241 69.09 21.835 69.0308 21.8537C68.9713 21.874 68.9196 21.9083 68.8775 21.9582C68.8354 22.0066 68.7978 22.0768 68.7667 22.1673C68.7355 22.2563 68.7105 22.3717 68.6886 22.5121C68.6777 22.5824 68.6681 22.6495 68.6603 22.7134C68.6541 22.7774 68.6496 22.832 68.6496 22.8741C68.6496 22.9599 68.6636 23.0255 68.6886 23.0707C68.715 23.116 68.7557 23.1487 68.8118 23.1659C68.8683 23.1831 68.9401 23.1909 69.026 23.1909ZM69.1885 21.4153L69.4634 21.0533H69.7415L69.3901 21.4153H69.1885Z" fill="#FAF9FA"/>
</g>
<g style="mix-blend-mode:multiply">
<path d="M70.7354 23.4827C70.5307 23.4827 70.3791 23.4265 70.2823 23.3157C70.1838 23.2049 70.1355 23.0489 70.1355 22.8492C70.1355 22.7868 70.1386 22.7212 70.1448 22.6542C70.1509 22.5871 70.1588 22.52 70.1697 22.4544C70.2009 22.2547 70.2478 22.0862 70.3121 21.9489C70.3761 21.8116 70.462 21.7086 70.5697 21.64C70.6775 21.5713 70.8103 21.537 70.9697 21.537C71.1149 21.537 71.2367 21.5479 71.3369 21.5682C71.4351 21.59 71.5149 21.6119 71.5775 21.6322L71.5368 21.8834C71.4587 21.8662 71.3759 21.8522 71.29 21.8412C71.2024 21.8303 71.1149 21.8241 71.0245 21.8241C70.9493 21.8241 70.8838 21.835 70.8274 21.8553C70.7713 21.8756 70.7227 21.9114 70.6806 21.963C70.6385 22.0144 70.6009 22.0846 70.5697 22.1751C70.5386 22.2641 70.5119 22.378 70.49 22.5168C70.4791 22.5761 70.4712 22.6339 70.465 22.6932C70.4589 22.7525 70.4558 22.8055 70.4558 22.8523C70.4558 22.9709 70.4822 23.0583 70.5369 23.1129C70.5916 23.1675 70.6868 23.194 70.8213 23.194C70.9417 23.194 71.0385 23.1909 71.1135 23.1846C71.1867 23.1784 71.2603 23.1706 71.3338 23.1597L71.2914 23.4124C71.2072 23.439 71.1149 23.4577 71.018 23.4671C70.9198 23.478 70.826 23.4827 70.7354 23.4827Z" fill="#FAF9FA"/>
</g>
<g style="mix-blend-mode:multiply">
<path d="M71.5852 23.4671L71.89 21.5527H72.2117L71.9072 23.4671H71.5852Z" fill="#FAF9FA"/>
</g>
<g style="mix-blend-mode:multiply">
<path fill-rule="evenodd" clip-rule="evenodd" d="M72.9724 23.4827C72.8756 23.4827 72.7866 23.4733 72.7069 23.4577C72.6272 23.4405 72.5601 23.4109 72.5022 23.3688C72.4444 23.3266 72.4006 23.2673 72.3709 23.1909C72.3411 23.1129 72.3257 23.013 72.3257 22.8882C72.3257 22.8289 72.3288 22.7634 72.3349 22.6916C72.3428 22.6183 72.3521 22.5434 72.3647 22.4654C72.3945 22.2812 72.4335 22.1299 72.4818 22.0082C72.5303 21.8881 72.5912 21.7929 72.6648 21.7242C72.738 21.6556 72.8256 21.6072 72.9286 21.5791C73.0302 21.551 73.149 21.537 73.2865 21.537C73.3817 21.537 73.4693 21.5448 73.5473 21.5604C73.627 21.5775 73.6941 21.6088 73.7519 21.6524C73.8083 21.6977 73.8521 21.7617 73.8833 21.8428C73.9145 21.9239 73.9302 22.0285 73.9302 22.1564C73.9302 22.211 73.9271 22.275 73.9206 22.3483C73.9131 22.4217 73.9035 22.4966 73.8912 22.5761C73.8631 22.7634 73.8224 22.9163 73.7738 23.0364C73.7239 23.155 73.6629 23.2471 73.5897 23.311C73.5175 23.375 73.4302 23.4187 73.3286 23.4437C73.2256 23.4702 73.1069 23.4827 72.9724 23.4827ZM73.0241 23.1909C73.1069 23.1909 73.1787 23.18 73.2396 23.1597C73.3006 23.1379 73.3519 23.102 73.3926 23.052C73.4347 23.0037 73.4693 22.9366 73.4973 22.8508C73.5271 22.7649 73.5521 22.6573 73.5723 22.5293C73.5849 22.456 73.5928 22.3858 73.5989 22.3218C73.6051 22.2578 73.6082 22.2032 73.6082 22.1595C73.6082 22.0659 73.5942 21.9957 73.5678 21.9473C73.5394 21.9005 73.4973 21.8678 73.4443 21.8506C73.3895 21.8334 73.3208 21.8241 73.2396 21.8241C73.1582 21.8241 73.0881 21.835 73.0286 21.8537C72.9676 21.874 72.9177 21.9083 72.8739 21.9583C72.8318 22.0066 72.7959 22.0768 72.7647 22.1673C72.7333 22.2563 72.7069 22.3717 72.6864 22.5122C72.674 22.5824 72.6645 22.6495 72.6583 22.7134C72.6505 22.7774 72.6474 22.832 72.6474 22.8742C72.6474 22.96 72.66 23.0255 72.6864 23.0707C72.7131 23.116 72.7538 23.1488 72.8099 23.1659C72.866 23.1831 72.9382 23.1909 73.0241 23.1909Z" fill="#FAF9FA"/>
</g>
<path d="M73.716 9.09685C73.7098 8.90025 73.702 8.70364 73.6958 8.50081C74.7504 8.48209 75.6972 8.78791 76.5065 9.46196C77.5549 10.3357 78.047 11.4732 78.0453 12.8384C77.8392 12.8306 77.6422 12.8244 77.4423 12.8181C77.4581 11.7837 77.1173 10.8881 76.383 10.1563C75.6503 9.42763 74.7535 9.08905 73.716 9.09685Z" fill="#FAF9FA"/>
<path d="M76.2417 12.8135C76.2574 12.1067 76.0309 11.4966 75.5324 11.0005C75.0342 10.5043 74.4247 10.2812 73.7216 10.2983C73.7106 10.1002 73.7014 9.9036 73.6904 9.70076C74.4295 9.67578 75.0951 9.87395 75.6747 10.3295C76.484 10.9646 76.8542 11.8118 76.8433 12.8416C76.6386 12.8322 76.4416 12.8229 76.2417 12.8135Z" fill="#FAF9FA"/>
<path d="M74.9804 11.3046C74.6022 10.9972 74.168 10.8677 73.6804 10.902C73.6945 11.0752 73.7102 11.2437 73.7242 11.4138C74.1618 11.4653 74.4897 11.6057 74.6977 11.8366C74.9256 12.0894 75.0553 12.4155 75.0851 12.8071C75.2678 12.8227 75.4491 12.8399 75.6305 12.8555C75.6866 12.3391 75.4881 11.7181 74.9804 11.3046Z" fill="#FAF9FA"/>
<path fill-rule="evenodd" clip-rule="evenodd" d="M20.2237 26.7106L20.3377 30.048L17.5115 30.2417L14.1805 30.5956L13.7493 32L11.6714 30.7674L9.82786 31.4181L9.12324 30.0121L7.1953 29.4894L6.45006 31.1714L2.35672 29.6222L2.16924 28.3396L0.995916 28.1258L0.192871 24.211L1.55055 18.6642L7.2406 9.60514L6.25947 8.85154L6.96563 6.38627L9.89346 4.20031L11.0277 1.7132L9.26542 0.00468087L13.0197 0L14.9086 2.18753L13.6556 7.12584L15.5054 9.32118V10.791L17.249 10.482L17.8661 11.5695L16.9209 12.5713C15.3148 11.6491 12.7151 12.0064 11.6089 13.2828C11.0215 13.9677 10.7527 14.6371 10.7871 15.709H12.7666C12.7666 15.0896 12.8666 14.737 13.1181 14.453C13.7056 13.7665 15.4695 13.6853 16.1397 14.3859C16.6772 14.9725 16.71 16.2614 16.1569 16.7809C15.821 17.082 15.3523 17.2662 14.7117 17.3333C14.1758 17.4004 13.79 17.3504 13.4041 17.3333V18.8467C13.79 18.8296 14.1758 18.7796 14.7117 18.8467C15.3523 18.9139 15.821 19.098 16.1569 19.3991C16.71 19.9187 16.6772 21.209 16.1397 21.7941C15.4695 22.4963 13.7056 22.4151 13.1181 21.7286C12.8666 21.4431 12.7666 21.092 12.7666 20.471H10.7871C10.7527 21.5429 11.0215 22.2139 11.6089 22.8973C12.8838 24.3686 16.1397 24.6198 17.5771 23.0986C18.9426 21.6724 18.8504 19.4038 17.4693 18.09C18.1458 17.4472 18.5098 16.5765 18.5489 15.6856L19.1972 17.8154L21.058 19.4084L19.2847 22.8005L21.2345 25.2049L20.2237 26.7106ZM10.8199 23.5183L10.8028 23.4995L10.7996 23.4948C10.4153 23.047 10.1309 22.593 9.94345 22.0578C9.90441 21.9486 9.87002 21.8363 9.84035 21.7208C9.45601 21.9689 8.9795 22.0906 8.47485 22.0251C7.57183 21.9065 6.84378 21.1653 6.74222 20.2619C6.60473 19.0433 7.55463 18.012 8.74671 18.012C9.60599 18.012 10.3403 18.5487 10.6309 19.3055H12.7104C12.3792 17.3848 10.7293 15.9196 8.74202 15.9196H8.82952L11.1762 12.0532H8.82952L5.36268 17.8092C5.25644 18.0182 4.74867 18.6829 4.74867 20.0123C4.74867 22.2872 6.53599 24.1049 8.74202 24.1049C9.50289 24.1049 10.2137 23.8912 10.8199 23.5183Z" fill="#FAF9FA"/>
</g>
<defs>
<clipPath id="clip0_1544_165">
<rect width="78.0351" height="32" fill="white" transform="translate(0.105469)"/>
</clipPath>
</defs>
</svg>
