<svg width="97" height="10" viewBox="0 0 97 10" fill="none" xmlns="http://www.w3.org/2000/svg">
<g clip-path="url(#clip0_23_6)">
<path d="M0.0500031 9.35197H1.49V2.87197L4.094 9.35197H4.61L7.166 2.87197V9.35197H8.762V0.771973H6.65L4.442 6.62797L2.186 0.771973H0.0500031V9.35197Z" fill="#333333"/>
<path d="M12.1912 9.47197C13.1512 9.47197 13.7032 9.12397 14.1112 8.58397V9.35197H15.5392V5.23597C15.5392 3.51997 14.4352 2.94397 13.0312 2.94397C11.6272 2.94397 10.4632 3.55597 10.3432 5.01997H11.7472C11.8192 4.39597 12.1912 4.03597 12.9472 4.03597C13.7992 4.03597 14.0872 4.45597 14.0872 5.29597V5.61997H13.3072C11.5072 5.61997 10.0912 6.14797 10.0912 7.61197C10.0912 8.91997 11.0392 9.47197 12.1912 9.47197ZM12.5392 8.42797C11.8192 8.42797 11.5312 8.07997 11.5312 7.55197C11.5312 6.78397 12.2392 6.53197 13.3432 6.53197H14.0872V7.15597C14.0872 7.95997 13.4272 8.42797 12.5392 8.42797V8.42797Z" fill="#333333"/>
<path d="M19.5554 9.472C20.4794 9.472 21.2834 8.92 21.6194 8.296V9.352H23.0714V0.171997H21.6194V4.036C21.2714 3.412 20.6354 2.944 19.6154 2.944C17.9834 2.944 16.7954 4.216 16.7954 6.22V6.316C16.7954 8.356 17.9834 9.472 19.5554 9.472ZM19.9154 8.32C18.9794 8.32 18.2834 7.66 18.2834 6.28V6.184C18.2834 4.828 18.9074 4.084 19.9754 4.084C21.0314 4.084 21.6674 4.768 21.6674 6.148V6.244C21.6674 7.648 20.9234 8.32 19.9154 8.32Z" fill="#333333"/>
<path d="M27.5572 9.47197C29.1652 9.47197 30.2332 8.75197 30.4372 7.43197H29.0332C28.9252 8.04397 28.4692 8.39197 27.5932 8.39197C26.5132 8.39197 25.9132 7.71997 25.8652 6.53197H30.4612V6.11197C30.4612 3.86797 29.0572 2.94397 27.4972 2.94397C25.7092 2.94397 24.3772 4.23997 24.3772 6.18397V6.27997C24.3772 8.25997 25.7092 9.47197 27.5572 9.47197V9.47197ZM25.8892 5.55997C26.0332 4.58797 26.6212 3.99997 27.4972 3.99997C28.3972 3.99997 28.9492 4.47997 29.0212 5.55997H25.8892Z" fill="#333333"/>
<path d="M34.6535 9.35198H36.1055V3.07598H34.6535V9.35198ZM35.3615 2.04398C35.8415 2.04398 36.2255 1.68398 36.2255 1.21598C36.2255 0.735977 35.8415 0.375977 35.3615 0.375977C34.8815 0.375977 34.4975 0.735977 34.4975 1.21598C34.4975 1.68398 34.8815 2.04398 35.3615 2.04398Z" fill="#333333"/>
<path d="M37.8753 9.35197H39.3273V5.65597C39.3273 4.65997 39.9873 4.15597 40.8033 4.15597C41.6673 4.15597 42.0513 4.58797 42.0513 5.53597V9.35197H43.5033V5.40397C43.5033 3.67597 42.6153 2.94397 41.3553 2.94397C40.3233 2.94397 39.6273 3.45997 39.3273 4.07197V3.07597H37.8753V9.35197V9.35197Z" fill="#333333"/>
<path d="M49.6195 9.35197H51.1435L52.8835 3.09997L54.5755 9.35197H56.1715L58.3195 0.771973H56.8315L55.2955 7.10797L53.5915 0.771973H52.2715L50.6035 7.07197L49.1155 0.771973H47.4835L49.6195 9.35197V9.35197Z" fill="#333333"/>
<path d="M61.7173 9.47197C63.3253 9.47197 64.3933 8.75197 64.5973 7.43197H63.1933C63.0853 8.04397 62.6293 8.39197 61.7533 8.39197C60.6733 8.39197 60.0733 7.71997 60.0253 6.53197H64.6213V6.11197C64.6213 3.86797 63.2173 2.94397 61.6573 2.94397C59.8693 2.94397 58.5373 4.23997 58.5373 6.18397V6.27997C58.5373 8.25997 59.8693 9.47197 61.7173 9.47197ZM60.0493 5.55997C60.1933 4.58797 60.7813 3.99997 61.6573 3.99997C62.5573 3.99997 63.1093 4.47997 63.1813 5.55997H60.0493Z" fill="#333333"/>
<path d="M69.4223 9.472C71.0423 9.472 72.2063 8.248 72.2063 6.232V6.136C72.2063 4.108 70.9943 2.944 69.4223 2.944C68.4983 2.944 67.7183 3.484 67.3703 4.084V0.171997H65.9183V9.352H67.3703V8.344C67.7063 8.98 68.4263 9.472 69.4223 9.472ZM69.0623 8.32C68.0063 8.32 67.3223 7.66 67.3223 6.256V6.16C67.3223 4.768 68.0423 4.084 69.0503 4.084C69.9983 4.084 70.7183 4.768 70.7183 6.16V6.256C70.7183 7.6 70.1303 8.32 69.0623 8.32Z" fill="#333333"/>
<path d="M73.764 9.352H75.216V4.168H76.644V3.076H75.216V2.176C75.216 1.636 75.456 1.252 76.032 1.252C76.296 1.252 76.476 1.276 76.644 1.348V0.22C76.416 0.148 76.212 0.112 75.852 0.112C74.52 0.112 73.764 0.856 73.764 2.236V3.076H72.912V4.168H73.764V9.352V9.352Z" fill="#333333"/>
<path d="M77.7316 9.352H79.1836V0.171997H77.7316V9.352Z" fill="#333333"/>
<path d="M83.7614 8.34397C82.6574 8.34397 82.0214 7.53997 82.0214 6.25597V6.15997C82.0214 4.86397 82.6814 4.08397 83.7614 4.08397C84.8414 4.08397 85.4894 4.87597 85.4894 6.17197V6.25597C85.4894 7.53997 84.8414 8.34397 83.7614 8.34397ZM83.7494 9.47197C85.5974 9.47197 86.9774 8.19997 86.9774 6.24397V6.14797C86.9774 4.22797 85.5974 2.94397 83.7614 2.94397C81.9134 2.94397 80.5334 4.23997 80.5334 6.18397V6.27997C80.5334 8.18797 81.9014 9.47197 83.7494 9.47197Z" fill="#333333"/>
<path d="M89.4096 9.35199H90.8976L92.1696 5.12799L93.3336 9.35199H94.8096L96.7776 3.07599H95.3616L94.0536 7.61199L92.8296 3.07599H91.6176L90.2856 7.61199L89.0376 3.07599H87.4896L89.4096 9.35199Z" fill="#333333"/>
</g>
<defs>
<clipPath id="clip0_23_6">
<rect width="97" height="10" fill="white"/>
</clipPath>
</defs>
</svg>
