<svg width="16" height="16" viewBox="0 0 16 16" fill="none" xmlns="http://www.w3.org/2000/svg">
<g clip-path="url(#clip0_23_2)">
<path d="M0 2C0 0.89543 0.89543 0 2 0H14C15.1046 0 16 0.89543 16 2V14C16 15.1046 15.1046 16 14 16H2C0.89543 16 0 15.1046 0 14V2Z" fill="#4353FF"/>
<path d="M10.836 6.70399C10.836 6.70399 10.024 9.24799 9.96401 9.46399C9.94001 9.25199 9.34801 4.67999 9.34801 4.67999C7.96401 4.67999 7.22801 5.66399 6.83601 6.70399C6.83601 6.70399 5.84801 9.25599 5.76801 9.46799C5.76401 9.26799 5.61601 6.72799 5.61601 6.72799C5.53201 5.45199 4.36801 4.67999 3.42401 4.67999L4.56001 11.604C6.00801 11.6 6.78801 10.62 7.19601 9.57599C7.19601 9.57599 8.06401 7.32399 8.10001 7.22399C8.10801 7.31999 8.72401 11.604 8.72401 11.604C10.176 11.604 10.96 10.688 11.38 9.68399L13.416 4.67999C11.98 4.67999 11.224 5.65999 10.836 6.70399Z" fill="white"/>
</g>
<defs>
<clipPath id="clip0_23_2">
<rect width="16" height="16" fill="white"/>
</clipPath>
</defs>
</svg>
