<svg width="104" height="32" viewBox="0 0 104 32" fill="none" xmlns="http://www.w3.org/2000/svg">
<g clip-path="url(#clip0_1638_244)">
<path d="M72.0863 12.6505L68.2074 12.6461C68.0688 12.6461 67.9995 12.5768 67.9995 12.4382L67.9862 9.43058C67.9862 9.28019 68.0614 9.205 68.2118 9.205L75.8149 9.19616C75.9712 9.19616 76.0493 9.2743 76.0493 9.43058V19.8378C76.0493 19.9081 76.0298 19.9768 75.9931 20.0362C75.9563 20.0956 75.9038 20.1434 75.8414 20.174C68.3268 23.7433 57.1278 22.6995 56.252 12.2215C55.6903 5.53835 59.671 0.602305 66.2082 0.0715478C69.2379 -0.171716 72.9532 0.341352 75.3947 2.34054C75.4298 2.36923 75.4586 2.4048 75.4793 2.44499C75.5 2.48517 75.5122 2.52911 75.5151 2.57401C75.518 2.61891 75.5116 2.6638 75.4962 2.70583C75.4808 2.74787 75.4568 2.78614 75.4257 2.81822L73.1169 5.21548C73.0649 5.26925 72.9946 5.30141 72.92 5.30551C72.8453 5.30961 72.7719 5.28535 72.7144 5.23759C69.8394 2.77841 65.1511 2.62803 62.4354 5.21105C58.8881 8.58136 59.4764 14.831 63.5411 17.6573C65.5491 19.055 69.1229 18.7365 71.529 18.1217C71.7541 18.0647 71.9537 17.9345 72.0963 17.7519C72.2389 17.5692 72.3163 17.3445 72.3163 17.1133L72.3251 12.8893C72.3251 12.7301 72.2455 12.6505 72.0863 12.6505Z" fill="white"/>
<path d="M85.8684 13.2211C83.856 12.4515 81.2685 11.8632 79.7647 10.5894C77.0136 8.25407 77.2348 4.14513 79.9284 1.88499C83.1793 -0.839569 88.363 -0.410541 91.6448 1.89383C91.7687 1.98229 91.779 2.08107 91.6758 2.19017L89.2608 4.77761C89.137 4.90735 89.0102 4.9103 88.8805 4.78646C87.3678 3.35636 85.6664 2.94355 83.7764 3.54803C82.3816 3.99327 81.7491 4.87345 81.8789 6.18854C82.0204 7.62601 83.3075 8.39561 84.5725 8.76272C88.8937 10.0321 93.0823 11.5713 91.6846 17.1973C90.256 22.9561 80.7687 23.5001 77.3807 19.4398C77.3292 19.3769 77.3033 19.2968 77.3082 19.2157C77.3131 19.1345 77.3485 19.0581 77.4073 19.0019L79.7426 16.7639C79.7722 16.7357 79.8072 16.7138 79.8454 16.6994C79.8837 16.685 79.9244 16.6784 79.9653 16.6801C80.0061 16.6817 80.0462 16.6915 80.0832 16.709C80.1201 16.7264 80.1532 16.7511 80.1805 16.7816C81.873 18.6658 83.9621 19.1331 86.4478 18.1837C87.2042 17.8962 87.7968 16.8656 87.8499 16.0385C87.9354 14.6969 87.2749 13.7577 85.8684 13.2211Z" fill="white"/>
<path d="M50.909 10.2444C50.8723 10.2556 50.8406 10.279 50.8191 10.3107C50.7975 10.3424 50.7875 10.3805 50.7906 10.4188C50.7937 10.457 50.8097 10.493 50.8361 10.5208C50.8625 10.5486 50.8975 10.5666 50.9355 10.5717C54.4783 11.0759 56.0352 14.8753 54.7172 17.9006C53.3991 20.9259 49.4096 21.8724 46.3577 21.4611C46.1985 21.4405 46.1189 21.3505 46.1189 21.1913L46.0968 18.6039C46.0962 18.5756 46.1014 18.5475 46.112 18.5213C46.1226 18.495 46.1385 18.4711 46.1587 18.4509C46.1789 18.4307 46.203 18.4147 46.2295 18.4037C46.2561 18.3928 46.2847 18.3871 46.3135 18.3871C47.4945 18.4004 48.6577 18.4358 49.6838 17.9139C51.2053 17.1384 51.7213 15.9309 51.2319 14.2914C50.7675 12.7346 49.184 12.3011 47.7466 12.2923C45.0928 12.2805 42.4434 12.2643 39.7985 12.2436C39.6333 12.2407 39.5508 12.1566 39.5508 11.9915L39.5552 0.823476C39.5552 0.684889 39.6245 0.61412 39.7631 0.611172C44.4396 0.499123 47.4974 0.4947 48.9363 0.597903C52.3774 0.84559 54.151 2.54549 54.2572 5.6976C54.3324 7.9489 52.9878 9.61194 50.909 10.2444ZM43.3192 3.8886L43.328 8.86003C43.328 8.91164 43.3485 8.96114 43.385 8.99764C43.4215 9.03414 43.471 9.05464 43.5226 9.05464L47.3485 9.05022C48.18 9.04878 48.9769 8.77819 49.5642 8.29796C50.1514 7.81772 50.4808 7.16716 50.48 6.48931V6.24163C50.4795 5.90582 50.398 5.57341 50.2399 5.2634C50.0819 4.95339 49.8504 4.67185 49.5588 4.43485C49.2672 4.19786 48.9211 4.01006 48.5403 3.88218C48.1596 3.7543 47.7516 3.68885 47.3396 3.68957L43.5138 3.69399C43.4622 3.69399 43.4127 3.71449 43.3762 3.75099C43.3397 3.78749 43.3192 3.83699 43.3192 3.8886Z" fill="white"/>
<path d="M15.9146 19.17L15.1671 19.055C15.0621 19.0341 14.9684 18.9755 14.9037 18.8902C14.839 18.8049 14.8078 18.6989 14.816 18.5921C14.8241 18.4854 14.8711 18.3853 14.948 18.3109C15.0249 18.2365 15.1265 18.1928 15.2334 18.1881L17.0999 18.1792C17.3122 18.1792 17.4184 18.2854 17.4184 18.4977L17.4272 21.2842C17.4276 21.3162 17.4206 21.3479 17.4067 21.3767C17.3928 21.4056 17.3724 21.4309 17.3472 21.4506C17.3219 21.4703 17.2924 21.4839 17.261 21.4903C17.2297 21.4967 17.1972 21.4958 17.1663 21.4876C15.0432 20.9126 12.814 22.5403 11.5712 19.8113C9.85507 16.0341 14.4594 13.0176 16.9318 15.8527C17.0171 15.95 17.0648 16.0745 17.0666 16.2038C17.0684 16.3331 17.024 16.4588 16.9415 16.5584C16.8589 16.658 16.7436 16.7249 16.6162 16.7472C16.4888 16.7694 16.3577 16.7455 16.2463 16.6798C11.2793 13.743 11.3854 22.3324 16.0384 19.9617C16.1184 19.922 16.1836 19.8578 16.2247 19.7784C16.2657 19.6991 16.2804 19.6087 16.2666 19.5205C16.2528 19.4322 16.2112 19.3507 16.1479 19.2876C16.0846 19.2246 16.0029 19.1834 15.9146 19.17Z" fill="white"/>
<path d="M22.6419 19.2894L23.8184 21.1957C23.8892 21.3107 23.8626 21.3933 23.7388 21.4434C22.4694 21.9476 21.7661 20.3642 21.284 19.515C21.2015 19.3728 21.0745 19.2615 20.9227 19.1983C20.7708 19.1351 20.6024 19.1235 20.4433 19.1651C20.2842 19.2068 20.1432 19.2995 20.0418 19.429C19.9404 19.5585 19.8842 19.7176 19.882 19.8821L19.8775 21.2576C19.8746 21.467 19.7699 21.5643 19.5635 21.5496L18.7408 21.5009C18.5816 21.4921 18.502 21.4066 18.502 21.2444L18.4976 14.9991C18.4975 14.953 18.5151 14.9086 18.5465 14.8756C18.5779 14.8425 18.6206 14.8234 18.6656 14.8222C20.2048 14.7647 22.8321 14.3932 23.5398 16.2508C23.9378 17.2917 23.6607 18.1778 22.7082 18.909C22.5726 19.0152 22.5505 19.142 22.6419 19.2894ZM19.8731 16.3747L19.882 17.8873C19.882 17.9788 19.9183 18.0666 19.983 18.1313C20.0477 18.196 20.1354 18.2323 20.2269 18.2323L21.3017 18.2279C21.6055 18.2267 21.8963 18.1165 22.1103 17.9215C22.3243 17.7266 22.4439 17.4629 22.4429 17.1885V17.0558C22.4423 16.9199 22.4121 16.7854 22.3541 16.66C22.296 16.5346 22.2111 16.4209 22.1043 16.3252C21.9975 16.2295 21.8709 16.1537 21.7317 16.1023C21.5925 16.0508 21.4433 16.0246 21.2929 16.0253L20.2181 16.0297C20.1728 16.0297 20.1279 16.0386 20.0861 16.0559C20.0442 16.0733 20.0062 16.0987 19.9742 16.1307C19.9421 16.1628 19.9167 16.2008 19.8994 16.2427C19.882 16.2845 19.8731 16.3294 19.8731 16.3747Z" fill="white"/>
<path d="M31.2224 18.1925C31.2224 19.0875 30.8668 19.9459 30.2339 20.5788C29.601 21.2117 28.7427 21.5672 27.8476 21.5672C26.9526 21.5672 26.0942 21.2117 25.4613 20.5788C24.8285 19.9459 24.4729 19.0875 24.4729 18.1925C24.4729 17.2975 24.8285 16.4391 25.4613 15.8062C26.0942 15.1733 26.9526 14.8178 27.8476 14.8178C28.7427 14.8178 29.601 15.1733 30.2339 15.8062C30.8668 16.4391 31.2224 17.2975 31.2224 18.1925ZM27.8606 20.4435C28.1237 20.4394 28.3833 20.3775 28.6246 20.2615C28.8659 20.1454 29.0841 19.9775 29.2669 19.7671C29.4497 19.5568 29.5934 19.3083 29.6898 19.0358C29.7862 18.7632 29.8335 18.472 29.8289 18.1787C29.8196 17.5864 29.5996 17.0217 29.2173 16.6087C28.835 16.1958 28.3218 15.9685 27.7904 15.9769C27.5274 15.981 27.2678 16.0429 27.0265 16.1589C26.7852 16.275 26.5669 16.443 26.3841 16.6533C26.2014 16.8636 26.0577 17.1121 25.9612 17.3846C25.8648 17.6572 25.8176 17.9484 25.8222 18.2417C25.8315 18.834 26.0515 19.3987 26.4337 19.8117C26.816 20.2246 27.3293 20.4519 27.8606 20.4435Z" fill="white"/>
<path d="M33.9426 20.0104C35.1324 21.2223 36.5389 20.1298 36.6229 18.6083C36.6849 17.479 36.7011 16.4115 36.6716 15.406C36.6568 14.9284 36.8883 14.7028 37.366 14.7293C37.8319 14.7559 38.0678 14.9844 38.0737 15.4149C38.0914 16.5177 38.0678 17.619 38.0029 18.7189C37.795 22.1953 33.3234 22.642 32.1911 19.5592C31.9582 18.9194 31.9464 17.4229 32.1557 15.0699C32.1705 14.8989 32.2633 14.806 32.4344 14.7913L33.0845 14.7382C33.129 14.7351 33.1736 14.7412 33.2154 14.7561C33.2573 14.7711 33.2955 14.7945 33.3276 14.825C33.3597 14.8554 33.385 14.8921 33.4018 14.9328C33.4186 14.9735 33.4265 15.0172 33.4251 15.0611C33.3765 16.901 33.1465 19.201 33.9426 20.0104Z" fill="white"/>
<path d="M40.6566 19.6211L40.7096 21.2001C40.7155 21.4095 40.6153 21.5142 40.4089 21.5142H39.6216C39.4329 21.5142 39.3385 21.4183 39.3385 21.2267L39.3297 15.0876C39.3267 14.9107 39.4152 14.8207 39.595 14.8178C41.034 14.8089 42.0115 14.834 42.5275 14.893C44.5311 15.123 44.969 17.7989 43.4519 18.9135C42.753 19.4265 41.811 19.3159 40.9529 19.3159C40.7494 19.3159 40.6507 19.4177 40.6566 19.6211ZM40.661 16.3702V17.8917C40.661 17.9832 40.6973 18.071 40.762 18.1357C40.8267 18.2004 40.9145 18.2367 41.006 18.2367H42.0233C42.1511 18.2368 42.2776 18.2134 42.3957 18.1681C42.5138 18.1228 42.621 18.0563 42.7114 17.9725C42.8018 17.8888 42.8734 17.7893 42.9223 17.6798C42.9712 17.5703 42.9963 17.453 42.9963 17.3344V16.9275C42.9962 16.6883 42.8937 16.4588 42.7112 16.2896C42.5287 16.1204 42.2813 16.0253 42.0233 16.0252H41.006C40.9145 16.0252 40.8267 16.0616 40.762 16.1263C40.6973 16.191 40.661 16.2787 40.661 16.3702Z" fill="white"/>
<path d="M91.3144 31.0811C90.9685 31.0811 90.6568 30.9928 90.3794 30.8163L90.6118 30.4001C90.8244 30.5334 91.0442 30.6001 91.2711 30.6001C91.3792 30.6001 91.4657 30.5785 91.5306 30.5352C91.5954 30.4884 91.6278 30.4272 91.6278 30.3515C91.6278 30.2974 91.6026 30.247 91.5522 30.2002C91.5017 30.1497 91.4495 30.1137 91.3955 30.0921C91.345 30.0668 91.2675 30.0344 91.1631 29.9948C90.9469 29.9119 90.7793 29.8146 90.6604 29.7029C90.5415 29.5876 90.4821 29.4381 90.4821 29.2544C90.4821 29.0418 90.5631 28.876 90.7253 28.7571C90.891 28.6382 91.0946 28.5788 91.336 28.5788C91.6134 28.5788 91.8765 28.6509 92.1251 28.795L91.9197 29.1895C91.7395 29.0958 91.5612 29.049 91.3846 29.049C91.1577 29.049 91.0442 29.1174 91.0442 29.2544C91.0442 29.3264 91.0802 29.3895 91.1522 29.4435C91.2279 29.494 91.3378 29.5444 91.4819 29.5949C91.7161 29.6813 91.8945 29.7822 92.017 29.8975C92.1431 30.0128 92.2061 30.1641 92.2061 30.3515C92.2061 30.5749 92.1233 30.7532 91.9575 30.8865C91.7954 31.0162 91.581 31.0811 91.3144 31.0811Z" fill="white"/>
<path d="M88.9418 28.5518C89.2805 28.5518 89.5471 28.6581 89.7417 28.8707C89.9398 29.0832 90.0389 29.3715 90.0389 29.7354C90.0389 29.793 90.0317 29.8867 90.0173 30.0164H88.2878C88.3239 30.2074 88.4103 30.3551 88.5472 30.4596C88.6878 30.5605 88.8571 30.6109 89.0553 30.6109C89.3075 30.6109 89.5201 30.5353 89.693 30.3839L89.9416 30.7622C89.6642 30.9856 89.3507 31.0973 89.0012 31.0973C88.6157 31.0973 88.3022 30.9784 88.0608 30.7406C87.8194 30.5028 87.6987 30.1948 87.6987 29.8165C87.6987 29.4598 87.8158 29.1607 88.05 28.9193C88.2842 28.6743 88.5815 28.5518 88.9418 28.5518ZM88.931 29.0328C88.7688 29.0328 88.6301 29.085 88.5148 29.1895C88.3995 29.2904 88.3257 29.4327 88.2932 29.6165H89.4822C89.475 29.4291 89.421 29.285 89.3201 29.1841C89.2192 29.0832 89.0895 29.0328 88.931 29.0328Z" fill="white"/>
<path d="M86.8648 28.114C86.7531 28.114 86.6631 28.0816 86.5946 28.0167C86.5297 27.9483 86.4973 27.8636 86.4973 27.7627C86.4973 27.6618 86.5297 27.5789 86.5946 27.5141C86.6631 27.4456 86.7531 27.4114 86.8648 27.4114C86.9765 27.4114 87.0648 27.4456 87.1296 27.5141C87.1981 27.5826 87.2323 27.6672 87.2323 27.7681C87.2323 27.8654 87.1981 27.9483 87.1296 28.0167C87.0612 28.0816 86.9729 28.114 86.8648 28.114ZM86.5676 31.027V28.6166H87.1567V31.027H86.5676Z" fill="white"/>
<path d="M85.4852 28.6166H85.8744V31.1243C85.8744 31.499 85.7591 31.7855 85.5285 31.9836C85.2979 32.1818 84.9916 32.2809 84.6097 32.2809C84.1809 32.2809 83.817 32.1584 83.518 31.9134L83.745 31.4702C83.9792 31.6576 84.2512 31.7512 84.5611 31.7512C84.7844 31.7512 84.9592 31.699 85.0853 31.5945C85.215 31.49 85.2799 31.3369 85.2799 31.1351C85.2799 31.0523 85.2835 30.9207 85.2907 30.7406C85.0817 30.9604 84.8151 31.0703 84.4908 31.0703C84.1485 31.0703 83.8693 30.9532 83.6531 30.719C83.4405 30.4848 83.3342 30.1839 83.3342 29.8164C83.3342 29.4489 83.4405 29.1481 83.6531 28.9139C83.8657 28.6761 84.1413 28.5572 84.48 28.5572C84.8655 28.5572 85.161 28.6941 85.3663 28.9679L85.4852 28.6166ZM84.6097 30.5622C84.8295 30.5622 85.0006 30.4938 85.1231 30.3569C85.2456 30.2164 85.3069 30.0362 85.3069 29.8164C85.3069 29.5966 85.2456 29.4183 85.1231 29.2814C85.0042 29.1409 84.8349 29.0706 84.6151 29.0706C84.4061 29.0706 84.2404 29.139 84.1179 29.276C83.9954 29.4129 83.9341 29.593 83.9341 29.8164C83.9341 30.0362 83.9954 30.2164 84.1179 30.3569C84.2404 30.4938 84.4043 30.5622 84.6097 30.5622Z" fill="white"/>
<path d="M82.5679 30.7406C82.3265 30.9784 82.0167 31.0973 81.6384 31.0973C81.26 31.0973 80.9502 30.9784 80.7088 30.7406C80.4674 30.5028 80.3467 30.1966 80.3467 29.8219C80.3467 29.4507 80.4674 29.1463 80.7088 28.9085C80.9502 28.6707 81.26 28.5518 81.6384 28.5518C82.0167 28.5518 82.3265 28.6707 82.5679 28.9085C82.813 29.1463 82.9355 29.4507 82.9355 29.8219C82.9355 30.193 82.813 30.4992 82.5679 30.7406ZM81.6384 30.5731C81.8473 30.5731 82.0149 30.5046 82.141 30.3677C82.2707 30.2272 82.3356 30.0452 82.3356 29.8219C82.3356 29.5985 82.2707 29.4183 82.141 29.2814C82.0149 29.1409 81.8473 29.0706 81.6384 29.0706C81.433 29.0706 81.2655 29.1409 81.1357 29.2814C81.006 29.4219 80.9412 29.6021 80.9412 29.8219C80.9412 30.0416 81.006 30.2218 81.1357 30.3623C81.2655 30.5028 81.433 30.5731 81.6384 30.5731Z" fill="white"/>
<path d="M79.2102 31.027V27.1358H79.7993L79.8047 31.027H79.2102Z" fill="white"/>
<path d="M78.3035 30.7406C78.0621 30.9784 77.7523 31.0973 77.374 31.0973C76.9956 31.0973 76.6858 30.9784 76.4444 30.7406C76.203 30.5028 76.0823 30.1966 76.0823 29.8219C76.0823 29.4507 76.203 29.1463 76.4444 28.9085C76.6858 28.6707 76.9956 28.5518 77.374 28.5518C77.7523 28.5518 78.0621 28.6707 78.3035 28.9085C78.5486 29.1463 78.6711 29.4507 78.6711 29.8219C78.6711 30.193 78.5486 30.4992 78.3035 30.7406ZM77.374 30.5731C77.5829 30.5731 77.7505 30.5046 77.8766 30.3677C78.0063 30.2272 78.0711 30.0452 78.0711 29.8219C78.0711 29.5985 78.0063 29.4183 77.8766 29.2814C77.7505 29.1409 77.5829 29.0706 77.374 29.0706C77.1686 29.0706 77.001 29.1409 76.8713 29.2814C76.7416 29.4219 76.6768 29.6021 76.6768 29.8219C76.6768 30.0416 76.7416 30.2218 76.8713 30.3623C77.001 30.5028 77.1686 30.5731 77.374 30.5731Z" fill="white"/>
<path d="M74.7184 28.5518C74.9923 28.5518 75.2012 28.6365 75.3454 28.8058C75.4931 28.9715 75.5669 29.2093 75.5669 29.5192V31.0271H74.9779V29.5732C74.9779 29.2454 74.8409 29.0814 74.5671 29.0814C74.387 29.0814 74.2428 29.1391 74.1347 29.2544C74.0303 29.3697 73.978 29.5192 73.978 29.703V31.0271H73.3889V28.6166H73.7889L73.9078 28.995C74.0987 28.6995 74.3689 28.5518 74.7184 28.5518Z" fill="white"/>
<path d="M71.8681 28.5518C72.1455 28.5518 72.3563 28.6364 72.5004 28.8058C72.6481 28.9751 72.722 29.2111 72.722 29.5138V31.027H72.1329V29.5624C72.1329 29.2417 71.9942 29.0814 71.7167 29.0814C71.533 29.0814 71.3889 29.1481 71.2844 29.2814C71.1835 29.4147 71.133 29.5822 71.133 29.784V31.027H70.5439V27.1358H71.133V28.5734C71.133 28.7211 71.1312 28.8436 71.1276 28.9409C71.2934 28.6815 71.5402 28.5518 71.8681 28.5518Z" fill="white"/>
<path d="M69.1444 31.0973C68.8129 31.0973 68.5229 30.9838 68.2743 30.7568C68.0257 30.5299 67.9014 30.2182 67.9014 29.8219C67.9014 29.4399 68.0239 29.1337 68.2689 28.9031C68.5139 28.6689 68.8147 28.5518 69.1714 28.5518C69.5209 28.5518 69.82 28.6599 70.0686 28.8761L69.7821 29.2706C69.62 29.1337 69.4309 29.0652 69.2147 29.0652C69.0093 29.0652 68.8382 29.1355 68.7012 29.276C68.5643 29.4129 68.4959 29.5949 68.4959 29.8219C68.4959 30.0525 68.5625 30.2362 68.6958 30.3731C68.8327 30.51 69.0021 30.5785 69.2039 30.5785C69.4381 30.5785 69.6434 30.4956 69.82 30.3299L70.1172 30.7244C69.847 30.973 69.5227 31.0973 69.1444 31.0973Z" fill="white"/>
<path d="M66.4318 28.5518C66.7705 28.5518 67.0371 28.6581 67.2316 28.8707C67.4298 29.0832 67.5289 29.3715 67.5289 29.7354C67.5289 29.793 67.5217 29.8867 67.5073 30.0164H65.7778C65.8138 30.2074 65.9003 30.3551 66.0372 30.4596C66.1778 30.5605 66.3471 30.6109 66.5453 30.6109C66.7975 30.6109 67.0101 30.5353 67.183 30.3839L67.4316 30.7622C67.1542 30.9856 66.8407 31.0973 66.4912 31.0973C66.1057 31.0973 65.7922 30.9784 65.5508 30.7406C65.3094 30.5028 65.1887 30.1948 65.1887 29.8165C65.1887 29.4598 65.3058 29.1607 65.54 28.9193C65.7742 28.6743 66.0715 28.5518 66.4318 28.5518ZM66.421 29.0328C66.2588 29.0328 66.1201 29.085 66.0048 29.1895C65.8895 29.2904 65.8156 29.4327 65.7832 29.6165H66.9722C66.965 29.4291 66.911 29.285 66.8101 29.1841C66.7092 29.0832 66.5795 29.0328 66.421 29.0328Z" fill="white"/>
<path d="M65.3664 27.352V27.9411H64.3288V31.027H63.691V27.9411H62.6479V27.352H65.3664Z" fill="white"/>
<path d="M60.4545 31.0811C60.1086 31.0811 59.797 30.9928 59.5195 30.8163L59.7519 30.4001C59.9645 30.5334 60.1843 30.6001 60.4113 30.6001C60.5194 30.6001 60.6058 30.5785 60.6707 30.5352C60.7356 30.4884 60.768 30.4272 60.768 30.3515C60.768 30.2974 60.7428 30.247 60.6923 30.2002C60.6419 30.1497 60.5896 30.1137 60.5356 30.0921C60.4851 30.0668 60.4077 30.0344 60.3032 29.9948C60.087 29.9119 59.9195 29.8146 59.8006 29.7029C59.6817 29.5876 59.6222 29.4381 59.6222 29.2544C59.6222 29.0418 59.7033 28.876 59.8654 28.7571C60.0312 28.6382 60.2347 28.5788 60.4761 28.5788C60.7536 28.5788 61.0166 28.6509 61.2652 28.795L61.0598 29.1895C60.8797 29.0958 60.7013 29.049 60.5248 29.049C60.2978 29.049 60.1843 29.1174 60.1843 29.2544C60.1843 29.3264 60.2203 29.3895 60.2924 29.4435C60.368 29.494 60.4779 29.5444 60.6221 29.5949C60.8563 29.6813 61.0346 29.7822 61.1571 29.8975C61.2832 30.0128 61.3463 30.1641 61.3463 30.3515C61.3463 30.5749 61.2634 30.7532 61.0977 30.8865C60.9355 31.0162 60.7211 31.0811 60.4545 31.0811Z" fill="white"/>
<path d="M58.0822 28.5518C58.4208 28.5518 58.6875 28.6581 58.882 28.8707C59.0802 29.0832 59.1793 29.3715 59.1793 29.7354C59.1793 29.793 59.1721 29.8867 59.1577 30.0164H57.4282C57.4642 30.2074 57.5507 30.3551 57.6876 30.4596C57.8281 30.5605 57.9975 30.6109 58.1957 30.6109C58.4479 30.6109 58.6604 30.5353 58.8334 30.3839L59.082 30.7622C58.8046 30.9856 58.4911 31.0973 58.1416 31.0973C57.7561 31.0973 57.4426 30.9784 57.2012 30.7406C56.9598 30.5028 56.8391 30.1948 56.8391 29.8165C56.8391 29.4598 56.9562 29.1607 57.1904 28.9193C57.4246 28.6743 57.7219 28.5518 58.0822 28.5518ZM58.0713 29.0328C57.9092 29.0328 57.7705 29.085 57.6552 29.1895C57.5399 29.2904 57.466 29.4327 57.4336 29.6165H58.6226C58.6154 29.4291 58.5614 29.285 58.4605 29.1841C58.3596 29.0832 58.2299 29.0328 58.0713 29.0328Z" fill="white"/>
<path d="M55.7026 31.027V27.1358H56.2917L56.2971 31.027H55.7026Z" fill="white"/>
<path d="M54.4148 31.027V27.1358H55.0039L55.0093 31.027H54.4148Z" fill="white"/>
<path d="M52.7938 28.5518C53.1325 28.5518 53.3991 28.6581 53.5937 28.8707C53.7919 29.0832 53.8909 29.3715 53.8909 29.7354C53.8909 29.793 53.8837 29.8867 53.8693 30.0164H52.1399C52.1759 30.2074 52.2624 30.3551 52.3993 30.4596C52.5398 30.5605 52.7092 30.6109 52.9073 30.6109C53.1595 30.6109 53.3721 30.5353 53.5451 30.3839L53.7937 30.7622C53.5162 30.9856 53.2028 31.0973 52.8533 31.0973C52.4678 31.0973 52.1543 30.9784 51.9129 30.7406C51.6715 30.5028 51.5508 30.1948 51.5508 29.8165C51.5508 29.4598 51.6679 29.1607 51.9021 28.9193C52.1363 28.6743 52.4335 28.5518 52.7938 28.5518ZM52.783 29.0328C52.6209 29.0328 52.4822 29.085 52.3669 29.1895C52.2516 29.2904 52.1777 29.4327 52.1453 29.6165H53.3343C53.3271 29.4291 53.273 29.285 53.1721 29.1841C53.0713 29.0832 52.9415 29.0328 52.783 29.0328Z" fill="white"/>
<path d="M50.7893 28.6166H51.4378V28.6329L50.2921 31.0487H50.0381L48.8977 28.6329V28.6166H49.5463L50.0164 29.6975C50.0813 29.8453 50.1317 29.9966 50.1678 30.1515C50.2146 29.9714 50.2651 29.82 50.3191 29.6975L50.7893 28.6166Z" fill="white"/>
<path d="M47.917 28.6166H48.5061V31.0271H48.0953L47.9764 30.6542C47.7999 30.9352 47.5441 31.0757 47.209 31.0757C46.9244 31.0757 46.7082 30.991 46.5605 30.8217C46.4127 30.6487 46.3389 30.4109 46.3389 30.1083V28.6166H46.9334V30.0542C46.9334 30.3821 47.0739 30.5461 47.3549 30.5461C47.5315 30.5461 47.6684 30.4812 47.7657 30.3515C47.8666 30.2218 47.917 30.0597 47.917 29.8651V28.6166Z" fill="white"/>
<path d="M45.4644 30.7406C45.223 30.9784 44.9132 31.0973 44.5349 31.0973C44.1565 31.0973 43.8467 30.9784 43.6053 30.7406C43.3639 30.5028 43.2432 30.1966 43.2432 29.8219C43.2432 29.4507 43.3639 29.1463 43.6053 28.9085C43.8467 28.6707 44.1565 28.5518 44.5349 28.5518C44.9132 28.5518 45.223 28.6707 45.4644 28.9085C45.7094 29.1463 45.8319 29.4507 45.8319 29.8219C45.8319 30.193 45.7094 30.4992 45.4644 30.7406ZM44.5349 30.5731C44.7438 30.5731 44.9114 30.5046 45.0375 30.3677C45.1672 30.2272 45.232 30.0452 45.232 29.8219C45.232 29.5985 45.1672 29.4183 45.0375 29.2814C44.9114 29.1409 44.7438 29.0706 44.5349 29.0706C44.3295 29.0706 44.1619 29.1409 44.0322 29.2814C43.9025 29.4219 43.8377 29.6021 43.8377 29.8219C43.8377 30.0416 43.9025 30.2218 44.0322 30.3623C44.1619 30.5028 44.3295 30.5731 44.5349 30.5731Z" fill="white"/>
<path d="M41.9677 27.352H42.6001V31.0487H42.3515L40.368 28.8815C40.2239 28.7265 40.1212 28.6148 40.0599 28.5464C40.0743 28.7265 40.0816 28.8598 40.0816 28.9463V31.0271H39.4492V27.3304H39.6924L41.6164 29.4435C41.7822 29.6165 41.9047 29.748 41.984 29.8381C41.9731 29.6579 41.9677 29.494 41.9677 29.3462V27.352Z" fill="white"/>
</g>
<defs>
<clipPath id="clip0_1638_244">
<rect width="104" height="32" fill="white"/>
</clipPath>
</defs>
</svg>
