<svg width="186" height="32" viewBox="0 0 186 32" fill="none" xmlns="http://www.w3.org/2000/svg">
<g clip-path="url(#clip0_1544_284)">
<path d="M41.9053 11.2183H42.6478V7.40296C42.6478 6.1482 43.608 5.35446 44.6195 5.35446C45.49 5.35446 46.0791 5.85375 46.0791 7.0445V11.2183H46.8344V6.69884C46.8344 5.5849 46.1815 4.68861 44.8499 4.68861C43.9794 4.68861 43.1215 5.14963 42.6862 6.05859H42.6478V2.08962H41.9053V11.2183ZM50.9956 11.3847C52.4679 11.3847 53.5561 10.5142 53.5561 8.86255V7.21092C53.5561 5.5977 52.5448 4.70141 50.9699 4.70141C49.5103 4.70141 48.3836 5.5593 48.3836 7.22373V8.93936C48.3836 10.5526 49.4335 11.3847 50.9956 11.3847ZM50.9956 10.7446C49.7408 10.7446 49.1391 10.0019 49.1391 8.91376V7.19812C49.1391 6.05859 49.7664 5.34166 50.9699 5.34166C52.2246 5.34166 52.8008 6.10979 52.8008 7.14691V8.87535C52.8008 10.0916 52.199 10.7446 50.9956 10.7446ZM57.2052 11.3719C58.4086 11.3719 59.6249 10.6934 59.6249 9.34904C59.6249 8.41433 58.9976 7.94065 58.1013 7.73581L57.154 7.53098C56.2193 7.32614 55.7072 7.0701 55.7072 6.40424C55.7072 5.75133 56.2705 5.27765 57.1156 5.27765C57.8709 5.27765 58.3958 5.48248 58.8056 5.81534L59.3049 5.39287C58.8184 4.89358 58.0757 4.68861 57.1796 4.68861C55.7712 4.68861 54.9645 5.49529 54.9645 6.53227C54.9645 7.42856 55.6432 7.94065 56.7698 8.15829L57.474 8.31192C58.3574 8.47848 58.844 8.72173 58.844 9.50266C58.844 10.3221 58.0117 10.7702 57.1924 10.7702C56.3473 10.7702 55.7456 10.5142 55.2079 10.0019L54.6957 10.4374C55.2847 11.1159 56.1937 11.3719 57.2052 11.3719ZM61.1485 13.7021H61.8911V10.0788H61.9295C62.1983 10.911 63.0306 11.3847 63.8628 11.3847C65.0536 11.3847 66.2314 10.6806 66.2314 8.96497V6.86526C66.2314 5.53369 65.3225 4.68861 63.978 4.68861C63.2483 4.68861 62.3392 5.07281 61.8911 5.98177H61.8655V4.84237H61.1485V13.7021ZM63.7603 10.7446C62.7616 10.7446 61.8911 9.96354 61.8911 8.73453V7.42856C61.8911 6.09699 62.864 5.34166 63.7475 5.34166C64.8232 5.34166 65.4633 6.03298 65.4633 6.91647V9.06739C65.4633 10.2196 64.5926 10.7446 63.7603 10.7446ZM67.8448 11.2183H68.5873V4.84237H67.8448V11.2183ZM67.8448 3.30597H68.5873V2H67.8448V3.30597ZM72.5435 11.3335C72.8124 11.3335 73.3244 11.2951 73.7341 11.1671V10.5142C73.4269 10.591 73.094 10.655 72.7611 10.655C72.1081 10.655 71.7624 10.4374 71.7624 9.74382V5.45688H73.6573V4.84237H71.7624V2.84495H71.0071V4.84237H69.8164V5.45688H71.0071V9.94865C71.0071 11.0263 71.7496 11.3335 72.5435 11.3335ZM76.7812 11.3591C77.5623 11.3591 78.42 11.1927 78.945 10.2068H78.9706C78.9706 10.399 78.9962 11.0007 79.0218 11.2183H79.7644C79.726 10.9367 79.6748 9.98915 79.6748 9.61788V6.51947C79.6748 5.13682 78.5736 4.68861 77.3318 4.68861C76.1411 4.68861 74.9631 5.16243 74.9631 6.42985V6.62188H75.6546V6.41705C75.6546 5.5849 76.4995 5.30325 77.2934 5.30325C78.2536 5.30325 78.9194 5.64891 78.9194 6.64763V7.6334H77.0502C76.0003 7.6334 74.6815 8.10708 74.6815 9.54107C74.6815 10.719 75.629 11.3591 76.7812 11.3591ZM76.9862 10.7702C76.1795 10.7702 75.437 10.3606 75.437 9.50266C75.437 8.41433 76.3331 8.19669 77.2038 8.19669H78.9194V8.91376C78.9194 10.0148 78.2664 10.7702 76.9862 10.7702ZM82.9268 11.2823C83.2085 11.2823 83.5671 11.2439 83.8743 11.1543V10.5782C83.6695 10.6038 83.4262 10.6422 83.1701 10.6422C82.5299 10.6422 82.2483 10.2602 82.2483 9.76093V2.08962H81.493V9.70972C81.493 10.5014 81.813 11.2823 82.9268 11.2823Z" fill="#B4B4B4"/>
<path fill-rule="evenodd" clip-rule="evenodd" d="M7.69762 11.3458H7.68634H1.64049C1.39864 11.3458 1.17864 11.3835 0.981179 11.4584C0.781214 11.5342 0.605181 11.6479 0.453642 11.7994H0.453367C0.302245 11.951 0.188556 12.1266 0.112438 12.3271C0.0375728 12.525 0 12.7447 0 12.9867V14.3691V14.4978V17.6502V19.0324C0 19.2741 0.0375728 19.4943 0.112438 19.6916C0.188556 19.8924 0.302245 20.0681 0.453367 20.2195L0.453642 20.2194C0.605181 20.3707 0.781214 20.4848 0.981179 20.5602C1.17864 20.6356 1.39864 20.6728 1.64049 20.6728H7.68634H7.69762C7.93515 20.6739 8.15126 20.711 8.34566 20.7852C8.54604 20.8612 8.72235 20.975 8.87347 21.126V21.1266C9.02487 21.2778 9.13856 21.454 9.2144 21.6539C9.28801 21.8481 9.32559 22.0645 9.32684 22.3017V22.313V23.6954V26.8476V26.9763V28.3588C9.32684 28.6007 9.36441 28.8206 9.43928 29.0184C9.51512 29.2184 9.62881 29.3942 9.78021 29.5454V29.546C9.93147 29.6974 10.1076 29.8108 10.308 29.8872C10.5055 29.962 10.7255 29.9997 10.9673 29.9997H17.0132C17.255 29.9997 17.475 29.962 17.6725 29.8872C17.8725 29.8113 18.0485 29.6976 18.2 29.546H18.2003C18.3514 29.3947 18.4653 29.2188 18.5412 29.0184C18.6161 28.8206 18.6537 28.6007 18.6537 28.3588V26.9763V26.8476V23.6954V22.313V22.3017C18.6549 22.0645 18.6926 21.8481 18.7661 21.6539C18.8422 21.453 18.9559 21.2773 19.107 21.126L19.1073 21.1261C19.2589 20.9747 19.4349 20.8608 19.6349 20.7852C19.8293 20.711 20.0455 20.6739 20.2829 20.6728H20.2942H26.34H26.3513C26.5888 20.6739 26.8049 20.711 26.9993 20.7852C27.1997 20.8612 27.376 20.975 27.5272 21.126V21.1266C27.6786 21.2778 27.7922 21.454 27.8681 21.6539C27.9417 21.8481 27.9793 22.0645 27.9805 22.3017V22.313V23.6954V26.8476V26.9763V28.3588C27.9805 28.6007 28.0181 28.8206 28.093 29.0184C28.1688 29.2184 28.2825 29.3942 28.4339 29.5454V29.546C28.5851 29.6974 28.7613 29.8108 28.9617 29.8872C29.1592 29.962 29.3792 29.9997 29.621 29.9997H35.6669C35.9087 29.9997 36.1287 29.962 36.3262 29.8872C36.5261 29.8113 36.7022 29.6976 36.8537 29.546H36.854C37.0051 29.3947 37.1189 29.2188 37.1949 29.0184C37.2698 28.8206 37.3074 28.6007 37.3074 28.3588V26.9763V26.8476V23.6954V22.313C37.3074 22.0714 37.2698 21.8511 37.1949 21.6539C37.1189 21.453 37.0051 21.2773 36.854 21.126L36.8537 21.1261C36.7022 20.9747 36.5261 20.8608 36.3262 20.7852C36.1287 20.7099 35.9087 20.6728 35.6669 20.6728H29.621H29.6097C29.3723 20.6715 29.1561 20.6344 28.9617 20.5602C28.7613 20.4842 28.5851 20.3704 28.4339 20.2195V20.2188C28.2825 20.0677 28.1688 19.8914 28.093 19.6916C28.0193 19.4973 27.9818 19.2809 27.9805 19.0437V19.0324V17.6502V14.4978V14.3691V12.9867V12.9754C27.9818 12.7378 28.0193 12.5219 28.093 12.3271C28.1688 12.1271 28.2825 11.9514 28.4339 11.8V11.7994C28.5851 11.648 28.7613 11.5346 28.9617 11.4584C29.1514 11.3863 29.362 11.3487 29.5929 11.3459L29.621 11.3462H35.6669C35.9087 11.3462 36.1287 11.3085 36.3262 11.2336C36.5261 11.1578 36.7022 11.0441 36.8537 10.8924H36.854C37.0051 10.741 37.1189 10.5653 37.1949 10.3649C37.2698 10.167 37.3074 9.94715 37.3074 9.70529V8.32279V8.19408V5.0418V3.65944C37.3074 3.41787 37.2698 3.19759 37.1949 3.00041C37.1189 2.79947 37.0051 2.62371 36.854 2.47245L36.8537 2.47259C36.7022 2.32119 36.5261 2.20722 36.3262 2.13166C36.1287 2.05638 35.9087 2.01923 35.6669 2.01923H29.621C29.3792 2.01923 29.1592 2.05638 28.9617 2.13166C28.7613 2.20778 28.5851 2.32147 28.4339 2.47245V2.47301C28.2825 2.62427 28.1688 2.80044 28.093 3.00041C28.0181 3.19759 27.9805 3.41787 27.9805 3.65944V5.0418V8.19408V8.32279V9.70529V9.71657C27.9793 9.95396 27.9417 10.1698 27.8681 10.3645C27.7922 10.5644 27.6786 10.7402 27.5272 10.8916V10.8921C27.376 11.0435 27.1997 11.157 26.9993 11.2332C26.8049 11.3068 26.5888 11.3445 26.3513 11.3458H26.34H20.2942H20.2829C20.0455 11.3445 19.8293 11.3068 19.6349 11.2332C19.4349 11.1574 19.2589 11.0437 19.1073 10.8921H19.107C18.9559 10.7407 18.8422 10.565 18.7661 10.3645C18.6926 10.1698 18.6549 9.95397 18.6537 9.71671V9.70529V8.32279V5.17108V5.04194V3.65944C18.6537 3.41801 18.616 3.19787 18.5411 3.00041C18.4653 2.80044 18.3514 2.62469 18.2 2.47329V2.47287C18.0489 2.32147 17.8729 2.20778 17.6725 2.1318C17.4748 2.05694 17.2549 2.01923 17.0132 2.01923H10.9673C10.7256 2.01923 10.5058 2.05694 10.308 2.1318C10.1082 2.2075 9.9323 2.32133 9.78076 2.47315L9.78048 2.47287C9.62908 2.62371 9.51539 2.80002 9.43928 3.00041C9.36455 3.19787 9.32684 3.41801 9.32684 3.65944V5.04194V5.17108V8.32279V9.70529V9.71671C9.32559 9.95397 9.28801 10.1698 9.2144 10.3645C9.13856 10.5644 9.02487 10.7402 8.87347 10.8916V10.8921C8.72235 11.0435 8.54604 11.157 8.34566 11.2332C8.15126 11.3068 7.93515 11.3445 7.69762 11.3458Z" fill="#FAF9FA"/>
<path fill-rule="evenodd" clip-rule="evenodd" d="M90.222 16.4266V20.697H100.418H100.611V20.8874V21.7798V21.9702H100.418H90.222V27.5791C90.222 27.6545 90.2306 27.7261 90.2471 27.7934C90.2641 27.8621 90.2899 27.9288 90.3238 27.9932C90.3599 28.0612 90.402 28.1275 90.4499 28.1916C90.4968 28.2545 90.5488 28.3142 90.6052 28.37H90.606C90.6639 28.4271 90.7235 28.4773 90.7844 28.5199C90.8454 28.5627 90.9113 28.601 90.9816 28.6339L90.9815 28.6341C91.0483 28.6656 91.1152 28.689 91.1816 28.7041C91.2472 28.7192 91.3151 28.7269 91.3843 28.7269H100.418C100.478 28.7269 100.541 28.7192 100.605 28.7041C100.672 28.6883 100.742 28.6642 100.813 28.6325C100.886 28.6002 100.954 28.5618 101.017 28.5185C101.079 28.4761 101.139 28.4264 101.196 28.37C101.254 28.3124 101.307 28.2527 101.352 28.1915C101.4 28.1273 101.442 28.061 101.478 27.9932C101.512 27.929 101.538 27.8624 101.555 27.7936C101.571 27.7261 101.58 27.6545 101.58 27.5791V27.3884H101.773H102.676H102.869V27.5791C102.869 27.9359 102.813 28.2604 102.701 28.552C102.588 28.8469 102.418 29.1066 102.191 29.3303L102.191 29.3309C101.965 29.5539 101.702 29.7216 101.403 29.8338C101.108 29.9447 100.779 29.9999 100.418 29.9999H91.3843C90.6537 29.9999 90.0623 29.7767 89.6108 29.3309C89.3848 29.1077 89.2149 28.848 89.1013 28.552C88.9893 28.2604 88.9331 27.9359 88.9331 27.5791V16.4266V16.2361H89.1261H90.0294H90.222V16.4266Z" fill="#B4B4B4"/>
<path fill-rule="evenodd" clip-rule="evenodd" d="M121.495 16.427C121.495 26.883 121.495 15.3397 121.495 27.5791C121.495 27.6546 121.503 27.7262 121.52 27.7934C121.537 27.8622 121.563 27.929 121.597 27.9933C121.633 28.0613 121.675 28.1276 121.723 28.1917C121.77 28.2546 121.822 28.3143 121.878 28.3701H121.879C121.937 28.4272 121.996 28.4775 122.057 28.52C122.118 28.5628 122.184 28.6011 122.254 28.6339V28.6342C122.321 28.6657 122.388 28.689 122.455 28.7042C122.52 28.7194 122.588 28.727 122.657 28.727H131.69C131.751 28.727 131.814 28.7194 131.878 28.7042C131.945 28.6883 132.014 28.6644 132.086 28.6325C132.158 28.6003 132.226 28.562 132.29 28.5186C132.352 28.4761 132.412 28.4265 132.469 28.3701C132.527 28.3125 132.58 28.2528 132.625 28.1916C132.673 28.1276 132.715 28.061 132.751 27.9933C132.785 27.9291 132.811 27.8625 132.828 27.7939C132.844 27.7262 132.853 27.6546 132.853 27.5791V27.3886H133.045H133.949H134.142V27.5791C134.142 27.9359 134.085 28.2605 133.973 28.5521C133.86 28.847 133.69 29.1066 133.464 29.3304L133.464 29.331C133.238 29.554 132.975 29.7217 132.676 29.8339C132.38 29.9448 132.052 30 131.69 30H122.657C121.927 30 121.335 29.7768 120.884 29.331C120.658 29.1078 120.488 28.8481 120.374 28.5521C120.262 28.2605 120.206 27.9359 120.206 27.5791V16.427V16.2365H120.399H121.302H121.495V16.427Z" fill="#B4B4B4"/>
<path fill-rule="evenodd" clip-rule="evenodd" d="M168.448 20.4863V21.7882V27.524C168.448 27.601 168.457 27.6743 168.474 27.7432C168.491 27.8134 168.517 27.8817 168.552 27.9476C168.589 28.0172 168.632 28.0848 168.681 28.1505C168.729 28.2147 168.782 28.2759 168.84 28.333H168.841C168.9 28.3913 168.961 28.4425 169.023 28.486C169.085 28.53 169.152 28.5692 169.224 28.6028V28.6031C169.293 28.6353 169.361 28.6591 169.429 28.6746C169.496 28.6902 169.566 28.6981 169.636 28.6981H170.819V29.9996H169.636C168.889 29.9996 168.284 29.7715 167.823 29.3155C167.592 29.0872 167.418 28.8217 167.302 28.5191C167.187 28.2207 167.13 27.8889 167.13 27.524V20.4863H168.448ZM167.13 18.2589H168.448V19.5446H167.13V18.2589Z" fill="#B4B4B4"/>
<path fill-rule="evenodd" clip-rule="evenodd" d="M74.7505 20.8396C75.0465 20.7288 75.3759 20.6732 75.7382 20.6732H84.7947C85.157 20.6732 85.4864 20.7288 85.7824 20.8396C86.0827 20.9522 86.3464 21.1204 86.5729 21.3442V21.3447C86.7996 21.5688 86.9701 21.829 87.0838 22.1247C87.1959 22.4172 87.2522 22.7425 87.2522 23.1002V29.8089V29.9997H87.0589H86.1531H85.9598V29.8089V23.1002C85.9598 23.0246 85.9515 22.9527 85.9348 22.885C85.9181 22.8173 85.8923 22.7507 85.858 22.6859V22.6852C85.8216 22.6163 85.7795 22.5501 85.7323 22.487L85.7318 22.4862C85.6858 22.4248 85.6335 22.365 85.5751 22.3074C85.5179 22.2508 85.4579 22.2008 85.3958 22.1586C85.3314 22.1145 85.2631 22.0761 85.1911 22.044V22.0441C85.1198 22.0121 85.0502 21.9883 84.9823 21.9722V21.9716C84.9199 21.9569 84.8573 21.9495 84.7947 21.9495H75.7382C75.6687 21.9495 75.6007 21.9571 75.5349 21.9722C75.4691 21.9872 75.4022 22.0109 75.3344 22.0427H75.3338C75.2646 22.0751 75.1986 22.1134 75.1367 22.1568C75.0756 22.1997 75.0157 22.2502 74.9579 22.3074H74.9572C74.9005 22.3631 74.8485 22.4229 74.8013 22.4862L74.8006 22.487C74.7534 22.5501 74.7113 22.6163 74.675 22.6852C74.6409 22.7493 74.6153 22.8163 74.5981 22.8852C74.5814 22.9528 74.5732 23.0246 74.5732 23.1002V29.8089V29.9997H74.3798H73.474H73.2808V29.8089V23.1002C73.2808 22.7425 73.337 22.4172 73.4493 22.1247C73.5632 21.8283 73.7337 21.5678 73.9601 21.3442L73.9605 21.3443C74.1876 21.1201 74.4512 20.9516 74.7505 20.8396Z" fill="#B4B4B4"/>
<path fill-rule="evenodd" clip-rule="evenodd" d="M43.375 20.8396C43.6711 20.7288 44.0004 20.6732 44.3629 20.6732H53.4192C54.1519 20.6732 54.7445 20.8968 55.1975 21.3442V21.3447C55.4241 21.5688 55.5946 21.829 55.7082 22.1247C55.8205 22.4172 55.8767 22.7425 55.8767 23.1002V23.2912H55.6834H54.7778H54.5843V23.1002C54.5843 23.0246 54.576 22.9527 54.5592 22.885C54.5425 22.8173 54.5167 22.7507 54.4825 22.6859V22.6852C54.446 22.6163 54.4041 22.5501 54.3567 22.487L54.3561 22.4862C54.3104 22.4248 54.2579 22.365 54.1994 22.3074V22.3064C54.1441 22.2516 54.0839 22.202 54.0202 22.1584C53.9561 22.1145 53.8876 22.0761 53.8157 22.044L53.8154 22.0441C53.7443 22.0121 53.6746 21.9883 53.6068 21.9722V21.9716C53.5443 21.9569 53.4815 21.9495 53.4192 21.9495H44.3629C44.2932 21.9495 44.2253 21.9571 44.1594 21.9722C44.0936 21.9872 44.0265 22.0109 43.9589 22.0427C43.8884 22.0758 43.8221 22.114 43.7612 22.157C43.6983 22.2011 43.6384 22.251 43.5825 22.3064L43.5817 22.3074C43.5249 22.3631 43.4728 22.4227 43.4257 22.4862L43.425 22.487C43.3778 22.5501 43.3358 22.6163 43.2995 22.6852C43.2655 22.7493 43.2398 22.8163 43.2226 22.8852C43.206 22.9528 43.1975 23.0246 43.1975 23.1002C43.1975 23.176 43.206 23.2478 43.2226 23.3156C43.2398 23.3844 43.2655 23.4511 43.2995 23.5154C43.3358 23.584 43.3778 23.6504 43.425 23.7135L43.4257 23.7144C43.4716 23.7759 43.5239 23.8356 43.5825 23.8933C43.6403 23.9505 43.7002 24.001 43.7613 24.0438C43.8231 24.0873 43.8891 24.1253 43.9582 24.158H43.9589C44.0265 24.1897 44.0936 24.2133 44.1594 24.2284C44.2253 24.2433 44.2932 24.251 44.3629 24.251H53.4192C54.1519 24.251 54.7445 24.4749 55.1975 24.922C55.424 25.1457 55.594 25.4061 55.7082 25.7028C55.8205 25.9951 55.8767 26.3205 55.8767 26.6782V27.5727C55.8767 27.9305 55.8205 28.2557 55.7082 28.5482C55.5946 28.8438 55.4241 29.1041 55.197 29.3284L55.1975 29.329C54.9708 29.5526 54.7072 29.7207 54.4069 29.8333C54.1108 29.9443 53.7814 29.9997 53.4192 29.9997H44.3629C44.0004 29.9997 43.6711 29.9443 43.375 29.8333C43.0746 29.7207 42.811 29.5523 42.5845 29.329L42.585 29.3284C42.3577 29.1041 42.1872 28.8438 42.0738 28.5482C41.9615 28.2557 41.9053 27.9305 41.9053 27.5727V27.3817H42.0986H43.0042H43.1975V27.5727C43.1975 27.6483 43.206 27.7201 43.2226 27.7879C43.2398 27.8566 43.2655 27.9234 43.2995 27.9878C43.3356 28.0561 43.3779 28.1225 43.426 28.1868C43.4728 28.25 43.525 28.3098 43.5817 28.3656H43.5825C43.6403 28.423 43.7002 28.4733 43.7613 28.5161C43.8232 28.5596 43.8891 28.5979 43.9582 28.6303C44.0256 28.6617 44.0926 28.6855 44.1597 28.7007C44.2254 28.7159 44.2933 28.7235 44.3629 28.7235H53.4192C53.4797 28.7235 53.5425 28.7159 53.6068 28.7007C53.6746 28.6849 53.7443 28.6606 53.8154 28.6289C53.8883 28.5965 53.9565 28.5581 54.0201 28.5145C54.0823 28.4721 54.1422 28.4221 54.1994 28.3656H54.2004C54.2568 28.3098 54.309 28.25 54.3561 28.1867L54.357 28.1858C54.4041 28.1227 54.446 28.0564 54.4825 27.9878V27.987C54.5167 27.9224 54.5425 27.8558 54.5592 27.7879C54.576 27.7201 54.5843 27.6483 54.5843 27.5727V26.6782C54.5843 26.6025 54.576 26.5306 54.5592 26.4628C54.5425 26.3951 54.5167 26.3285 54.4825 26.2638V26.2631C54.446 26.1944 54.4041 26.128 54.3567 26.0647L54.3561 26.064C54.3104 26.0028 54.2579 25.9431 54.1994 25.8851V25.8844C54.1441 25.8297 54.0839 25.7799 54.0202 25.7363C53.9561 25.6925 53.8876 25.6541 53.8157 25.6218L53.8154 25.6221C53.7443 25.5902 53.6746 25.566 53.6068 25.5501V25.5496C53.5443 25.5349 53.4815 25.5274 53.4192 25.5274H44.3629C44.0004 25.5274 43.6711 25.4719 43.375 25.361C43.0746 25.2484 42.811 25.08 42.5845 24.8566C42.3579 24.6328 42.1878 24.3723 42.0738 24.0758C41.9615 23.7835 41.9053 23.4582 41.9053 23.1002C41.9053 22.7425 41.9615 22.4172 42.0738 22.1247C42.1878 21.8283 42.3579 21.5678 42.5845 21.3442L42.585 21.3443C42.8121 21.1201 43.0757 20.9516 43.375 20.8396Z" fill="#B4B4B4"/>
<path fill-rule="evenodd" clip-rule="evenodd" d="M59.0966 20.8396C59.3927 20.7288 59.7221 20.6732 60.0844 20.6732H69.141C69.5031 20.6732 69.8326 20.7288 70.1286 20.8396C70.4289 20.9522 70.6926 21.1204 70.9189 21.3442V21.3447C71.1457 21.5688 71.3162 21.829 71.4298 22.1247C71.542 22.4172 71.5982 22.7425 71.5982 23.1002V29.8089V29.9997H71.4049H60.0844C59.3518 29.9997 58.7588 29.7761 58.3062 29.329C58.0798 29.1052 57.9093 28.8449 57.7956 28.5482C57.6832 28.2557 57.627 27.9305 57.627 27.5727V26.6782C57.627 26.3205 57.6832 25.9951 57.7956 25.7028C57.909 25.4071 58.0792 25.1468 58.3062 24.9227V24.922C58.5326 24.6983 58.7963 24.5302 59.0966 24.4174C59.3927 24.3066 59.7221 24.251 60.0844 24.251H70.306V23.1002C70.306 23.0246 70.2975 22.9527 70.2808 22.885C70.2639 22.8161 70.2381 22.7492 70.2042 22.6852C70.1677 22.6167 70.1257 22.5504 70.0778 22.4862C70.032 22.4248 69.9797 22.365 69.9211 22.3074C69.8641 22.2508 69.8038 22.2008 69.7418 22.1582C69.6783 22.1149 69.6098 22.0768 69.5371 22.0441C69.4658 22.0121 69.3961 21.9882 69.3283 21.9722C69.2642 21.9571 69.2016 21.9495 69.141 21.9495H60.0844C60.0153 21.9495 59.9475 21.9571 59.8818 21.9722H59.881C59.8152 21.9872 59.7481 22.0109 59.6805 22.0427H59.6798C59.6106 22.0751 59.5449 22.1134 59.4829 22.1568C59.4218 22.1997 59.3619 22.2502 59.3039 22.3074H59.3032C59.2466 22.3631 59.1944 22.4227 59.1474 22.4862L59.1467 22.487C59.0994 22.5501 59.0573 22.6163 59.021 22.6852C58.9871 22.7493 58.9613 22.8164 58.9442 22.8853C58.9276 22.9528 58.9191 23.0247 58.9191 23.1002V23.2912H58.7257H57.8202H57.627V23.1002C57.627 22.7425 57.6832 22.4172 57.7956 22.1247C57.909 21.829 58.0792 21.569 58.3062 21.3447V21.3442C58.5326 21.1203 58.7963 20.9522 59.0966 20.8396ZM58.9191 26.6782V27.5727C58.9191 27.6483 58.9276 27.7201 58.9442 27.7876C58.9613 27.8565 58.9871 27.9234 59.021 27.9878C59.0573 28.0561 59.0995 28.1225 59.1475 28.1868C59.1944 28.25 59.2466 28.3098 59.3032 28.3656H59.3039C59.3619 28.423 59.4218 28.4733 59.4829 28.5161C59.5439 28.5589 59.61 28.5973 59.6805 28.6303V28.6306C59.7474 28.662 59.8145 28.6855 59.881 28.7007C59.9469 28.7159 60.0148 28.7235 60.0844 28.7235H70.306V25.5274H60.0844C60.0153 25.5274 59.9475 25.5349 59.8818 25.5501H59.881C59.8152 25.5651 59.7481 25.5889 59.6805 25.6205H59.6798C59.6106 25.6531 59.5449 25.6912 59.4829 25.7348C59.4218 25.7776 59.3619 25.828 59.3039 25.8851H59.3032C59.2466 25.941 59.1944 26.0007 59.1474 26.064L59.1467 26.0647C59.0994 26.128 59.0573 26.1944 59.021 26.2631C58.9871 26.3273 58.9613 26.3942 58.9442 26.4632C58.9276 26.5309 58.9191 26.6025 58.9191 26.6782Z" fill="#B4B4B4"/>
<path fill-rule="evenodd" clip-rule="evenodd" d="M106.022 20.8396C106.318 20.7288 106.647 20.6732 107.01 20.6732H116.066C116.428 20.6732 116.758 20.7288 117.054 20.8396C117.354 20.9522 117.618 21.1204 117.844 21.3442V21.3447C118.071 21.5688 118.241 21.829 118.355 22.1247C118.467 22.4172 118.524 22.7425 118.524 23.1002V29.8089V29.9997H118.33H107.01C106.277 29.9997 105.684 29.7761 105.231 29.329C105.005 29.1052 104.835 28.8449 104.721 28.5482C104.608 28.2557 104.552 27.9305 104.552 27.5727V26.6782C104.552 26.3205 104.608 25.9951 104.721 25.7028C104.834 25.4071 105.005 25.1468 105.231 24.9227V24.922C105.458 24.6983 105.722 24.5302 106.022 24.4174C106.318 24.3066 106.647 24.251 107.01 24.251H117.231V23.1002C117.231 23.0246 117.223 22.9527 117.206 22.885C117.189 22.8161 117.163 22.7492 117.129 22.6852C117.093 22.6167 117.051 22.5504 117.003 22.4862C116.957 22.4248 116.905 22.365 116.847 22.3074C116.789 22.2508 116.729 22.2008 116.667 22.1582C116.604 22.1149 116.535 22.0768 116.462 22.0441C116.391 22.0121 116.321 21.9882 116.254 21.9722C116.189 21.9571 116.127 21.9495 116.066 21.9495H107.01C106.941 21.9495 106.873 21.9571 106.807 21.9722H106.806C106.741 21.9872 106.673 22.0109 106.606 22.0427H106.605C106.536 22.0751 106.47 22.1134 106.408 22.1568C106.347 22.1997 106.287 22.2502 106.229 22.3074H106.229C106.172 22.3631 106.12 22.4227 106.073 22.4862L106.072 22.487C106.025 22.5501 105.983 22.6163 105.946 22.6852C105.912 22.7493 105.886 22.8164 105.869 22.8853C105.853 22.9528 105.844 23.0247 105.844 23.1002V23.2912H105.651H104.745H104.552V23.1002C104.552 22.7425 104.608 22.4172 104.721 22.1247C104.834 21.829 105.005 21.569 105.231 21.3447V21.3442C105.458 21.1203 105.722 20.9522 106.022 20.8396ZM105.844 26.6782V27.5727C105.844 27.6483 105.853 27.7201 105.869 27.7876C105.886 27.8565 105.912 27.9234 105.946 27.9878C105.983 28.0561 106.025 28.1225 106.073 28.1868C106.12 28.25 106.172 28.3098 106.229 28.3656H106.229C106.287 28.423 106.347 28.4733 106.408 28.5161C106.469 28.5589 106.535 28.5973 106.606 28.6303V28.6306C106.673 28.662 106.74 28.6855 106.806 28.7007C106.872 28.7159 106.94 28.7235 107.01 28.7235H117.231V25.5274H107.01C106.941 25.5274 106.873 25.5349 106.807 25.5501H106.806C106.741 25.5651 106.673 25.5889 106.606 25.6205H106.605C106.536 25.6531 106.47 25.6912 106.408 25.7348C106.347 25.7776 106.287 25.828 106.229 25.8851H106.229C106.172 25.941 106.12 26.0007 106.073 26.064L106.072 26.0647C106.025 26.128 105.983 26.1944 105.946 26.2631C105.912 26.3273 105.886 26.3942 105.869 26.4632C105.853 26.5309 105.844 26.6025 105.844 26.6782Z" fill="#B4B4B4"/>
<path fill-rule="evenodd" clip-rule="evenodd" d="M152.768 27.5727C152.768 27.6481 152.777 27.7201 152.793 27.7876C152.81 27.8565 152.836 27.9234 152.87 27.9878C152.906 28.0561 152.949 28.1225 152.997 28.1868C153.044 28.25 153.096 28.3098 153.152 28.3656H153.153C153.211 28.423 153.271 28.4731 153.332 28.5161C153.393 28.5589 153.459 28.5973 153.53 28.6303L153.53 28.6306C153.597 28.662 153.664 28.6855 153.73 28.7007C153.796 28.7159 153.864 28.7235 153.934 28.7235H162.99C163.051 28.7235 163.113 28.7159 163.177 28.7007C163.245 28.685 163.315 28.6606 163.386 28.6289C163.459 28.5965 163.527 28.5581 163.591 28.5145C163.653 28.4721 163.713 28.4221 163.77 28.3656C163.829 28.3079 163.881 28.248 163.927 28.1867C163.975 28.1225 164.017 28.0559 164.053 27.9878C164.087 27.9237 164.113 27.8567 164.13 27.7879C164.147 27.7201 164.155 27.6486 164.155 27.5727V27.3817H164.348H165.254H165.447V27.5727C165.447 27.9305 165.391 28.2557 165.279 28.5482C165.165 28.8438 164.995 29.1041 164.768 29.3284L164.768 29.329C164.542 29.5526 164.278 29.7209 163.978 29.8333C163.682 29.9443 163.352 29.9997 162.99 29.9997H153.934C153.201 29.9997 152.608 29.7761 152.155 29.329C151.929 29.1052 151.758 28.8449 151.644 28.5482C151.532 28.2557 151.476 27.9305 151.476 27.5727C151.476 26.0818 151.476 24.5909 151.476 23.1002C151.476 22.7424 151.532 22.417 151.644 22.1245C151.758 21.8279 151.929 21.5676 152.155 21.344C152.608 20.8968 153.201 20.6732 153.934 20.6732H162.99C163.352 20.6732 163.682 20.7285 163.978 20.8396C164.278 20.952 164.542 21.1203 164.768 21.344L164.768 21.3443C164.995 21.5686 165.165 21.829 165.279 22.1245C165.391 22.417 165.447 22.7424 165.447 23.1002V23.2911H165.254H164.348H164.155V23.1002C164.155 23.0245 164.147 22.9527 164.13 22.885C164.113 22.8161 164.087 22.7492 164.053 22.6851C164.017 22.6169 163.975 22.5504 163.927 22.4861C163.881 22.4248 163.829 22.3649 163.77 22.3073C163.713 22.2508 163.653 22.2008 163.591 22.1582C163.527 22.1148 163.459 22.0767 163.386 22.044C163.315 22.0121 163.245 21.9879 163.177 21.9722C163.113 21.9571 163.051 21.9493 162.99 21.9493H153.934C153.864 21.9493 153.796 21.9571 153.73 21.9722C153.664 21.9873 153.597 22.0109 153.53 22.0423L153.53 22.0424C153.459 22.0756 153.393 22.114 153.332 22.1568C153.271 22.1997 153.211 22.2501 153.153 22.3073H153.152C153.096 22.3631 153.044 22.4227 152.997 22.4858C152.949 22.5504 152.906 22.6167 152.87 22.6851C152.836 22.7493 152.81 22.8163 152.793 22.8852C152.777 22.9527 152.768 23.0246 152.768 23.1002C152.768 24.5909 152.768 26.0818 152.768 27.5727Z" fill="#B4B4B4"/>
<path fill-rule="evenodd" clip-rule="evenodd" d="M173.971 20.8396C174.267 20.7288 174.596 20.6732 174.958 20.6732H184.015C184.377 20.6732 184.707 20.7288 185.003 20.8396C185.303 20.9522 185.567 21.1204 185.793 21.3442V21.3447C186.02 21.5688 186.19 21.829 186.304 22.1247C186.416 22.4172 186.472 22.7425 186.472 23.1002V29.8089V29.9997H186.279H174.958C174.226 29.9997 173.633 29.7761 173.18 29.329C172.954 29.1052 172.783 28.8449 172.67 28.5482C172.557 28.2557 172.501 27.9305 172.501 27.5727V26.6782C172.501 26.3205 172.557 25.9951 172.67 25.7028C172.783 25.4071 172.953 25.1468 173.18 24.9227V24.922C173.407 24.6983 173.67 24.5302 173.971 24.4174C174.267 24.3066 174.596 24.251 174.958 24.251H185.18V23.1002C185.18 23.0246 185.172 22.9527 185.155 22.885C185.138 22.8161 185.112 22.7492 185.078 22.6852C185.042 22.6167 185 22.5504 184.952 22.4862C184.906 22.4248 184.854 22.365 184.795 22.3074C184.738 22.2508 184.678 22.2008 184.616 22.1582C184.552 22.1149 184.484 22.0768 184.411 22.0441C184.34 22.0121 184.27 21.9882 184.202 21.9722C184.138 21.9571 184.076 21.9495 184.015 21.9495H174.958C174.889 21.9495 174.822 21.9571 174.756 21.9722H174.755C174.689 21.9872 174.622 22.0109 174.554 22.0427H174.554C174.484 22.0751 174.419 22.1134 174.357 22.1568C174.296 22.1997 174.236 22.2502 174.178 22.3074H174.177C174.121 22.3631 174.069 22.4227 174.021 22.4862L174.021 22.487C173.974 22.5501 173.931 22.6163 173.895 22.6852C173.861 22.7493 173.835 22.8164 173.818 22.8853C173.802 22.9528 173.793 23.0247 173.793 23.1002V23.2912H173.6H172.694H172.501V23.1002C172.501 22.7425 172.557 22.4172 172.67 22.1247C172.783 21.829 172.953 21.569 173.18 21.3447V21.3442C173.407 21.1203 173.67 20.9522 173.971 20.8396ZM173.793 26.6782V27.5727C173.793 27.6483 173.802 27.7201 173.818 27.7876C173.835 27.8565 173.861 27.9234 173.895 27.9878C173.931 28.0561 173.974 28.1225 174.022 28.1868C174.069 28.25 174.121 28.3098 174.177 28.3656H174.178C174.236 28.423 174.296 28.4733 174.357 28.5161C174.418 28.5589 174.484 28.5973 174.554 28.6303V28.6306C174.622 28.662 174.689 28.6855 174.755 28.7007C174.821 28.7159 174.889 28.7235 174.958 28.7235H185.18V25.5274H174.958C174.889 25.5274 174.822 25.5349 174.756 25.5501H174.755C174.689 25.5651 174.622 25.5889 174.554 25.6205H174.554C174.484 25.6531 174.419 25.6912 174.357 25.7348C174.296 25.7776 174.236 25.828 174.178 25.8851H174.177C174.121 25.941 174.069 26.0007 174.021 26.064L174.021 26.0647C173.974 26.128 173.931 26.1944 173.895 26.2631C173.861 26.3273 173.835 26.3942 173.818 26.4632C173.802 26.5309 173.793 26.6025 173.793 26.6782Z" fill="#B4B4B4"/>
<path fill-rule="evenodd" clip-rule="evenodd" d="M137.292 29.8334C137.588 29.9441 137.917 29.9999 138.28 29.9999H147.336C147.698 29.9999 148.028 29.9441 148.324 29.8334C148.624 29.7207 148.888 29.5525 149.114 29.3287V29.3282C149.341 29.1041 149.512 28.8439 149.625 28.5484C149.737 28.2559 149.794 27.9305 149.794 27.5727V20.8641V20.673H149.6H148.695H148.501V20.8641V27.5727C148.501 27.6483 148.493 27.7202 148.476 27.788C148.459 27.8558 148.434 27.9223 148.399 27.9871V27.9877C148.363 28.0566 148.321 28.1228 148.274 28.1861L148.273 28.1868C148.227 28.2482 148.175 28.308 148.117 28.3656C148.059 28.4223 147.999 28.4721 147.937 28.5144C147.873 28.5584 147.805 28.5968 147.733 28.6292L147.732 28.6289C147.661 28.6608 147.592 28.6847 147.524 28.7007V28.7014C147.461 28.716 147.399 28.7235 147.336 28.7235H138.28C138.21 28.7235 138.142 28.7159 138.076 28.7007C138.011 28.6857 137.944 28.6619 137.876 28.6303H137.875C137.806 28.5978 137.74 28.5596 137.678 28.5162C137.617 28.4732 137.557 28.4228 137.499 28.3656H137.499C137.442 28.31 137.39 28.2501 137.343 28.1868L137.342 28.1861C137.295 28.1228 137.253 28.0566 137.216 27.9877C137.182 27.9236 137.157 27.8566 137.14 27.7877C137.123 27.72 137.114 27.6483 137.114 27.5727V20.8641V20.673H136.921H136.016H135.822V20.8641V27.5727C135.822 27.9305 135.878 28.2559 135.991 28.5484C136.105 28.8448 136.275 29.1053 136.502 29.3287L136.502 29.3286C136.729 29.5529 136.993 29.7214 137.292 29.8334Z" fill="#B4B4B4"/>
</g>
<defs>
<clipPath id="clip0_1544_284">
<rect width="186" height="32" fill="white"/>
</clipPath>
</defs>
</svg>
