<svg width="104" height="32" viewBox="0 0 104 32" fill="none" xmlns="http://www.w3.org/2000/svg">
<path d="M3.31535 24.7246H1V7.87991C1 7.53996 1.27554 7.26514 1.61514 7.26514H3.93003V24.1098C3.93003 24.4499 3.65449 24.7246 3.31535 24.7246Z" fill="#FAF9FA"/>
<path d="M13.6251 7.04953C14.5802 7.03297 15.6023 7.20839 16.539 7.66349C17.4765 8.11247 18.2872 8.84419 18.8498 9.6898C19.4158 10.5384 19.7542 11.4841 19.9206 12.423C20.0046 12.8938 20.0474 13.365 20.0548 13.8324L20.0582 15.0629L20.0664 19.7868L20.0683 22.149L20.0593 24.1311C20.0578 24.4696 19.7831 24.7428 19.445 24.7428H17.1279L17.1162 22.149L17.1181 19.7868L17.126 15.0629L17.1271 13.859C17.1271 13.5389 17.1031 13.2233 17.0532 12.9178C16.9558 12.3064 16.7511 11.7382 16.4494 11.2705C16.3021 11.0335 16.1271 10.8247 15.9325 10.643C15.738 10.4604 15.5217 10.3052 15.2822 10.1827C14.8077 9.93305 14.2432 9.79514 13.6251 9.78273C13.0078 9.79514 12.4433 9.93305 11.9684 10.1827C11.7292 10.3052 11.5126 10.4604 11.3185 10.643C11.1235 10.8247 10.9488 11.0335 10.8012 11.2705C10.499 11.7382 10.2944 12.3064 10.1977 12.9178C10.1478 13.2233 10.1234 13.5389 10.1231 13.859L10.1246 15.0629L10.1329 19.7868L10.1343 22.149L10.1257 24.1311C10.1239 24.4696 9.84952 24.7428 9.51137 24.7428H7.19422L7.18262 22.149L7.18451 19.7868L7.19233 15.0629L7.19611 13.8324C7.20322 13.365 7.24595 12.8938 7.32988 12.423C7.49666 11.4841 7.83481 10.5384 8.40119 9.6898C8.96343 8.84419 9.7745 8.11247 10.712 7.66349C11.6487 7.20839 12.6704 7.03297 13.6251 7.04953V7.04953Z" fill="#FAF9FA"/>
<path d="M94.9442 21.4676L95.0592 7.88495C95.0618 7.54346 94.7859 7.26495 94.4444 7.26495H92.1348V21.4379C92.1348 23.2588 93.6109 24.7353 95.4317 24.7353H103.035V22.6163C103.035 22.2772 102.76 22.002 102.42 22.002H95.4741C95.1799 22.002 94.9419 21.7617 94.9442 21.4676Z" fill="#FAF9FA"/>
<path d="M67.4712 24.9581C66.5165 24.9746 65.4944 24.7995 64.5577 24.3441C63.6198 23.8955 62.8091 23.1637 62.2465 22.3181C61.6805 21.4696 61.3425 20.5239 61.176 19.5849C61.0917 19.1142 61.0493 18.6426 61.0418 18.1756L61.0384 16.945L61.0302 12.2211L61.0283 9.85891L61.037 7.87685C61.0388 7.53843 61.3136 7.26514 61.6516 7.26514H63.9684L63.98 9.85891L63.9782 12.2211L63.9703 16.945L63.9692 18.149C63.9692 18.4691 63.9935 18.7843 64.043 19.0902C64.1405 19.7015 64.3452 20.2698 64.6473 20.7376C64.7946 20.9744 64.9692 21.1829 65.1638 21.365C65.3586 21.5476 65.575 21.7024 65.8145 21.8249C66.289 22.0745 66.8531 22.2129 67.4712 22.2248C68.0889 22.2129 68.6534 22.0745 69.1283 21.8249C69.3675 21.7024 69.5841 21.5476 69.7782 21.365C69.9732 21.1829 70.1479 20.9744 70.2955 20.7376C70.5972 20.2698 70.8018 19.7015 70.899 19.0902C70.9488 18.7843 70.9732 18.4691 70.9732 18.149L70.9721 16.945L70.9638 12.2211L70.962 9.85891L70.971 7.87685C70.9724 7.53843 71.2471 7.26514 71.5853 7.26514H73.9024L73.914 9.85891L73.9122 12.2211L73.9043 16.945L73.9006 18.1756C73.8931 18.6426 73.8504 19.1142 73.7664 19.5849C73.6 20.5239 73.2618 21.4696 72.6955 22.3181C72.1329 23.1637 71.3222 23.8955 70.3847 24.3441C69.448 24.7995 68.4259 24.9746 67.4712 24.9581V24.9581Z" fill="#FAF9FA"/>
<path d="M42.4022 24.7246H40.0869V7.87991C40.0869 7.53996 40.3624 7.26514 40.702 7.26514H43.0169V24.1098C43.0169 24.4499 42.7414 24.7246 42.4022 24.7246" fill="#FAF9FA"/>
<path d="M48.0439 8.03087C48.6608 7.64477 49.3299 7.44497 49.9603 7.37265C50.1212 7.35654 50.2831 7.33738 50.4397 7.33594C50.4495 7.33594 50.665 7.33064 50.6748 7.33064C50.6819 7.33028 50.8464 7.33144 50.8535 7.33144C50.8809 7.3318 51.5252 7.33738 51.5458 7.33774L57.1788 7.38542V10.1186L51.5458 10.1662C51.5121 10.1659 50.8629 10.1711 50.8378 10.1719C50.8284 10.1722 50.6669 10.1745 50.6582 10.1748C50.6519 10.1752 50.5421 10.1812 50.5361 10.1816C50.4544 10.1827 50.379 10.197 50.3025 10.2052C50.0586 10.2378 49.8531 10.3105 49.6878 10.4008C49.6515 10.4211 49.617 10.4418 49.5848 10.4627C49.4105 10.5807 49.3093 10.7184 49.223 10.905C49.1395 11.0895 49.0957 11.3503 49.0979 11.6599C49.0844 11.9084 49.168 12.1266 49.334 12.3646C49.5095 12.5996 49.7879 12.8387 50.1474 13.0336C50.3239 13.1356 50.5139 13.2143 50.7279 13.3013L51.5237 13.6135L53.1092 14.2548L54.6884 14.9239L55.4767 15.2721C55.7638 15.403 56.1026 15.5708 56.4074 15.7732C57.0295 16.1654 57.6364 16.7437 58.051 17.4663C58.4648 18.1901 58.656 19.011 58.6754 19.7513C58.6979 20.4451 58.5937 21.2255 58.247 21.9447C57.9123 22.6711 57.353 23.299 56.7136 23.7087C56.0396 24.1611 55.3039 24.3905 54.6141 24.5104C54.438 24.5397 54.2629 24.5682 54.0939 24.582C53.9316 24.6007 53.7749 24.6154 53.6389 24.6222C53.3529 24.6417 53.0902 24.6507 52.8206 24.6607C50.7096 24.7244 48.6608 24.7128 46.5828 24.6997L46.5903 21.9665C48.672 21.9492 50.785 21.9283 52.8289 21.8334C53.0819 21.8203 53.3394 21.8068 53.5699 21.7855C53.6962 21.7772 53.8 21.7634 53.8967 21.7491C53.9984 21.7386 54.092 21.7172 54.1861 21.6978C54.552 21.6209 54.8713 21.4909 55.1082 21.3214C55.3507 21.1558 55.5074 20.9642 55.6104 20.7333C55.7211 20.5017 55.7616 20.2101 55.7481 19.8577C55.7102 19.0927 55.4628 18.6621 54.8181 18.2287C54.6554 18.1197 54.4894 18.0365 54.2667 17.9334L53.514 17.5994L51.9904 16.952L50.4529 16.3273L49.6799 16.0225C49.3737 15.9 49.0443 15.7605 48.7331 15.5824C48.1072 15.2373 47.4865 14.7605 46.9895 14.0925C46.4891 13.4287 46.181 12.5363 46.1689 11.6602V11.6599C46.1765 11.0366 46.2739 10.351 46.5888 9.68386C46.8957 9.02077 47.4247 8.41014 48.0439 8.03087" fill="#FAF9FA"/>
<path d="M78.1756 24.121L82.5525 9.85321C82.6083 9.67023 82.8666 9.67023 82.9225 9.85321L87.2993 24.121C87.4114 24.486 87.7479 24.7353 88.1299 24.7353H90.389L85.7832 9.27109C85.382 7.9236 84.1433 7 82.7377 7C81.3317 7 80.0929 7.9236 79.6918 9.27109L75.0859 24.7353H77.3451C77.727 24.7353 78.0639 24.486 78.1756 24.121" fill="#FAF9FA"/>
<path d="M34.0526 7.8794L29.6758 22.1472C29.6203 22.3297 29.3617 22.3297 29.3059 22.1472L24.9294 7.8794C24.8173 7.5139 24.4804 7.26508 24.0984 7.26508H21.8394L26.4452 22.7289C26.8463 24.0764 28.0851 25 29.491 25C30.8966 25 32.1355 24.0764 32.5365 22.7289L37.1427 7.26508H34.8837C34.5017 7.26508 34.1647 7.5139 34.0526 7.8794" fill="#FAF9FA"/>
</svg>
