<svg width="515" height="120" viewBox="0 0 515 120" fill="none" xmlns="http://www.w3.org/2000/svg">
<mask id="mask0_1543_2" style="mask-type:alpha" maskUnits="userSpaceOnUse" x="0" y="0" width="87" height="120">
<path d="M0 0H86.1539V120H0V0Z" fill="white"/>
</mask>
<g mask="url(#mask0_1543_2)">
<path fill-rule="evenodd" clip-rule="evenodd" d="M46.6716 2.35922C46.0646 0.956719 44.653 0 43.078 0C41.5351 0 40.0991 0.934922 39.4825 2.35922L1.20561 90.8154C1.17043 90.8963 1.11484 91.0291 1.08083 91.1112C0.363561 92.8711 0 94.6915 0 96.5215C0 113.359 26.194 120 43.0768 120C59.9613 120 86.1539 113.358 86.1539 96.5215C86.1539 94.5305 85.7197 92.5896 84.9459 90.8093L46.6716 2.35922Z" fill="#0FDF5C"/>
<path fill-rule="evenodd" clip-rule="evenodd" d="M86.1599 96.5215C86.1599 94.5305 85.7256 92.5898 84.9518 90.8093L46.6791 2.35922C46.0721 0.956719 44.6606 0 43.0856 0C43.0846 0 43.0837 0 43.083 0V120C59.9683 120 86.1599 113.358 86.1599 96.5215Z" fill="#21AF56"/>
<path fill-rule="evenodd" clip-rule="evenodd" d="M13.6347 113.827C4.84238 109.414 0 103.228 0 96.4102C0 94.5713 0.363795 92.7425 1.08083 90.9742C1.12633 90.8638 1.16339 90.775 1.20139 90.6862C3.508 85.3301 8.91683 80.7861 16.8467 77.5352C24.3724 74.4508 33.4426 72.8206 43.0772 72.8206C52.7117 72.8206 61.7817 74.4511 69.3074 77.5352C77.2375 80.7857 82.6463 85.3301 84.9489 90.678C84.9898 90.7729 85.0299 90.8682 85.0688 90.9636C85.7901 92.7413 86.1539 94.5708 86.1539 96.4102C86.1539 103.228 81.3115 109.414 72.5192 113.827C64.5891 117.808 54.1329 120 43.0767 120C32.0205 120 21.5645 117.808 13.6347 113.827Z" fill="#0DD357"/>
<path fill-rule="evenodd" clip-rule="evenodd" d="M16.8468 77.5352C8.91688 80.7857 3.50802 85.3301 1.2014 90.686C1.1634 90.775 1.12634 90.8638 1.08083 90.9742C0.363562 92.7425 0 94.5715 0 96.4102C0 103.228 4.84241 109.414 13.6347 113.827C21.5646 117.808 32.0209 120 43.0769 120V72.8206C33.4425 72.8206 24.3725 74.4511 16.8468 77.5352Z" fill="#00FF5F"/>
</g>
<path d="M151.538 91.3155L131.513 64.7914V91.3155H117.003V31.2513H131.513V57.6043L151.369 31.2513H168.424L145.344 60.6845L169.272 91.3155H151.538Z" fill="white"/>
<path d="M194.72 92C190.082 92 185.895 91.0018 182.162 89.0054C178.485 87.0089 175.572 84.1569 173.422 80.4492C171.329 76.7415 170.283 72.4064 170.283 67.4438C170.283 62.5383 171.357 58.2317 173.507 54.5241C175.657 50.7594 178.598 47.8788 182.332 45.8824C186.065 43.8859 190.251 42.8877 194.89 42.8877C199.528 42.8877 203.714 43.8859 207.448 45.8824C211.181 47.8788 214.123 50.7594 216.273 54.5241C218.422 58.2317 219.497 62.5383 219.497 67.4438C219.497 72.3494 218.394 76.6845 216.188 80.4492C214.038 84.1569 211.068 87.0089 207.278 89.0054C203.545 91.0018 199.359 92 194.72 92ZM194.72 79.3369C197.492 79.3369 199.84 78.3102 201.763 76.2567C203.743 74.2032 204.733 71.2656 204.733 67.4438C204.733 63.6221 203.771 60.6845 201.848 58.631C199.981 56.5775 197.662 55.5508 194.89 55.5508C192.061 55.5508 189.714 56.5775 187.847 58.631C185.98 60.6275 185.047 63.5651 185.047 67.4438C185.047 71.2656 185.952 74.2032 187.762 76.2567C189.629 78.3102 191.948 79.3369 194.72 79.3369Z" fill="white"/>
<path d="M256.044 43.0588C261.588 43.0588 266 44.8841 269.281 48.5348C272.619 52.1283 274.288 57.0909 274.288 63.4225V91.3155H259.863V65.3904C259.863 62.1961 259.043 59.7148 257.402 57.9465C255.762 56.1783 253.555 55.2941 250.784 55.2941C248.012 55.2941 245.806 56.1783 244.165 57.9465C242.525 59.7148 241.704 62.1961 241.704 65.3904V91.3155H227.195V43.5722H241.704V49.9037C243.175 47.7932 245.155 46.139 247.644 44.9412C250.133 43.6863 252.933 43.0588 256.044 43.0588Z" fill="white"/>
<path d="M329.003 66.6738C329.003 68.0428 328.918 69.4688 328.748 70.9519H295.91C296.137 73.918 297.07 76.1996 298.71 77.7968C300.408 79.3369 302.472 80.107 304.905 80.107C308.525 80.107 311.042 78.5668 312.457 75.4866H327.9C327.108 78.6239 325.665 81.4474 323.572 83.9572C321.536 86.467 318.962 88.4349 315.851 89.861C312.739 91.287 309.26 92 305.414 92C300.775 92 296.646 91.0018 293.025 89.0054C289.405 87.0089 286.577 84.1569 284.54 80.4492C282.504 76.7415 281.485 72.4064 281.485 67.4438C281.485 62.4813 282.475 58.1462 284.455 54.4385C286.492 50.7308 289.32 47.8788 292.941 45.8824C296.561 43.8859 300.719 42.8877 305.414 42.8877C309.996 42.8877 314.069 43.8574 317.633 45.7968C321.196 47.7362 323.968 50.5027 325.948 54.0963C327.984 57.6898 329.003 61.8824 329.003 66.6738ZM314.154 62.8235C314.154 60.3137 313.305 58.3173 311.608 56.8342C309.911 55.3512 307.79 54.6096 305.244 54.6096C302.812 54.6096 300.747 55.3226 299.05 56.7487C297.409 58.1747 296.391 60.1996 295.995 62.8235H314.154Z" fill="white"/>
<path d="M351.167 28V91.3155H336.657V28H351.167Z" fill="white"/>
<path d="M358.797 67.3583C358.797 62.4528 359.702 58.1462 361.512 54.4385C363.379 50.7308 365.896 47.8788 369.064 45.8824C372.232 43.8859 375.768 42.8877 379.671 42.8877C383.008 42.8877 385.922 43.5722 388.411 44.9412C390.956 46.3102 392.908 48.107 394.265 50.3315V43.5722H408.775V91.3155H394.265V84.5562C392.851 86.7808 390.871 88.5775 388.326 89.9465C385.837 91.3155 382.923 92 379.586 92C375.739 92 372.232 91.0018 369.064 89.0054C365.896 86.9519 363.379 84.0713 361.512 80.3636C359.702 76.5989 358.797 72.2638 358.797 67.3583ZM394.265 67.4438C394.265 63.7932 393.247 60.9127 391.211 58.8021C389.231 56.6916 386.798 55.6364 383.913 55.6364C381.028 55.6364 378.568 56.6916 376.531 58.8021C374.551 60.8556 373.561 63.7077 373.561 67.3583C373.561 71.0089 374.551 73.918 376.531 76.0856C378.568 78.1961 381.028 79.2513 383.913 79.2513C386.798 79.2513 389.231 78.1961 391.211 76.0856C393.247 73.9751 394.265 71.0945 394.265 67.4438Z" fill="white"/>
<path d="M432.782 50.3315C434.14 48.107 436.091 46.3102 438.637 44.9412C441.182 43.5722 444.096 42.8877 447.377 42.8877C451.28 42.8877 454.815 43.8859 457.983 45.8824C461.151 47.8788 463.64 50.7308 465.45 54.4385C467.317 58.1462 468.25 62.4528 468.25 67.3583C468.25 72.2638 467.317 76.5989 465.45 80.3636C463.64 84.0713 461.151 86.9519 457.983 89.0054C454.815 91.0018 451.28 92 447.377 92C444.039 92 441.126 91.344 438.637 90.0321C436.148 88.6631 434.196 86.8663 432.782 84.6417V91.3155H418.272V28H432.782V50.3315ZM453.486 67.3583C453.486 63.7077 452.468 60.8556 450.431 58.8021C448.451 56.6916 445.991 55.6364 443.049 55.6364C440.164 55.6364 437.703 56.6916 435.667 58.8021C433.687 60.9127 432.697 63.7932 432.697 67.4438C432.697 71.0945 433.687 73.9751 435.667 76.0856C437.703 78.1961 440.164 79.2513 443.049 79.2513C445.934 79.2513 448.395 78.1961 450.431 76.0856C452.468 73.918 453.486 71.0089 453.486 67.3583Z" fill="white"/>
<path d="M495.124 92C490.994 92 487.317 91.287 484.093 89.861C480.869 88.4349 478.323 86.4956 476.456 84.0428C474.59 81.533 473.543 78.738 473.317 75.6578H487.657C487.827 77.3119 488.59 78.6524 489.948 79.6791C491.306 80.7059 492.974 81.2193 494.954 81.2193C496.764 81.2193 498.15 80.877 499.112 80.1925C500.13 79.451 500.639 78.5098 500.639 77.369C500.639 76 499.932 75.0018 498.518 74.3743C497.104 73.6898 494.813 72.9483 491.645 72.1497C488.251 71.3512 485.422 70.5241 483.16 69.6685C480.897 68.7558 478.945 67.3583 477.305 65.4759C475.664 63.5365 474.844 60.9412 474.844 57.6898C474.844 54.9519 475.58 52.4706 477.05 50.246C478.578 47.9643 480.784 46.1676 483.669 44.8556C486.61 43.5437 490.089 42.8877 494.106 42.8877C500.045 42.8877 504.712 44.3708 508.106 47.3369C511.557 50.303 513.537 54.2389 514.046 59.1444H500.639C500.413 57.4902 499.678 56.1783 498.433 55.2086C497.245 54.2389 495.661 53.754 493.681 53.754C491.984 53.754 490.683 54.0963 489.778 54.7807C488.873 55.4082 488.421 56.2923 488.421 57.4332C488.421 58.8021 489.128 59.8289 490.542 60.5134C492.013 61.1979 494.275 61.8824 497.33 62.5668C500.837 63.4795 503.694 64.3922 505.9 65.3048C508.106 66.1604 510.03 67.5865 511.67 69.5829C513.367 71.5223 514.244 74.1462 514.3 77.4545C514.3 80.2496 513.509 82.7594 511.925 84.984C510.397 87.1515 508.163 88.8628 505.221 90.1177C502.336 91.3726 498.971 92 495.124 92Z" fill="white"/>
</svg>
