<svg width="115" height="32" viewBox="0 0 115 32" fill="none" xmlns="http://www.w3.org/2000/svg">
<path fill-rule="evenodd" clip-rule="evenodd" d="M32.5073 16C32.5073 24.8366 25.3439 32 16.5073 32C7.67077 32 0.507324 24.8366 0.507324 16C0.507324 7.16344 7.67077 0 16.5073 0C25.3439 0 32.5073 7.16344 32.5073 16ZM27.3124 12.2752C27.5636 12.5151 27.7815 12.7877 27.9594 13.0919L27.9435 13.0732L27.9351 13.0635C28.5399 13.9984 28.5343 15.2706 27.9315 16.6528C27.2826 18.1406 25.9271 19.7632 23.9143 21.191C23.8564 22.9611 23.1431 24.4056 21.9932 25.6285C20.9815 26.7081 21.0029 26.1188 21.0229 25.5711C21.0278 25.4348 21.0327 25.301 21.0215 25.1962C20.9446 24.4571 20.7352 23.774 20.3097 23.1877C19.5177 23.5259 18.6703 23.8321 17.7687 24.0978C16.6076 25.7605 14.8904 26.9006 12.854 27.7341C10.709 28.6131 11.0744 27.8144 11.3892 27.1261C11.4176 27.0642 11.4455 27.0031 11.4712 26.9442C11.5435 26.7782 11.6133 26.6115 11.6807 26.4442C11.8401 26.0892 12.0117 25.6658 12.198 25.1625C12.2426 25.042 12.2828 24.9381 12.3216 24.843C9.63112 24.9182 8.09935 24.6591 6.25596 23.2467C3.94063 21.4726 4.20143 17.8759 6.36982 14.8788L6.36904 14.8817C7.43115 13.436 8.66954 12.4412 10.185 11.4942C11.0983 10.9237 10.7848 10.1298 10.3992 9.153C9.84492 7.74892 9.14143 5.9669 11.7173 3.92728C11.6216 4.9427 12.3191 5.78716 13.0029 6.61507C13.7558 7.52676 14.4922 8.41839 14.1348 9.49614C14.9559 8.88408 15.9612 9.3508 16.9914 9.82909C17.7431 10.1781 18.508 10.5332 19.2244 10.48C17.8673 12.6603 15.7301 13.518 12.4437 12.4383C8.78301 14.5724 9.57986 17.3303 12.0452 17.3285C12.3881 17.3283 14.242 16.1433 15.9034 14.8573C15.9605 14.5127 16.0733 14.232 16.5806 13.8633C16.7128 13.7672 16.8288 13.6812 16.9319 13.6046C17.3694 13.2797 17.5771 13.1256 17.8155 13.1069C17.8731 13.1024 17.9262 13.1019 17.9751 13.1051C18.8552 12.3834 19.812 11.8505 20.7785 11.4985C20.7544 11.3641 21.0305 11.1553 21.1794 11.1629C21.3955 11.174 21.527 11.1954 21.5722 11.2499C22.0446 11.1259 22.5148 11.0446 22.9748 11.005C22.9791 10.9899 22.9881 10.9748 23.0019 10.9593C23.1856 10.7541 23.4659 10.8143 23.6422 10.9207C23.8887 10.6845 24.2814 10.873 24.3923 11.0185C24.6876 11.0513 24.9742 11.1033 25.2493 11.1742C25.3336 11.1115 25.511 11.0848 25.5907 11.1263C25.7116 11.1894 25.7863 11.2804 25.8092 11.3506C26.1116 11.4644 26.3962 11.6039 26.6587 11.7686C26.6647 11.7655 26.6709 11.7626 26.6775 11.76C26.9727 11.6408 27.2435 12.0366 27.3124 12.2752ZM9.7523 23.9579C9.52656 23.9903 9.30029 24.0138 9.07611 24.0264C9.94371 24.2592 11.0584 24.407 12.5472 24.3464C12.5821 24.2764 12.6195 24.2029 12.6611 24.1222C11.3409 24.2103 10.4171 24.1202 9.7523 23.9579ZM13.1765 23.3979C12.6799 23.4336 12.223 23.4482 11.8026 23.4454C11.5906 23.5193 11.3693 23.5901 11.1413 23.6554C11.6484 23.6826 12.2505 23.6736 12.9695 23.6122C13.0389 23.5264 13.1084 23.4574 13.1765 23.3979ZM26.7738 12.5989C26.53 12.6146 26.2713 12.6797 26.0042 12.7863C26.519 13.188 26.8497 13.6632 27.0204 14.1858C27.3255 15.1201 27.1152 16.2185 26.4761 17.3424C25.175 19.6305 22.0794 22.0482 18.2511 23.3456C18.2299 23.3845 18.2084 23.4232 18.1867 23.4615C23.1931 21.8525 26.3913 18.9711 27.487 16.4588C28.1956 14.8342 28.0073 13.3733 26.7738 12.5989ZM25.5083 13.0259C25.3153 13.1345 25.1199 13.2614 24.9244 13.404C25.2515 13.653 25.4882 13.951 25.6421 14.2845C25.9975 15.0553 25.9087 16.0314 25.4122 17.066C24.4676 19.0344 22.0294 21.2424 18.6262 22.5634C18.6037 22.6174 18.5806 22.6709 18.5572 22.7239C22.0458 21.4404 24.8498 19.2211 26.0546 17.1025C26.6155 16.1159 26.8272 15.1566 26.5594 14.3364C26.3957 13.8351 26.0512 13.3909 25.5083 13.0259ZM24.5266 13.7157C24.3463 13.8666 24.1671 14.0296 23.9909 14.2026C23.9358 14.2567 23.8812 14.3112 23.8274 14.3659C24.0692 14.6336 24.2364 14.9285 24.3347 15.2421C24.541 15.9004 24.4442 16.6502 24.0634 17.4258C23.3317 18.9154 21.5229 20.521 18.9304 21.7165C18.9066 21.7948 18.8819 21.8724 18.8563 21.9491C21.9128 20.6715 24.1061 18.6668 24.975 16.856C25.3983 15.9741 25.5047 15.1448 25.2017 14.4878C25.0635 14.1881 24.8395 13.9277 24.5266 13.7157ZM23.4911 14.7179C23.1729 15.0606 22.8707 15.4121 22.5766 15.7609C22.6514 15.9065 22.7081 16.0556 22.7471 16.2071C22.9397 16.9531 22.7137 17.7762 22.0694 18.5873C21.4682 19.3441 20.4918 20.0976 19.1671 20.7691C19.1444 20.8832 19.12 20.9958 19.094 21.107C21.37 19.9947 22.9648 18.5623 23.6281 17.2118C23.9467 16.563 24.0446 15.938 23.872 15.3873C23.7967 15.1472 23.6702 14.923 23.4911 14.7179ZM22.2297 16.1744C21.9162 16.5485 21.6084 16.9141 21.2961 17.2565C21.3052 17.3859 21.3014 17.5134 21.2843 17.6393C21.1784 18.4199 20.5616 19.1667 19.3102 19.8451C19.2976 19.9561 19.2836 20.0658 19.2683 20.174C20.3552 19.5862 21.1697 18.9401 21.6897 18.2854C22.2217 17.6157 22.4365 16.9444 22.2776 16.3284C22.2642 16.2765 22.2482 16.2251 22.2297 16.1744ZM20.7445 17.8276C20.3172 18.2409 19.8712 18.5982 19.3824 18.8647C19.3776 18.9977 19.3709 19.129 19.3624 19.2587C19.5487 19.147 19.7172 19.0335 19.8683 18.9184C20.3282 18.5681 20.619 18.2068 20.7445 17.8276ZM19.6132 16.7295C19.7358 16.8279 19.8144 16.979 19.8144 17.1482C19.8144 17.4443 19.5741 17.6847 19.2782 17.6847C19.084 17.6847 18.9138 17.5812 18.8197 17.4263C18.904 17.383 18.9754 17.318 19.0264 17.2387C19.0934 17.3228 19.1966 17.3767 19.3122 17.3767C19.5139 17.3767 19.6775 17.2129 19.6775 17.0112C19.6775 16.9196 19.6437 16.8357 19.588 16.7715C19.597 16.758 19.6054 16.7439 19.6132 16.7295ZM21.3788 14.5417C21.5966 14.7953 21.3279 15.155 21.0253 15.2379C20.8745 15.2792 20.5769 14.9063 20.8618 14.7707C20.9785 14.7152 21.0613 14.643 21.1273 14.5854C21.2303 14.4955 21.2925 14.4412 21.3788 14.5417ZM22.6983 13.7919C22.644 14.0744 22.4939 14.232 22.3924 14.1923C22.2877 14.1514 22.2337 13.9073 22.3271 13.8306C22.5109 13.6797 22.7176 13.6913 22.6983 13.7919ZM20.7166 13.5432C20.9077 13.4449 20.9091 13.5236 20.9107 13.6131V13.6131C20.9113 13.6434 20.9119 13.675 20.9198 13.7013C20.9522 13.809 20.7929 13.8741 20.675 13.8479C20.4428 13.7963 20.6256 13.59 20.7166 13.5432ZM23.6302 13.8402C23.4202 13.8857 23.4392 13.8093 23.4608 13.7223C23.4681 13.6929 23.4757 13.6623 23.4748 13.6348C23.4714 13.5224 23.6421 13.5008 23.7493 13.5566C23.9602 13.6666 23.7303 13.8185 23.6302 13.8402ZM24.6325 13.22C24.3515 13.2808 24.3991 13.0896 24.4771 13.0147C24.5582 12.9368 24.6445 12.8806 24.7515 12.9365C24.9624 13.0464 24.7326 13.1984 24.6325 13.22ZM22.4044 12.5847C22.5299 12.6445 22.6506 12.7684 22.5986 12.8818C22.5334 13.0236 22.2958 13.0617 22.1143 13.042C21.9686 13.0262 21.6721 12.7332 21.9601 12.7002C22.1036 12.6837 22.1603 12.634 22.203 12.5965C22.252 12.5535 22.2826 12.5267 22.4044 12.5847ZM21.3788 12.2147C21.5966 12.4682 21.3279 12.8279 21.0253 12.9107C20.8745 12.952 20.5769 12.5792 20.8618 12.4436C20.9785 12.3881 21.0613 12.3159 21.1273 12.2583C21.2303 12.1684 21.2925 12.1141 21.3788 12.2147ZM23.4653 12.4471C23.5933 12.1895 23.7669 12.1235 23.9746 12.2116C24.0781 12.2554 24.0103 12.5908 23.7754 12.6547C23.5459 12.7172 23.3957 12.587 23.4653 12.4471ZM25.7294 12.0135C25.4483 12.0743 25.164 11.9202 25.1607 11.8112C25.1573 11.6988 25.4411 11.6312 25.5481 11.6871C25.759 11.797 25.8294 11.9918 25.7294 12.0135ZM22.7155 11.3977C22.8343 11.1444 23.201 11.2263 23.3681 11.429C23.4513 11.5301 23.2688 11.8854 23.0676 11.7142C22.9852 11.6441 22.9017 11.6056 22.8351 11.575C22.7311 11.5271 22.6684 11.4982 22.7155 11.3977ZM78.4915 17.9385C77.6059 17.9385 76.8493 17.7665 76.2216 17.4226C75.6026 17.0787 75.1254 16.5757 74.7901 15.9137C74.4634 15.2517 74.3 14.4564 74.3 13.5278C74.3 12.6336 74.4634 11.8598 74.7901 11.2063C75.1254 10.5529 75.6069 10.0456 76.2345 9.68452C76.8708 9.32341 77.6231 9.14285 78.4915 9.14285C79.3771 9.14285 80.1294 9.31481 80.7484 9.65872C81.3761 10.0026 81.8533 10.497 82.18 11.1419C82.5153 11.7781 82.683 12.5347 82.683 13.4117C82.683 14.3403 82.5153 15.1442 82.18 15.8234C81.8533 16.4941 81.3761 17.0142 80.7484 17.3839C80.1294 17.7537 79.3771 17.9385 78.4915 17.9385ZM78.5044 17.3195C79.3212 17.3195 79.9273 17.0056 80.3228 16.378C80.7183 15.7417 80.9161 14.7659 80.9161 13.4504C80.9161 12.6594 80.8129 11.9888 80.6066 11.4385C80.4088 10.8882 80.1251 10.4712 79.7554 10.1875C79.3857 9.89517 78.9515 9.749 78.4528 9.749C77.722 9.749 77.1416 10.0714 76.7117 10.7163C76.2818 11.3525 76.0669 12.2639 76.0669 13.4504C76.0669 14.6627 76.2689 15.6128 76.673 16.3006C77.0771 16.9798 77.6876 17.3195 78.5044 17.3195ZM37.2822 17.9514H36.7792L36.6631 15.1657H37.2177C37.3639 15.7331 37.5272 16.1673 37.7078 16.4683C37.8883 16.7692 38.1119 16.9755 38.3784 17.0873C38.645 17.1991 38.9674 17.255 39.3457 17.255C39.638 17.255 39.9045 17.2163 40.1453 17.1389C40.386 17.0615 40.5795 16.9326 40.7257 16.752C40.8718 16.5714 40.9449 16.3307 40.9449 16.0298C40.9449 15.6601 40.846 15.3548 40.6483 15.1141C40.4591 14.8734 40.2141 14.6627 39.9131 14.4821C39.6122 14.3016 39.2898 14.1296 38.9459 13.9663C38.5676 13.7685 38.2108 13.5579 37.8754 13.3343C37.5401 13.1108 37.2693 12.8399 37.0629 12.5218C36.8652 12.1951 36.7663 11.7824 36.7663 11.2837C36.7663 10.8194 36.8781 10.4325 37.1016 10.123C37.3338 9.80489 37.6519 9.56415 38.056 9.40079C38.4687 9.23743 38.9416 9.15575 39.4747 9.15575C39.8272 9.15575 40.1066 9.18584 40.313 9.24602C40.5279 9.29761 40.6999 9.3535 40.8288 9.41368C40.9664 9.46527 41.0868 9.49106 41.1899 9.49106C41.2759 9.49106 41.3533 9.46957 41.4221 9.42658C41.4995 9.38359 41.5553 9.29331 41.5897 9.15575H42.0153L42.1056 11.8254H41.5768C41.3877 11.0688 41.1384 10.5314 40.8288 10.2133C40.5193 9.88657 40.0937 9.72321 39.552 9.72321C39.1049 9.72321 38.761 9.81349 38.5203 9.99404C38.2881 10.166 38.1721 10.4368 38.1721 10.8065C38.1721 11.1247 38.2623 11.3912 38.4429 11.6061C38.6235 11.8125 38.8599 11.9974 39.1522 12.1607C39.4532 12.3241 39.7713 12.4917 40.1066 12.6637C40.4075 12.8185 40.6999 12.9775 40.9836 13.1409C41.2759 13.3042 41.5382 13.4977 41.7703 13.7212C42.0024 13.9362 42.1873 14.1898 42.3249 14.4821C42.471 14.7745 42.5441 15.1184 42.5441 15.5139C42.5441 16.0384 42.4151 16.4812 42.1572 16.8423C41.8993 17.1948 41.5424 17.4656 41.0868 17.6548C40.6397 17.8353 40.1195 17.9256 39.5262 17.9256C39.1049 17.9256 38.7696 17.8912 38.5203 17.8224C38.2795 17.7623 38.0904 17.7021 37.9528 17.6419C37.8239 17.5731 37.7121 17.5387 37.6175 17.5387C37.5229 17.5387 37.4412 17.5774 37.3725 17.6548C37.3123 17.7236 37.2822 17.8224 37.2822 17.9514ZM47.4518 17.7708H43.3893V17.2808C43.7676 17.2808 44.0427 17.2507 44.2147 17.1905C44.3866 17.1217 44.4941 16.997 44.5371 16.8165C44.5887 16.6273 44.6145 16.3479 44.6145 15.9782V11.1161C44.6145 10.7722 44.5887 10.5056 44.5371 10.3165C44.4941 10.1273 44.3866 9.99404 44.2147 9.91666C44.0427 9.83068 43.7676 9.78769 43.3893 9.78769V9.29761H47.4776V9.78769C47.0907 9.78769 46.8069 9.83068 46.6264 9.91666C46.4544 9.99404 46.3469 10.1316 46.3039 10.3294C46.2696 10.5185 46.2524 10.7808 46.2524 11.1161V15.9782C46.2524 16.3393 46.2739 16.6144 46.3168 16.8036C46.3684 16.9927 46.4759 17.1217 46.6393 17.1905C46.8112 17.2507 47.0821 17.2808 47.4518 17.2808V17.7708ZM48.2735 17.7708H51.4591V17.2808C51.1323 17.2808 50.8873 17.255 50.7239 17.2034C50.5606 17.1432 50.4488 17.0099 50.3886 16.8036C50.337 16.5972 50.3112 16.2748 50.3112 15.8363V10.9097H50.3757L53.2904 17.7708H54.0513L56.9144 10.9097H56.9918V16.1974C56.9918 16.4898 56.966 16.7133 56.9144 16.8681C56.8628 17.0228 56.7554 17.1303 56.592 17.1905C56.4287 17.2507 56.1793 17.2808 55.844 17.2808V17.7708H59.7388V17.2808C59.4465 17.2808 59.2187 17.2507 59.0553 17.1905C58.892 17.1303 58.7759 17.0228 58.7071 16.8681C58.6469 16.7133 58.6168 16.4898 58.6168 16.1974V10.9742C58.6168 10.6561 58.6469 10.411 58.7071 10.2391C58.7673 10.0671 58.8791 9.95105 59.0424 9.89087C59.2058 9.82208 59.4336 9.78769 59.7259 9.78769V9.29761H56.6952L54.1674 15.4623H54.09L51.5493 9.29761H48.2993V9.78769C48.6261 9.78769 48.8711 9.82208 49.0345 9.89087C49.2064 9.95105 49.3225 10.0671 49.3827 10.2391C49.4429 10.411 49.4729 10.6604 49.4729 10.9871V15.8363C49.4729 16.2748 49.4429 16.5972 49.3827 16.8036C49.3225 17.0099 49.2064 17.1432 49.0345 17.2034C48.8711 17.255 48.6175 17.2808 48.2735 17.2808V17.7708ZM65.0908 17.7708H60.7446V17.2808C61.0971 17.2808 61.3594 17.2507 61.5313 17.1905C61.7033 17.1303 61.8193 17.0142 61.8795 16.8423C61.9397 16.6703 61.9698 16.4167 61.9698 16.0814V10.9355C61.9698 10.6002 61.9354 10.3509 61.8666 10.1875C61.8064 10.0241 61.6904 9.92096 61.5184 9.87797C61.3465 9.82638 61.0885 9.80059 60.7446 9.80059V9.29761H64.7555C65.5379 9.29761 66.157 9.37929 66.6127 9.54265C67.0684 9.69741 67.3951 9.92096 67.5928 10.2133C67.7906 10.5056 67.8895 10.8538 67.8895 11.2579C67.8895 11.834 67.7132 12.2682 67.3607 12.5605C67.0168 12.8528 66.5697 13.0721 66.0194 13.2183V13.2956C66.3891 13.3472 66.7459 13.4504 67.0899 13.6052C67.4424 13.7599 67.7304 13.9878 67.9539 14.2887C68.1775 14.581 68.2893 14.9808 68.2893 15.4881C68.2893 16.2361 68.0098 16.8036 67.451 17.1905C66.9007 17.5774 66.114 17.7708 65.0908 17.7708ZM64.4202 17.1905C64.6867 17.1905 64.9404 17.1733 65.1811 17.1389C65.4305 17.1045 65.6454 17.0357 65.826 16.9326C66.0151 16.8208 66.1613 16.6531 66.2645 16.4296C66.3762 16.1974 66.4321 15.8836 66.4321 15.4881C66.4321 14.9808 66.3332 14.5982 66.1355 14.3403C65.9463 14.0737 65.7013 13.8975 65.4004 13.8115C65.0994 13.7169 64.7727 13.6696 64.4202 13.6696H63.6206V17.1518L64.0075 17.1776C64.1365 17.1862 64.274 17.1905 64.4202 17.1905ZM63.6206 9.96825V13.0377H64.3428C65.0307 13.0377 65.4949 12.9173 65.7357 12.6766C65.985 12.4272 66.1097 12.0188 66.1097 11.4514C66.1097 10.9441 65.9807 10.5658 65.7228 10.3165C65.4649 10.0585 64.9877 9.92956 64.2912 9.92956C64.1881 9.92956 64.0806 9.93386 63.9688 9.94245C63.857 9.94245 63.741 9.95105 63.6206 9.96825ZM69.1578 17.7708H73.2203V17.2808C72.8506 17.2808 72.5798 17.2507 72.4078 17.1905C72.2444 17.1217 72.137 16.9927 72.0854 16.8036C72.0424 16.6144 72.0209 16.3393 72.0209 15.9782V11.1161C72.0209 10.7808 72.0381 10.5185 72.0725 10.3294C72.1155 10.1316 72.2229 9.99404 72.3949 9.91666C72.5755 9.83068 72.8592 9.78769 73.2461 9.78769V9.29761H69.1578V9.78769C69.5361 9.78769 69.8112 9.83068 69.9832 9.91666C70.1551 9.99404 70.2626 10.1273 70.3056 10.3165C70.3572 10.5056 70.383 10.7722 70.383 11.1161V15.9782C70.383 16.3479 70.3572 16.6273 70.3056 16.8165C70.2626 16.997 70.1551 17.1217 69.9832 17.1905C69.8112 17.2507 69.5361 17.2808 69.1578 17.2808V17.7708ZM91.8406 17.7708H95.9032V17.2808C95.5334 17.2808 95.2626 17.2507 95.0907 17.1905C94.9273 17.1217 94.8198 16.9927 94.7682 16.8036C94.7252 16.6144 94.7037 16.3393 94.7037 15.9782V11.1161C94.7037 10.7808 94.7209 10.5185 94.7553 10.3294C94.7983 10.1316 94.9058 9.99404 95.0778 9.91666C95.2583 9.83068 95.542 9.78769 95.9289 9.78769V9.29761H91.8406V9.78769C92.2189 9.78769 92.4941 9.83068 92.666 9.91666C92.838 9.99404 92.9455 10.1273 92.9885 10.3165C93.0401 10.5056 93.0658 10.7722 93.0658 11.1161V15.9782C93.0658 16.3479 93.0401 16.6273 92.9885 16.8165C92.9455 16.997 92.838 17.1217 92.666 17.1905C92.4941 17.2507 92.2189 17.2808 91.8406 17.2808V17.7708ZM101.045 17.9256C100.125 17.9256 99.3645 17.7408 98.7626 17.371C98.1608 16.9927 97.7137 16.4769 97.4214 15.8234C97.129 15.17 96.9829 14.4263 96.9829 13.5923C96.9829 12.6293 97.1634 11.8168 97.5245 11.1548C97.8942 10.4927 98.4015 9.99404 99.0464 9.65872C99.6998 9.31481 100.452 9.14285 101.303 9.14285C101.759 9.14285 102.12 9.18154 102.387 9.25892C102.653 9.3277 102.864 9.40079 103.019 9.47817C103.173 9.54695 103.311 9.58134 103.431 9.58134C103.56 9.58134 103.651 9.53405 103.702 9.43948C103.754 9.3449 103.805 9.24602 103.857 9.14285H104.347V12.2381H103.792C103.629 11.4127 103.337 10.7979 102.915 10.3938C102.494 9.98974 101.952 9.78769 101.29 9.78769C100.456 9.78769 99.8245 10.0972 99.3946 10.7163C98.9647 11.3267 98.7497 12.1994 98.7497 13.3343C98.7497 14.1597 98.8572 14.8304 99.0722 15.3462C99.2957 15.8621 99.6181 16.2404 100.039 16.4812C100.469 16.7133 100.985 16.8294 101.587 16.8294C102.206 16.8294 102.722 16.7219 103.135 16.507C103.556 16.2834 103.951 15.9653 104.321 15.5526L104.695 15.8879C104.429 16.2662 104.136 16.6101 103.818 16.9197C103.5 17.2292 103.117 17.4742 102.67 17.6548C102.232 17.8353 101.69 17.9256 101.045 17.9256ZM105.156 17.7708H108.019V17.2808C107.701 17.2808 107.473 17.255 107.335 17.2034C107.206 17.1432 107.142 17.0142 107.142 16.8165C107.142 16.7047 107.159 16.5886 107.193 16.4683C107.236 16.3393 107.275 16.2189 107.31 16.1072L107.762 15.0109H110.853L111.217 15.9266C111.295 16.1072 111.355 16.2834 111.398 16.4554C111.441 16.6187 111.462 16.7477 111.462 16.8423C111.462 16.9798 111.419 17.0787 111.333 17.1389C111.247 17.1991 111.14 17.2378 111.011 17.255C110.891 17.2722 110.774 17.2808 110.663 17.2808V17.7708H114.545V17.2808C114.235 17.2808 113.986 17.1862 113.797 16.997C113.616 16.7993 113.436 16.4941 113.255 16.0814L110.366 9.23313H109.321L106.549 15.875C106.385 16.2619 106.239 16.5585 106.11 16.7649C105.99 16.9626 105.856 17.1002 105.71 17.1776C105.573 17.2464 105.388 17.2808 105.156 17.2808V17.7708ZM110.631 14.3919L109.386 11.0387H109.334L107.978 14.3919H110.631ZM88.1049 15.2222C87.9744 15.2064 87.8435 15.1989 87.7139 15.1989C87.2829 15.1989 86.8545 15.2783 86.4541 15.4287V9.96832H85.7835C85.3106 9.96832 84.9538 10.0199 84.7131 10.1231C84.4809 10.2263 84.3133 10.4111 84.2101 10.6776C84.1069 10.9356 84.008 11.2967 83.9135 11.761H83.3589L83.5008 9.29768H91.0841L91.2002 11.761H90.6456C90.551 11.2967 90.4479 10.9356 90.3361 10.6776C90.2329 10.4111 90.0653 10.2263 89.8331 10.1231C89.601 10.0199 89.2442 9.96832 88.7627 9.96832H88.1049V15.2222ZM84.0896 20.0747L84.1655 19.7275H85.1203C85.5 18.4473 85.6627 18.0675 86.2595 17.5359C86.6392 17.1887 87.1708 16.9826 87.7133 16.9826C88.3751 16.9826 88.8308 17.3081 88.8308 17.7204C88.8308 17.9916 88.6463 18.2086 88.3751 18.2086C88.1039 18.2086 87.9303 18.0133 87.9303 17.7421C87.9303 17.6227 87.952 17.5685 88.0279 17.4925C88.0605 17.4491 88.0713 17.4274 88.0713 17.3949C88.0713 17.2864 87.9303 17.2213 87.7024 17.2213C87.3227 17.2213 87.0515 17.3081 86.7694 17.677C86.4005 18.1543 86.2703 18.5232 85.9557 19.7275H87.5831C87.876 19.7275 88.169 19.7058 88.4619 19.6624C88.5109 19.6575 88.5466 19.6526 88.575 19.6487C88.6096 19.644 88.6334 19.6407 88.6572 19.6407L88.7114 19.6733V19.7058C88.7114 19.7601 88.6897 19.8577 88.6572 19.9771L88.6463 20.0205C88.619 20.1367 88.583 20.2572 88.5466 20.3793C88.5252 20.451 88.5037 20.5232 88.4836 20.5955C88.457 20.7086 88.4549 20.7156 88.4447 20.7491C88.4383 20.7703 88.4286 20.802 88.4077 20.8776C87.9737 22.4616 87.6265 23.7744 87.6265 23.8612C87.6265 23.9263 87.6807 23.9697 87.7458 23.9697C87.8869 23.9697 88.1581 23.7418 88.5812 23.2102L88.7548 23.3079C88.1364 24.1433 87.7458 24.4579 87.3119 24.4579C86.9647 24.4579 86.8128 24.2301 86.8128 23.9154C86.8128 23.655 86.9755 23.0149 87.6156 20.704C87.7458 20.2483 87.7458 20.2266 87.7458 20.1832C87.7458 20.1073 87.6916 20.0747 87.5722 20.0747H85.8906L85.1094 23.5248C84.7948 24.8919 84.3716 25.7924 83.84 26.2589C83.5579 26.4976 83.265 26.6169 82.9287 26.6169C82.4404 26.6169 82.0824 26.3566 82.0824 25.966C82.0824 25.7164 82.256 25.4886 82.4838 25.4886C82.7117 25.4886 82.907 25.6947 82.907 25.9226C82.907 25.9768 82.8961 26.0202 82.8527 26.0962C82.8202 26.1504 82.8093 26.183 82.8093 26.2155C82.8093 26.324 82.8636 26.3566 83.0263 26.3566C83.2975 26.3566 83.5037 26.2047 83.6881 25.8466C83.8726 25.4995 84.0353 25.0112 84.3174 23.4163C84.6971 21.279 84.9792 20.2374 85.0443 20.0747H84.0896ZM94.0274 23.102L94.0277 23.1017L94.1796 23.2428C93.4418 24.2518 93.1706 24.4687 92.6607 24.4687C92.3894 24.4687 92.1507 24.2952 92.1507 23.8829C92.1507 23.7744 92.1724 23.6333 92.3243 23.0692L92.8017 21.3115C92.8885 20.9752 92.9536 20.5846 92.9536 20.4544C92.9536 20.2591 92.8559 20.1398 92.6932 20.1398C92.2592 20.1398 91.771 20.6714 91.0875 21.6804C90.5993 22.4073 90.5125 22.6569 90.0025 24.3711H89.1888L90.2304 20.5738C90.2412 20.5195 90.2521 20.4544 90.2521 20.3893C90.2521 20.1723 90.1002 20.1073 89.5469 20.0964V19.9228C89.9714 19.839 90.2617 19.7855 90.5132 19.7392L90.5134 19.7391C90.7825 19.6895 91.0073 19.6482 91.3045 19.5865L91.3479 19.6082L90.6209 21.9734C91.7059 20.2374 92.4328 19.5865 93.1272 19.5865C93.5937 19.5865 93.8324 19.8577 93.8324 20.2483C93.8324 20.4436 93.789 20.6714 93.7239 20.8993L93.1163 23.1017C93.0078 23.4923 92.9644 23.6767 92.9644 23.7635C92.9644 23.8612 93.0078 23.9588 93.138 23.9588C93.2899 23.9588 93.4852 23.7852 93.7999 23.3838C93.8757 23.2971 93.9516 23.1996 94.0274 23.102ZM99.485 23.1668L99.1921 23.4814C98.8666 23.8395 98.7255 23.9263 98.6279 23.9263C98.5411 23.9263 98.476 23.8612 98.476 23.7852C98.476 23.5682 98.9317 21.7021 99.4416 19.8469C99.4515 19.814 99.4593 19.789 99.4661 19.7675L99.4662 19.7673C99.4818 19.7181 99.4916 19.6869 99.5067 19.619L99.4307 19.5865L98.7689 19.6624L98.7364 19.695L98.617 20.2157C98.5302 19.8143 98.2156 19.5865 97.7491 19.5865C96.3061 19.5865 94.6461 21.5502 94.6461 23.2319C94.6461 24.0565 95.1235 24.4904 95.7311 24.4904C96.4905 24.4904 97.1198 24.0131 97.9335 22.7871C97.7057 23.6767 97.684 23.7635 97.684 24.0348C97.684 24.3494 97.8142 24.4796 98.118 24.4796C98.5519 24.4796 98.8123 24.2735 99.626 23.2862L99.485 23.1668ZM98.4217 20.4544C98.4217 21.2247 98.0963 22.1578 97.5863 22.8956C97.2608 23.3621 96.7509 23.9588 96.2084 23.9588C95.8179 23.9588 95.5575 23.7527 95.5575 23.156C95.5575 22.4724 95.9372 21.5068 96.3929 20.8233C96.8486 20.1615 97.3259 19.8252 97.8142 19.8252C98.1939 19.8252 98.4217 20.0747 98.4217 20.4544ZM104.888 23.102L104.888 23.1017L105.04 23.2428C104.302 24.2518 104.031 24.4687 103.521 24.4687C103.25 24.4687 103.011 24.2952 103.011 23.8829C103.011 23.7744 103.033 23.6333 103.184 23.0692L103.662 21.3115C103.749 20.9752 103.814 20.5846 103.814 20.4544C103.814 20.2591 103.716 20.1398 103.553 20.1398C103.119 20.1398 102.631 20.6714 101.948 21.6804C101.459 22.4073 101.373 22.6569 100.863 24.3711H100.049L101.09 20.5738C101.101 20.5195 101.112 20.4544 101.112 20.3893C101.112 20.1723 100.96 20.1073 100.407 20.0964V19.9228C100.831 19.8391 101.121 19.7856 101.372 19.7393L101.373 19.7393L101.373 19.7392L101.373 19.7392L101.373 19.7391L101.373 19.7391C101.643 19.6896 101.867 19.6482 102.165 19.5865L102.208 19.6082L101.481 21.9734C102.566 20.2374 103.293 19.5865 103.987 19.5865C104.454 19.5865 104.692 19.8577 104.692 20.2483C104.692 20.4436 104.649 20.6714 104.584 20.8993L103.976 23.1017C103.868 23.4923 103.825 23.6767 103.825 23.7635C103.825 23.8612 103.868 23.9588 103.998 23.9588C104.15 23.9588 104.345 23.7852 104.66 23.3838C104.736 23.2971 104.812 23.1996 104.888 23.102ZM109.119 23.2102C108.533 23.8286 108.121 24.0999 107.546 24.0999C106.927 24.0999 106.58 23.6442 106.58 22.863C106.58 21.8974 106.96 20.9752 107.568 20.3351C107.882 20.0096 108.316 19.8143 108.75 19.8143C109 19.8143 109.152 19.9011 109.152 20.0313C109.152 20.1358 109.11 20.2179 109.069 20.299C109.028 20.3779 108.989 20.4558 108.989 20.5521C108.989 20.7691 109.108 20.9861 109.412 20.9861C109.694 20.9861 109.933 20.7582 109.933 20.4653C109.933 19.9554 109.455 19.5865 108.794 19.5865C108.132 19.5865 107.513 19.8252 106.982 20.2483C106.211 20.8667 105.647 21.8106 105.647 22.8196C105.647 23.9263 106.233 24.4904 107.242 24.4904C108.056 24.4904 108.631 24.1541 109.293 23.3187L109.119 23.2102ZM112.432 24.0022C112.909 24.0022 113.246 23.8286 114.027 23.1885L114.157 23.3187C113.538 24.0782 112.844 24.4904 111.944 24.4904C111.065 24.4904 110.479 23.9046 110.479 23.0041C110.479 21.3224 112.095 19.5865 113.723 19.5865C114.298 19.5865 114.613 19.8686 114.613 20.3242C114.613 21.2573 113.473 22.1036 111.531 22.3531C111.423 22.5701 111.423 22.8522 111.423 23.0149C111.423 23.6116 111.824 24.0022 112.432 24.0022ZM113.517 19.836C112.898 19.836 112.161 20.6714 111.792 21.637L111.607 22.1144C112.54 21.8866 112.953 21.6913 113.354 21.3115C113.69 20.9861 113.897 20.5955 113.897 20.2591C113.897 19.9988 113.821 19.836 113.517 19.836Z" fill="#FAF9FA"/>
</svg>
