<svg width="124" height="32" viewBox="0 0 124 32" fill="none" xmlns="http://www.w3.org/2000/svg">
<path d="M61.5146 0.107076C61.515 0.0934203 61.5126 0.0798194 61.5078 0.06705C61.5029 0.0542806 61.4956 0.0425929 61.4862 0.0326541C61.4768 0.0227153 61.4656 0.01472 61.4531 0.00912488C61.4407 0.00352973 61.4272 0.000444218 61.4136 4.45328e-05C61.3999 -0.000355152 61.3863 0.00193881 61.3736 0.00679544C61.3608 0.0116521 61.3491 0.0189763 61.3391 0.0283498C61.3292 0.0377234 61.3212 0.0489628 61.3156 0.0614262C61.31 0.0738897 61.307 0.0873332 61.3066 0.100989C60.3184 4.98082 52.9439 7.03218 52.2845 9.89312C51.4079 8.2425 49.6467 7.38219 47.0668 7.38219C44.3996 7.38219 42.1474 8.67976 42.1474 10.2147C42.1474 10.9381 42.6638 11.4392 43.5271 11.5579L43.7229 11.5843L43.8376 11.424C44.2241 10.9069 44.7278 10.4888 45.3074 10.2041C45.8869 9.91948 46.5257 9.77638 47.1713 9.78659C49.2521 9.78659 50.1043 10.5373 50.1043 12.3797V13.0564C49.1193 12.6781 48.0698 12.4961 47.015 12.5207C43.6144 12.5207 41.4189 14.2982 41.4189 17.0495C41.4189 19.6416 43.3303 21.3166 46.2886 21.3166C47.0422 21.324 47.789 21.1736 48.4809 20.875C49.1729 20.5764 49.7946 20.1362 50.3061 19.5828C50.3917 20.03 50.6315 20.433 50.9837 20.7215C51.336 21.01 51.7784 21.1657 52.2337 21.1614C52.6142 21.1604 52.9856 21.0458 53.3003 20.8321C53.6151 20.6184 53.8587 20.3155 54 19.9622L54.1238 19.6457L53.8032 19.531C53.5113 19.4089 53.2676 19.1944 53.1092 18.9204C52.9509 18.6465 52.8868 18.3282 52.9266 18.0143V13.7199C53.0829 12.3564 54.5935 11.3865 56.4176 9.96616L57.3499 9.18194C60.2281 6.75724 61.8595 3.10802 61.5146 0.107076ZM50.1073 15.6931C50.098 16.1345 50.0007 16.5695 49.8212 16.9728C49.6417 17.376 49.3835 17.7395 49.0618 18.0418C48.7402 18.3441 48.3614 18.5792 47.9478 18.7334C47.5342 18.8875 47.0939 18.9576 46.6528 18.9396C45.1493 18.9396 44.218 18.1756 44.218 16.9461C44.218 15.6201 45.3116 14.7932 47.0729 14.7932C48.3126 14.7932 48.9771 15.3188 50.1103 15.4121L50.1073 15.6931Z" fill="#FAF9FA"/>
<path d="M12.5885 11.3317C12.5852 11.4934 12.5529 11.6532 12.4932 11.8034C11.4879 15.4617 10.1724 19.0274 8.56088 22.462C8.42059 22.896 8.14334 23.2728 7.77072 23.5358C7.39811 23.7988 6.95023 23.934 6.49431 23.9208H6.25996C5.80006 23.9376 5.3472 23.8043 4.96966 23.5412C4.59213 23.278 4.31041 22.8992 4.167 22.462C2.55508 19.0278 1.2402 15.462 0.23676 11.8034C0.176244 11.6533 0.143584 11.4935 0.140381 11.3317C0.140381 10.7838 0.586769 10.4288 1.27766 10.4288H1.87724C2.19215 10.4073 2.50373 10.5042 2.7509 10.7005C2.99807 10.8968 3.163 11.1783 3.21336 11.4899C3.96889 14.7754 5.0233 17.9848 6.36344 21.0782C7.70457 17.9839 8.75967 14.7735 9.51554 11.4869C9.56682 11.1761 9.73217 10.8957 9.97927 10.7003C10.2264 10.505 10.5375 10.4089 10.8517 10.4308H11.4512C12.1421 10.4288 12.5885 10.7838 12.5885 11.3317ZM40.7292 22.462L40.6044 22.7785C40.4629 23.1312 40.2193 23.4336 39.9048 23.6469C39.5903 23.8602 39.2192 23.9747 38.8392 23.9756C38.3838 23.9803 37.9412 23.8248 37.5888 23.5362C37.2365 23.2477 36.9968 22.8444 36.9116 22.397C36.4002 22.9507 35.7785 23.391 35.0865 23.6896C34.3946 23.9882 33.6477 24.1385 32.8941 24.1308C29.9378 24.1308 28.0244 22.4559 28.0244 19.8638C28.0244 17.1134 30.2208 15.335 33.6205 15.335C34.6753 15.3102 35.7248 15.4922 36.7097 15.8706V15.1929C36.7097 13.3516 35.8606 12.5998 33.7777 12.5998C33.1322 12.5896 32.4934 12.7327 31.9138 13.0174C31.3343 13.302 30.8306 13.7201 30.444 14.2373L30.3294 14.3976L30.1336 14.3712C29.2723 14.2535 28.7539 13.7513 28.7539 13.028C28.7539 11.493 31.0071 10.1954 33.6733 10.1954C37.5061 10.1954 39.5321 12.0855 39.5321 15.6627V20.8286C39.4927 21.1425 39.5571 21.4608 39.7156 21.7347C39.874 22.0085 40.1178 22.223 40.4097 22.3453L40.7292 22.462ZM36.7117 18.2294C35.749 17.8289 34.7179 17.6188 33.6753 17.6105C31.9151 17.6105 30.8214 18.4343 30.8214 19.7633C30.8214 20.9929 31.7538 21.7569 33.2563 21.7569C33.6973 21.7749 34.1376 21.7048 34.5512 21.5506C34.9649 21.3965 35.3436 21.1614 35.6653 20.8591C35.9869 20.5568 36.2451 20.1933 36.4246 19.7901C36.6041 19.3868 36.7014 18.9517 36.7107 18.5104L36.7117 18.2294ZM26.4377 17.1773C26.4377 21.9841 23.0655 24.1319 19.7175 24.1319C16.3696 24.1319 12.9984 21.979 12.9984 17.1773C12.9984 12.3371 16.3706 10.1711 19.7175 10.1711C23.0644 10.1711 26.4367 12.3401 26.4367 17.1804L26.4377 17.1773ZM23.5636 17.152C23.5636 14.361 22.0895 12.6282 19.7175 12.6282C17.3456 12.6282 15.8725 14.3621 15.8725 17.152C15.8725 20.0007 17.307 21.7021 19.7175 21.7021C22.128 21.7021 23.5626 20.0038 23.5626 17.155L23.5636 17.152Z" fill="#FAF9FA"/>
<path d="M2.72331 29.9867V28.8342C2.72331 28.0317 2.2688 27.6076 1.40951 27.6076C0.81094 27.6076 0.304696 27.8998 0.304696 28.2457C0.304696 28.4111 0.42238 28.5247 0.618182 28.5501L0.665864 28.5562L0.694271 28.5176C0.779904 28.403 0.891491 28.3104 1.01988 28.2472C1.14826 28.1841 1.28979 28.1523 1.43284 28.1544C1.89343 28.1544 2.07807 28.3208 2.07807 28.7287V28.8717C1.86012 28.7892 1.62828 28.7496 1.3953 28.755C0.634414 28.755 0.141358 29.1517 0.141358 29.7696C0.141179 29.9072 0.170424 30.0433 0.227135 30.1687C0.283846 30.2942 0.366712 30.406 0.470179 30.4968C0.573647 30.5876 0.695324 30.6552 0.827058 30.6951C0.958791 30.735 1.09754 30.7464 1.23399 30.7283C1.40101 30.73 1.56656 30.697 1.72022 30.6315C1.87387 30.5661 2.0123 30.4695 2.12677 30.3478C2.14797 30.446 2.2023 30.5338 2.28063 30.5966C2.35896 30.6595 2.45652 30.6934 2.55693 30.6928C2.6433 30.6929 2.72772 30.6671 2.79919 30.6186C2.87066 30.5701 2.92588 30.5012 2.95766 30.4209L2.9881 30.3438L2.91099 30.3164C2.84674 30.2902 2.79302 30.2434 2.7583 30.1833C2.72359 30.1233 2.70985 30.0534 2.71925 29.9846L2.72331 29.9867ZM2.07402 29.4662C2.07194 29.5638 2.05042 29.6599 2.01071 29.7491C1.971 29.8382 1.9139 29.9186 1.84275 29.9854C1.77161 30.0521 1.68785 30.1041 1.59639 30.1381C1.50492 30.1721 1.40759 30.1875 1.31008 30.1835C0.978336 30.1835 0.772389 30.0161 0.772389 29.7452C0.772389 29.453 1.01384 29.2714 1.40342 29.2714C1.6336 29.2733 1.86128 29.3195 2.07402 29.4074V29.4662Z" fill="#FAF9FA"/>
<path d="M6.64654 27.6594H6.51262C6.44101 27.6541 6.37004 27.6759 6.3137 27.7204C6.25736 27.7649 6.21974 27.8289 6.20826 27.8998C6.04072 28.6296 5.80744 29.3426 5.51129 30.0303C5.21525 29.3426 4.98198 28.6295 4.81432 27.8998C4.80306 27.8287 4.76554 27.7645 4.70918 27.7198C4.65281 27.6751 4.58172 27.6531 4.50996 27.6583H4.37401C4.21575 27.6583 4.11328 27.7395 4.11328 27.8613C4.11434 27.8961 4.12156 27.9304 4.13459 27.9627C4.36055 28.7811 4.65512 29.579 5.01519 30.3478C5.0475 30.4467 5.11112 30.5323 5.19641 30.5918C5.2817 30.6513 5.38404 30.6814 5.48795 30.6776H5.54071C5.64371 30.6806 5.7449 30.65 5.82905 30.5906C5.91321 30.5311 5.97579 30.4459 6.00739 30.3478C6.36649 29.5826 6.6594 28.7881 6.88292 27.9729C6.89765 27.9375 6.90557 27.8996 6.90625 27.8613C6.90625 27.7355 6.8048 27.6583 6.64654 27.6583" fill="#FAF9FA"/>
<path d="M9.75488 29.9867V28.8342C9.75488 28.0317 9.30037 27.6076 8.44107 27.6076C7.84251 27.6076 7.33627 27.8998 7.33627 28.2457C7.33627 28.4111 7.45395 28.5247 7.64975 28.5501L7.69744 28.5562L7.72584 28.5176C7.81148 28.403 7.92306 28.3104 8.05145 28.2472C8.17984 28.1841 8.32136 28.1523 8.46441 28.1544C8.925 28.1544 9.10965 28.3208 9.10965 28.7287V28.8717C8.8917 28.7892 8.65985 28.7496 8.42687 28.755C7.66395 28.755 7.1709 29.1548 7.1709 29.7696C7.17088 29.9072 7.20024 30.0432 7.25701 30.1685C7.31377 30.2939 7.39664 30.4056 7.50006 30.4964C7.60349 30.5871 7.72511 30.6548 7.85677 30.6948C7.98843 30.7347 8.12711 30.7462 8.26354 30.7283C8.43056 30.73 8.59613 30.6971 8.7498 30.6316C8.90346 30.5661 9.04188 30.4695 9.15631 30.3478C9.17751 30.446 9.23184 30.5338 9.31017 30.5966C9.3885 30.6595 9.48607 30.6934 9.58647 30.6928C9.67284 30.6929 9.75726 30.6671 9.82873 30.6186C9.9002 30.5701 9.95542 30.5012 9.9872 30.4209L10.0176 30.3438L9.94054 30.3164C9.87639 30.2901 9.82277 30.2432 9.78808 30.1832C9.75338 30.1232 9.73957 30.0534 9.74879 29.9846L9.75488 29.9867ZM9.10355 29.4662C9.10148 29.5638 9.07996 29.6599 9.04025 29.7491C9.00054 29.8382 8.94344 29.9186 8.87229 29.9854C8.80115 30.0521 8.7174 30.1041 8.62593 30.1381C8.53447 30.1721 8.43713 30.1875 8.33962 30.1835C8.00788 30.1835 7.80193 30.0161 7.80193 29.7452C7.80193 29.453 8.04339 29.2714 8.43296 29.2714C8.66315 29.2733 8.89082 29.3194 9.10355 29.4074V29.4662Z" fill="#FAF9FA"/>
<path d="M12.8015 27.7862C12.4709 27.6664 12.1223 27.604 11.7708 27.6015C11.5634 27.5975 11.3577 27.6381 11.1674 27.7205C10.9771 27.8028 10.8067 27.9251 10.6678 28.079C10.5288 28.2328 10.4245 28.4148 10.3618 28.6125C10.2992 28.8101 10.2798 29.0189 10.3048 29.2248C10.3048 30.1642 10.7816 30.7252 11.578 30.7252C11.8852 30.7318 12.183 30.6191 12.4089 30.4107V31.7022C12.4045 31.7428 12.4094 31.784 12.4233 31.8224C12.4372 31.8609 12.4596 31.8957 12.489 31.9241C12.5183 31.9526 12.5538 31.974 12.5926 31.9867C12.6315 31.9994 12.6727 32.0031 12.7132 31.9974H12.7599C12.8004 32.0031 12.8416 31.9994 12.8805 31.9867C12.9194 31.974 12.9548 31.9526 12.9842 31.9241C13.0135 31.8957 13.036 31.8609 13.0499 31.8224C13.0637 31.784 13.0687 31.7428 13.0643 31.7022V28.1514C13.0674 28.0712 13.0437 27.9923 12.9968 27.9272C12.9499 27.8621 12.8826 27.8146 12.8056 27.7922L12.8015 27.7862ZM12.415 29.2044C12.415 29.4916 12.347 30.1672 11.7149 30.1672C11.2006 30.1672 10.95 29.8629 10.95 29.2227C10.95 28.5623 11.2473 28.1676 11.7434 28.1676C11.9742 28.1728 12.202 28.2213 12.415 28.3107V29.2044Z" fill="#FAF9FA"/>
<path d="M16.0064 27.6593H15.9658C15.7629 27.6593 15.6614 27.7608 15.6614 27.9545V29.2521C15.6614 29.6752 15.4798 30.1652 14.9665 30.1652C14.5363 30.1652 14.3416 29.943 14.3416 29.4479V27.9536C14.3456 27.913 14.3404 27.872 14.3263 27.8338C14.3123 27.7955 14.2899 27.7609 14.2606 27.7325C14.2313 27.7042 14.1961 27.6827 14.1574 27.6699C14.1187 27.657 14.0776 27.6531 14.0372 27.6583H13.9966C13.9559 27.6516 13.9143 27.6545 13.8749 27.6669C13.8356 27.6792 13.7997 27.7005 13.7701 27.7292C13.7405 27.758 13.718 27.7932 13.7045 27.8322C13.691 27.8711 13.6868 27.9127 13.6923 27.9536V29.4753C13.6923 30.3052 14.0707 30.7252 14.8194 30.7252C15.137 30.713 15.4368 30.5754 15.6533 30.3427V30.3833C15.6495 30.4238 15.6549 30.4647 15.669 30.5029C15.683 30.541 15.7055 30.5756 15.7347 30.6039C15.7639 30.6322 15.7991 30.6537 15.8377 30.6666C15.8763 30.6795 15.9173 30.6836 15.9577 30.6785H15.9922C16.0329 30.6857 16.0748 30.6831 16.1144 30.6709C16.1539 30.6588 16.19 30.6374 16.2197 30.6086C16.2494 30.5798 16.2719 30.5444 16.2852 30.5052C16.2986 30.466 16.3025 30.4243 16.2965 30.3833V27.9485C16.3025 27.9083 16.299 27.8673 16.2863 27.8288C16.2736 27.7902 16.252 27.7552 16.2233 27.7265C16.1946 27.6978 16.1596 27.6762 16.121 27.6635C16.0825 27.6507 16.0415 27.6472 16.0013 27.6532" fill="#FAF9FA"/>
<path d="M17.4377 26.5069C17.3573 26.5059 17.2783 26.5288 17.2109 26.5728C17.1435 26.6168 17.0907 26.6798 17.0592 26.7538C17.0277 26.8279 17.019 26.9096 17.034 26.9887C17.0491 27.0677 17.0874 27.1405 17.1439 27.1978C17.2005 27.255 17.2728 27.2942 17.3516 27.3103C17.4305 27.3263 17.5123 27.3186 17.5868 27.2881C17.6612 27.2575 17.7249 27.2055 17.7697 27.1387C17.8145 27.0718 17.8385 26.9931 17.8385 26.9127C17.8385 26.8059 17.7964 26.7035 17.7214 26.6275C17.6464 26.5516 17.5445 26.5082 17.4377 26.5069" fill="#FAF9FA"/>
<path d="M17.4561 27.6533H17.4206C17.3801 27.6478 17.339 27.6516 17.3002 27.6644C17.2614 27.6772 17.2261 27.6986 17.1968 27.727C17.1675 27.7554 17.145 27.7901 17.1311 27.8285C17.1171 27.8669 17.112 27.9079 17.1162 27.9485V30.3833C17.1109 30.4245 17.1152 30.4664 17.1286 30.5058C17.142 30.5451 17.1643 30.5809 17.1937 30.6103C17.223 30.6396 17.2588 30.6619 17.2981 30.6753C17.3375 30.6888 17.3794 30.693 17.4206 30.6877H17.4561C17.4974 30.6932 17.5393 30.6891 17.5788 30.6758C17.6182 30.6624 17.6541 30.6402 17.6835 30.6107C17.7129 30.5813 17.7352 30.5454 17.7485 30.506C17.7619 30.4666 17.766 30.4246 17.7605 30.3833V27.9485C17.7649 27.9078 17.7599 27.8667 17.7461 27.8283C17.7322 27.7898 17.7097 27.755 17.6804 27.7265C17.651 27.6981 17.6156 27.6767 17.5767 27.664C17.5378 27.6513 17.4966 27.6476 17.4561 27.6533" fill="#FAF9FA"/>
<path d="M20.0057 27.6005C19.8502 27.6031 19.697 27.6386 19.5562 27.7047C19.4154 27.7708 19.2903 27.866 19.189 27.984V27.9546C19.1954 27.9132 19.1919 27.8708 19.1788 27.831C19.1658 27.7911 19.1436 27.7549 19.1139 27.7253C19.0843 27.6956 19.0481 27.6734 19.0082 27.6603C18.9684 27.6473 18.926 27.6439 18.8846 27.6502H18.844C18.8027 27.6443 18.7605 27.6481 18.7209 27.6613C18.6812 27.6745 18.6452 27.6967 18.6157 27.7263C18.5861 27.7558 18.5639 27.7918 18.5507 27.8314C18.5375 27.8711 18.5337 27.9132 18.5397 27.9546V30.3823C18.5328 30.4239 18.536 30.4664 18.5488 30.5065C18.5617 30.5465 18.5839 30.5829 18.6137 30.6127C18.6434 30.6424 18.6799 30.6646 18.7199 30.6775C18.76 30.6904 18.8025 30.6935 18.844 30.6867H18.8846C18.9259 30.6926 18.9681 30.6889 19.0078 30.6757C19.0474 30.6625 19.0834 30.6402 19.113 30.6107C19.1425 30.5811 19.1647 30.5451 19.1779 30.5055C19.1911 30.4659 19.1949 30.4237 19.189 30.3823V29.1071C19.189 28.5329 19.4669 28.1676 19.8991 28.1676C20.3313 28.1676 20.5078 28.3787 20.5078 28.8778V30.3844C20.5016 30.425 20.5048 30.4665 20.5173 30.5056C20.5298 30.5448 20.5511 30.5805 20.5797 30.61C20.6083 30.6395 20.6434 30.6619 20.6821 30.6756C20.7209 30.6893 20.7623 30.6938 20.8031 30.6887H20.8497C20.8912 30.6956 20.9338 30.6924 20.9739 30.6796C21.0139 30.6667 21.0503 30.6444 21.08 30.6147C21.1098 30.5849 21.132 30.5485 21.1449 30.5085C21.1578 30.4684 21.1609 30.4259 21.1541 30.3844V28.8626C21.1778 28.7014 21.1654 28.5369 21.1177 28.3811C21.07 28.2253 20.9882 28.0821 20.8782 27.9618C20.7683 27.8415 20.6329 27.7473 20.482 27.6859C20.3311 27.6244 20.1683 27.5974 20.0057 27.6066" fill="#FAF9FA"/>
<path d="M23.2471 27.6188C23.0887 27.6183 22.9323 27.6547 22.7904 27.7252C22.6484 27.7956 22.5249 27.8981 22.4294 28.0246V26.7483C22.4354 26.707 22.4316 26.6648 22.4184 26.6252C22.4052 26.5855 22.383 26.5495 22.3534 26.52C22.3239 26.4904 22.2878 26.4682 22.2482 26.455C22.2086 26.4418 22.1664 26.438 22.125 26.444H22.0845C22.0432 26.4384 22.0012 26.4425 21.9618 26.4559C21.9224 26.4692 21.8865 26.4915 21.8571 26.5209C21.8276 26.5504 21.8054 26.5862 21.792 26.6256C21.7787 26.6651 21.7746 26.7071 21.7801 26.7483V30.3874C21.773 30.429 21.776 30.4716 21.7888 30.5117C21.8016 30.5519 21.8238 30.5884 21.8536 30.6182C21.8834 30.6481 21.92 30.6703 21.9601 30.6831C22.0003 30.6959 22.0429 30.6988 22.0845 30.6918H22.125C22.1664 30.6977 22.2086 30.6939 22.2482 30.6807C22.2878 30.6675 22.3239 30.6453 22.3534 30.6157C22.383 30.5862 22.4052 30.5502 22.4184 30.5105C22.4316 30.4709 22.4354 30.4288 22.4294 30.3874V29.1588C22.4294 28.7043 22.612 28.1737 23.1294 28.1737C23.5515 28.1737 23.7483 28.405 23.7483 28.9021V30.3874C23.7422 30.428 23.7456 30.4694 23.7582 30.5084C23.7707 30.5475 23.7921 30.5831 23.8207 30.6126C23.8492 30.642 23.8842 30.6645 23.9228 30.6782C23.9615 30.6919 24.0028 30.6966 24.0435 30.6918H24.0902C24.1317 30.6988 24.1744 30.6959 24.2145 30.6831C24.2547 30.6703 24.2912 30.6481 24.321 30.6182C24.3508 30.5884 24.3731 30.5519 24.3859 30.5117C24.3986 30.4716 24.4016 30.429 24.3945 30.3874V28.8737C24.3945 28.0672 23.9887 27.6239 23.2461 27.6239" fill="#FAF9FA"/>
<path d="M27.4826 29.9867V28.8342C27.4826 28.0317 27.0281 27.6076 26.1688 27.6076C25.5703 27.6076 25.065 27.8998 25.065 28.2457C25.065 28.4111 25.1817 28.5247 25.3785 28.5501L25.4262 28.5562L25.4546 28.5176C25.5401 28.4029 25.6517 28.3102 25.7801 28.247C25.9085 28.1839 26.0501 28.1521 26.1932 28.1544C26.6538 28.1544 26.8384 28.3208 26.8384 28.7287V28.8717C26.6204 28.7893 26.3886 28.7497 26.1556 28.755C25.3927 28.755 24.8997 29.1548 24.8997 29.7696C24.8996 29.9072 24.929 30.0432 24.9858 30.1685C25.0426 30.2939 25.1254 30.4056 25.2288 30.4964C25.3323 30.5871 25.4539 30.6548 25.5855 30.6948C25.7172 30.7347 25.8559 30.7462 25.9923 30.7283C26.1593 30.7298 26.3248 30.6968 26.4785 30.6314C26.6321 30.5659 26.7705 30.4694 26.8851 30.3478C26.9064 30.4467 26.9614 30.535 27.0405 30.5979C27.1197 30.6608 27.2182 30.6943 27.3193 30.6928C27.4057 30.6929 27.4901 30.6671 27.5616 30.6186C27.633 30.5701 27.6883 30.5012 27.72 30.4209L27.7495 30.3438L27.6723 30.3164C27.6082 30.2901 27.5546 30.2432 27.5199 30.1832C27.4852 30.1232 27.4714 30.0534 27.4806 29.9846L27.4826 29.9867ZM26.8384 29.4662C26.8362 29.5638 26.8145 29.66 26.7747 29.7492C26.7349 29.8383 26.6777 29.9186 26.6065 29.9854C26.5353 30.0522 26.4514 30.1041 26.3599 30.1381C26.2684 30.1721 26.171 30.1875 26.0735 30.1835C25.7417 30.1835 25.5358 30.0161 25.5358 29.7452C25.5358 29.453 25.7772 29.2714 26.1668 29.2714C26.3973 29.2733 26.6253 29.3195 26.8384 29.4074V29.4662Z" fill="#FAF9FA"/>
<path d="M31.4575 27.1612H31.421C31.3887 27.1565 31.3558 27.1593 31.3248 27.1693C31.2938 27.1793 31.2654 27.1962 31.2419 27.2188C31.2185 27.2414 31.2004 27.2691 31.1893 27.2997C31.1781 27.3304 31.1741 27.3631 31.1775 27.3956V28.3482C31.0067 28.2442 30.8104 28.1897 30.6104 28.1909C30.0616 28.1909 29.4741 28.5369 29.4741 29.5098C29.4741 30.1003 29.745 30.7272 30.5059 30.7272C30.632 30.728 30.7569 30.7023 30.8726 30.652C30.9882 30.6017 31.0921 30.5278 31.1775 30.4351V30.4696C31.1775 30.571 31.2201 30.6937 31.421 30.6937H31.4585C31.4909 30.6988 31.524 30.6964 31.5552 30.6865C31.5864 30.6767 31.6149 30.6598 31.6385 30.6371C31.6621 30.6144 31.6801 30.5865 31.6911 30.5557C31.7021 30.5249 31.7059 30.4919 31.702 30.4594V27.3956C31.705 27.3632 31.7008 27.3306 31.6894 27.3002C31.6781 27.2698 31.6601 27.2423 31.6367 27.2197C31.6133 27.1972 31.5852 27.1803 31.5543 27.1701C31.5235 27.16 31.4907 27.1569 31.4585 27.1612H31.4575ZM31.1765 29.5189C31.1765 29.7462 31.1187 30.2747 30.5901 30.2747C30.3659 30.2747 29.9895 30.1733 29.9895 29.4997C29.9895 28.96 30.2086 28.6627 30.6043 28.6627C30.71 28.6589 30.8154 28.6765 30.914 28.7145C31.0127 28.7525 31.1027 28.8101 31.1785 28.8838L31.1765 29.5189Z" fill="#FAF9FA"/>
<path d="M33.3486 28.194C33.0961 28.1839 32.8464 28.2495 32.6314 28.3823C32.4164 28.5151 32.246 28.7092 32.142 28.9395C32.0381 29.1699 32.0053 29.426 32.048 29.6751C32.0906 29.9242 32.2067 30.1549 32.3814 30.3376C32.556 30.5202 32.7813 30.6465 33.0282 30.7003C33.2751 30.754 33.5325 30.7328 33.7672 30.6392C34.002 30.5457 34.2035 30.3842 34.3458 30.1754C34.4882 29.9665 34.5648 29.7199 34.5661 29.4672C34.5793 29.3014 34.5574 29.1347 34.5016 28.9779C34.4459 28.8212 34.3577 28.678 34.2427 28.5578C34.1277 28.4375 33.9887 28.343 33.8346 28.2803C33.6805 28.2176 33.5149 28.1882 33.3486 28.194V28.194ZM33.3486 30.2799C32.9185 30.2799 32.6588 29.9755 32.6588 29.4622C32.6588 28.9488 32.9235 28.6506 33.3486 28.6506C33.7737 28.6506 34.0385 28.962 34.0385 29.4622C34.0385 29.9623 33.7808 30.2799 33.3486 30.2799Z" fill="#FAF9FA"/>
<path d="M37.9008 28.9275C38.1833 28.8985 38.4458 28.7679 38.6394 28.5601C38.8331 28.3523 38.9448 28.0812 38.9538 27.7973C38.9538 27.008 38.4557 26.5708 37.5528 26.5708L36.4987 26.5769C36.4575 26.5716 36.4156 26.5758 36.3762 26.5892C36.3369 26.6026 36.3012 26.6249 36.2718 26.6543C36.2424 26.6837 36.2201 26.7194 36.2067 26.7588C36.1933 26.7981 36.1891 26.84 36.1944 26.8812V30.3915C36.1944 30.5873 36.2958 30.6867 36.4987 30.6867H36.5281C36.731 30.6867 36.8406 30.5852 36.8406 30.3915V28.9711H37.2464C37.7293 29.8355 38.2863 30.7415 38.8301 30.7415C38.9117 30.7452 38.9928 30.7263 39.0644 30.6869C39.1359 30.6475 39.1953 30.5892 39.2359 30.5183L39.2765 30.4534L39.2146 30.4097C38.6885 30.0023 38.2415 29.502 37.8957 28.9336L37.9008 28.9275ZM36.8355 28.3929V27.1754H37.5711C38.055 27.1754 38.3005 27.3854 38.3005 27.8004C38.3005 28.2397 37.9241 28.3959 37.5711 28.3959L36.8355 28.3929Z" fill="#FAF9FA"/>
<path d="M42.1332 29.9867V28.8342C42.1332 28.0317 41.6787 27.6076 40.8194 27.6076C40.2199 27.6076 39.7146 27.8998 39.7146 28.2457C39.7146 28.4111 39.8313 28.5247 40.0281 28.5501L40.0758 28.5562L40.1042 28.5176C40.1897 28.4029 40.3013 28.3102 40.4297 28.247C40.5581 28.1839 40.6997 28.1521 40.8428 28.1544C41.3034 28.1544 41.488 28.3208 41.488 28.7287V28.8717C41.2701 28.7892 41.0382 28.7496 40.8053 28.755C40.0423 28.755 39.5503 29.1548 39.5503 29.7696C39.5503 29.9072 39.5796 30.0432 39.6364 30.1685C39.6931 30.2939 39.776 30.4056 39.8795 30.4964C39.9829 30.5871 40.1045 30.6548 40.2361 30.6948C40.3678 30.7347 40.5065 30.7462 40.6429 30.7283C40.8106 30.73 40.9769 30.6968 41.1311 30.6308C41.2854 30.5647 41.4242 30.4673 41.5387 30.3448C41.5599 30.4429 41.6143 30.5308 41.6926 30.5936C41.7709 30.6564 41.8685 30.6903 41.9689 30.6897C42.0552 30.6899 42.1397 30.664 42.2112 30.6155C42.2826 30.567 42.3379 30.4982 42.3696 30.4178L42.4 30.3407L42.3229 30.3133C42.2587 30.2872 42.205 30.2404 42.1702 30.1803C42.1355 30.1202 42.1218 30.0503 42.1312 29.9816L42.1332 29.9867ZM41.486 29.4632C41.4839 29.5607 41.4624 29.6569 41.4227 29.7461C41.383 29.8352 41.3259 29.9155 41.2547 29.9823C41.1836 30.0491 41.0998 30.101 41.0084 30.135C40.9169 30.1691 40.8195 30.1845 40.722 30.1804C40.3893 30.1804 40.1844 30.013 40.1844 29.7422C40.1844 29.45 40.4258 29.2684 40.8154 29.2684C41.0456 29.2702 41.2732 29.3164 41.486 29.4043V29.4632Z" fill="#FAF9FA"/>
<path d="M44.766 30.0983H43.4329C43.7495 29.7635 44.0782 29.4114 44.3998 29.0675L45.0024 28.4223C45.1033 28.3299 45.1674 28.2042 45.1829 28.0682V28.0216C45.1855 27.9717 45.1774 27.9219 45.1594 27.8753C45.1413 27.8288 45.1136 27.7866 45.0781 27.7515C45.0425 27.7164 44.9999 27.6893 44.9532 27.6719C44.9064 27.6544 44.8564 27.647 44.8066 27.6502H43.0555C43.0164 27.6457 42.9767 27.65 42.9394 27.6627C42.902 27.6754 42.868 27.6963 42.8398 27.7237C42.8115 27.7512 42.7898 27.7847 42.776 27.8216C42.7623 27.8586 42.7569 27.8981 42.7603 27.9374C42.7545 27.9775 42.7582 28.0184 42.771 28.0568C42.7838 28.0953 42.8054 28.1302 42.834 28.1589C42.8627 28.1875 42.8976 28.2091 42.9361 28.2219C42.9745 28.2347 43.0154 28.2384 43.0555 28.2326H44.3653C44.1218 28.4964 43.8793 28.7683 43.648 29.031C43.3893 29.3181 43.1215 29.6215 42.8546 29.9096C42.7562 29.9965 42.6945 30.1177 42.6822 30.2484V30.3063C42.6783 30.3565 42.6854 30.4069 42.703 30.4541C42.7206 30.5012 42.7483 30.544 42.7841 30.5793C42.82 30.6147 42.8631 30.6418 42.9105 30.6588C42.9579 30.6757 43.0084 30.6822 43.0585 30.6776H44.9273C44.9669 30.6822 45.0069 30.6777 45.0444 30.6643C45.0819 30.651 45.1158 30.6292 45.1436 30.6007C45.1713 30.5721 45.1921 30.5376 45.2044 30.4998C45.2167 30.4619 45.2201 30.4217 45.2144 30.3823C45.2144 30.0952 44.977 30.0952 44.768 30.0952" fill="#FAF9FA"/>
<path d="M47.0466 27.6005C46.735 27.5888 46.427 27.6704 46.162 27.8349C45.8971 27.9994 45.6873 28.2393 45.5596 28.5238C45.4319 28.8083 45.3921 29.1245 45.4453 29.4318C45.4985 29.7391 45.6422 30.0235 45.8581 30.2485C46.074 30.4735 46.3522 30.629 46.657 30.6949C46.9618 30.7608 47.2793 30.7341 47.5689 30.6184C47.8585 30.5026 48.1069 30.303 48.2822 30.0451C48.4576 29.7872 48.552 29.4829 48.5532 29.171C48.5692 28.9661 48.5417 28.7602 48.4725 28.5667C48.4033 28.3732 48.2941 28.1965 48.1518 28.0482C48.0096 27.8999 47.8375 27.7834 47.647 27.7062C47.4566 27.6291 47.2519 27.593 47.0466 27.6005V27.6005ZM47.0466 30.1744C46.514 30.1744 46.1954 29.797 46.1954 29.1659C46.1954 28.5349 46.5221 28.1616 47.0466 28.1616C47.5711 28.1616 47.8978 28.545 47.8978 29.1659C47.8978 29.7868 47.5802 30.1744 47.0466 30.1744Z" fill="#FAF9FA"/>
<path d="M46.2078 27.424C46.2492 27.4392 46.2941 27.4417 46.3369 27.4312C46.3797 27.4207 46.4185 27.3977 46.4482 27.3652C46.467 27.3424 46.491 27.3245 46.5182 27.313C46.5454 27.3015 46.575 27.2968 46.6044 27.2992C46.7293 27.2992 46.8524 27.3287 46.9636 27.3855L47.0194 27.4108C47.1627 27.4872 47.3226 27.5269 47.485 27.5265C47.631 27.5334 47.7748 27.4885 47.8908 27.3997C47.9459 27.354 47.9896 27.2961 48.0183 27.2306C48.047 27.1651 48.06 27.0937 48.0562 27.0223C48.0567 26.9805 48.0444 26.9395 48.0208 26.905C47.9971 26.8705 47.9634 26.8442 47.9243 26.8295C47.883 26.8141 47.8381 26.8114 47.7952 26.8217C47.7524 26.832 47.7136 26.8549 47.6838 26.8874C47.6651 26.9103 47.6411 26.9283 47.6139 26.94C47.5867 26.9517 47.5571 26.9566 47.5276 26.9543C47.4027 26.9539 47.2796 26.924 47.1685 26.8671L47.1127 26.8427C46.9694 26.766 46.8095 26.7259 46.647 26.726C46.5011 26.7195 46.3574 26.7644 46.2412 26.8528C46.186 26.8986 46.1424 26.9567 46.1136 27.0224C46.0849 27.0882 46.072 27.1597 46.0759 27.2313C46.0752 27.273 46.0874 27.3138 46.1109 27.3483C46.1343 27.3828 46.1677 27.4092 46.2067 27.424" fill="#FAF9FA"/>
<path d="M51.2325 29.7787H51.1787L51.1584 29.8294C51.0692 30.0536 50.7993 30.1805 50.4178 30.1805C50.1995 30.1926 49.9847 30.1224 49.8156 29.9837C49.6466 29.8451 49.5357 29.6482 49.5048 29.4317C49.7679 29.5122 50.0413 29.5535 50.3164 29.5545C51.0549 29.5545 51.5338 29.1893 51.5338 28.6222C51.5266 28.473 51.4886 28.327 51.4223 28.1933C51.356 28.0595 51.2628 27.9409 51.1485 27.8449C51.0342 27.7489 50.9013 27.6775 50.7581 27.6353C50.6149 27.5931 50.4645 27.5809 50.3164 27.5995C50.1164 27.5997 49.9186 27.6415 49.7357 27.7224C49.5528 27.8032 49.3887 27.9212 49.2539 28.069C49.1192 28.2167 49.0166 28.3909 48.9529 28.5805C48.8892 28.7701 48.8657 28.9708 48.8839 29.17C48.8726 29.3898 48.9084 29.6094 48.9891 29.8142C49.0698 30.0189 49.1934 30.204 49.3516 30.357C49.648 30.607 50.0261 30.7392 50.4138 30.7283C51.0854 30.7283 51.5531 30.3823 51.5531 30.0729C51.5534 30.0321 51.5451 29.9916 51.5289 29.9541C51.5127 29.9166 51.4888 29.8829 51.4588 29.8551C51.4289 29.8273 51.3934 29.8061 51.3548 29.7928C51.3162 29.7795 51.2752 29.7743 51.2345 29.7777L51.2325 29.7787ZM50.3093 28.1443C50.6684 28.1443 50.9342 28.3391 50.9342 28.6059C50.9342 28.7814 50.8622 29.0117 50.2565 29.0117C50.0025 29.0057 49.7504 28.9661 49.5068 28.8941C49.5274 28.6929 49.6199 28.5058 49.7673 28.3674C49.9147 28.2289 50.1072 28.1482 50.3093 28.1403" fill="#FAF9FA"/>
<path d="M53.142 28.8362C52.6094 28.7175 52.5678 28.6069 52.5678 28.4548C52.5678 28.1616 52.9878 28.1382 53.1166 28.1382C53.223 28.1258 53.3309 28.1376 53.4321 28.1727C53.5333 28.2079 53.6252 28.2654 53.701 28.3411L53.7294 28.4132L53.8014 28.3888C53.9029 28.3563 54.0825 28.2955 54.0825 28.0926C54.0825 27.8623 53.8349 27.5904 53.1359 27.5904C52.3618 27.5904 51.9439 28.0723 51.9439 28.5227C51.9439 28.9732 52.2634 29.24 52.9482 29.3922C53.5671 29.5281 53.6716 29.6336 53.6716 29.8223C53.6716 30.0374 53.42 30.1845 53.0629 30.1845C52.5678 30.1845 52.2989 30.011 52.2137 29.8487L52.1782 29.7818L52.1062 29.8152C52.0356 29.8465 51.9759 29.898 51.9345 29.9632C51.8932 30.0283 51.8721 30.1043 51.8739 30.1815C51.8739 30.5091 52.3182 30.7212 53.007 30.7212C53.7568 30.7212 54.2803 30.3407 54.2803 29.797C54.2803 29.2897 53.9526 29.0158 53.147 28.8342" fill="#FAF9FA"/>
<path d="M52.9309 13.6854V13.6773C53.1135 12.3381 54.6109 11.3753 56.4158 9.96514L57.3481 9.18092C60.2253 6.75825 61.8597 3.10801 61.5147 0.10808C61.5016 -0.0106183 61.3118 -0.01772 61.3068 0.101993C61.2605 1.24122 60.9423 2.35285 60.3788 3.34402C59.8153 4.33518 59.0227 5.17713 58.0674 5.79953C53.5903 8.53873 53.0242 9.41324 52.9309 13.6854" fill="#FAF9FA"/>
<path opacity="0.8" d="M52.9349 13.7098C53.8149 13.2076 54.7901 12.8946 55.7979 12.7906C58.5797 12.1129 60.9719 8.74067 61.2672 6.96526C61.2679 6.95876 61.2665 6.95219 61.2633 6.94648C61.2601 6.94078 61.2553 6.93622 61.2493 6.93343C61.2434 6.93064 61.2368 6.92976 61.2303 6.93092C61.2239 6.93208 61.218 6.93522 61.2134 6.9399C59.8773 8.24893 58.2366 9.20522 56.439 9.72272C55.6974 9.93577 52.8213 9.92359 52.9349 13.7098Z" fill="#FAF9FA"/>
<path opacity="0.7" d="M59.2361 12.5714C58.1204 12.9113 56.9398 12.9809 55.7918 12.7743C54.7915 12.5826 53.2414 12.3026 52.937 13.7006C53.4202 14.1679 54.0328 14.479 54.6951 14.5933H54.7063C55.5774 14.7588 56.4784 14.6537 57.2881 14.2923C58.0978 13.9309 58.7776 13.3304 59.2361 12.5714V12.5714Z" fill="#FAF9FA"/>
<path opacity="0.75" d="M56.229 15.6008C55.5924 15.331 55.0291 14.9137 54.5855 14.3834C54.2172 13.9329 53.648 13.2512 53.0068 13.6661C52.9825 13.6824 52.9439 13.7077 52.9348 13.7169C52.9764 14.1137 53.1366 14.4887 53.3944 14.7932V14.7932C53.727 15.2024 54.1773 15.4993 54.6844 15.6438C55.1915 15.7883 55.7307 15.7732 56.229 15.6008V15.6008Z" fill="#FAF9FA"/>
<path fill-rule="evenodd" clip-rule="evenodd" d="M67.4438 4.68573C67.6937 4.68573 67.8964 4.88835 67.8964 5.1383V26.8618C67.8964 27.1117 67.6937 27.3143 67.4438 27.3143C67.1938 27.3143 66.9912 27.1117 66.9912 26.8618V5.1383C66.9912 4.88835 67.1938 4.68573 67.4438 4.68573Z" fill="#FAF9FA"/>
<path opacity="0.52" d="M77.3027 14.1763C76.6859 14.5111 75.8337 14.8459 75.2402 13.6437C75.5307 13.8663 75.863 14.0281 76.2174 14.1196C76.5717 14.2111 76.9408 14.2304 77.3027 14.1763V14.1763Z" fill="#FAF9FA"/>
<path d="M92.0656 6.49597C92.0656 6.49597 86.2143 8.04631 86.9234 10.5571C87.2421 11.1998 87.3579 11.9242 87.2553 12.6342C87.1527 13.3442 86.8365 14.0062 86.3489 14.5324C85.5795 15.5339 82.779 17.1727 82.1929 19.3796C82.1035 19.7265 82.035 20.0785 81.9877 20.4337C81.7648 19.9728 81.6014 19.4855 81.5017 18.9833C81.209 17.7514 81.2389 16.4649 81.5884 15.2479C81.9379 14.0309 82.5953 12.9246 83.497 12.0357C83.7471 11.5689 83.6252 9.02088 84.6754 8.10786C84.945 7.87409 85.277 7.72428 85.6306 7.67689C85.9842 7.6295 86.344 7.68659 86.6656 7.84113C86.722 7.87141 86.7841 7.88957 86.848 7.89443C86.9118 7.89928 86.9759 7.89074 87.0363 7.86935C88.6699 7.26723 90.3526 6.80772 92.0656 6.49597V6.49597Z" fill="#FAF9FA"/>
<path opacity="0.85" d="M84.2087 12.0229C80.4977 16.7162 77.4291 6.3806 73.3269 6.81659C77.1149 4.94823 80.9696 13.454 84.2087 12.0229Z" fill="#FAF9FA"/>
<path d="M84.2103 12.0229C81.0789 13.2013 76.5984 7.62959 74.5005 8.91193C77.3024 9.81212 80.7955 18.2037 84.2103 12.0229Z" fill="#FAF9FA"/>
<path d="M84.2086 12.0204C83.0545 13.9362 78.905 13.9592 76.2288 11.5664C76.6673 13.0655 79.1255 15.5275 81.326 14.9095C80.2078 16.32 79.8936 16.3906 79.8936 16.3906C81.658 15.6648 84.3727 13.9336 84.2086 12.0204Z" fill="#FAF9FA"/>
<path d="M81.6222 20.685C81.5325 21.7478 81.8035 22.8099 82.3915 23.6998C81.8491 23.065 81.4623 22.3124 81.262 21.5018C81.0616 20.6913 81.0532 19.8452 81.2374 19.0308C81.3065 19.5943 81.4356 20.1488 81.6222 20.685Z" fill="#FAF9FA"/>
<path d="M91.0132 19.0962C91.1722 19.0962 91.2466 19.1706 91.2466 19.3117V19.5515C91.3482 19.3936 91.4878 19.2639 91.6528 19.1742C91.8177 19.0846 92.0026 19.0379 92.1903 19.0385C92.9007 19.0385 93.465 19.4925 93.465 20.5773C93.4895 20.7779 93.4706 20.9814 93.4096 21.174C93.3486 21.3666 93.2468 21.5439 93.1114 21.6938C92.9759 21.8437 92.8099 21.9628 92.6244 22.043C92.4389 22.1231 92.2385 22.1625 92.0364 22.1584C91.7603 22.1532 91.4895 22.082 91.2466 21.9507V23.2741C91.2466 23.4279 91.1786 23.501 91.0132 23.501H90.9722C90.8132 23.501 90.7388 23.4279 90.7388 23.2741V19.3206C90.7388 19.1616 90.8132 19.0924 90.9722 19.0924L91.0132 19.0962ZM91.2466 20.7953V21.5647C91.4934 21.6824 91.763 21.7441 92.0364 21.7455C92.5494 21.7455 92.9559 21.4019 92.9559 20.5914C92.9559 19.7579 92.5506 19.4694 92.0723 19.4694C91.4311 19.4771 91.2439 20.1106 91.2439 20.7992L91.2466 20.7953Z" fill="#FAF9FA"/>
<path d="M96.1502 20.2554V21.4673C96.1413 21.5569 96.1613 21.647 96.2074 21.7243C96.2536 21.8017 96.3235 21.8621 96.4066 21.8968C96.3787 21.9653 96.3312 22.024 96.2701 22.0655C96.2089 22.1071 96.1367 22.1296 96.0628 22.1302C95.8063 22.1302 95.6654 21.9276 95.6654 21.6519C95.5523 21.8111 95.4027 21.9408 95.2291 22.03C95.0555 22.1193 94.863 22.1655 94.6678 22.1648C93.9997 22.1648 93.6008 21.7917 93.6008 21.2403C93.6008 20.6453 94.0727 20.2529 94.8382 20.2529C95.1145 20.2483 95.3885 20.3025 95.6422 20.4119V20.14C95.6422 19.6271 95.3704 19.454 94.8728 19.454C94.7088 19.4515 94.5466 19.488 94.3995 19.5604C94.2523 19.6329 94.1246 19.7392 94.0266 19.8707C93.892 19.8528 93.77 19.7848 93.77 19.6309C93.77 19.3245 94.2548 19.0436 94.8498 19.0436C95.6872 19.0488 96.1502 19.4399 96.1502 20.2554ZM94.0983 21.2185C94.0983 21.5429 94.3446 21.7622 94.7485 21.7622C94.8623 21.7664 94.9757 21.748 95.0823 21.7079C95.1888 21.6678 95.2863 21.6069 95.369 21.5287C95.4518 21.4505 95.5182 21.3566 95.5642 21.2525C95.6103 21.1484 95.6351 21.0361 95.6372 20.9222V20.8056C95.3882 20.6942 95.1187 20.6357 94.8459 20.6337C94.3843 20.635 94.1022 20.8658 94.1022 21.2185H94.0983Z" fill="#FAF9FA"/>
<path d="M96.8652 19.0911C97.0306 19.0911 97.0986 19.1591 97.0986 19.3193V19.6489C97.1712 19.4809 97.2886 19.336 97.4378 19.23C97.587 19.1239 97.7624 19.0608 97.945 19.0475C98.2873 19.0475 98.4656 19.2193 98.4656 19.3976C98.4686 19.4462 98.4583 19.4948 98.4357 19.5379C98.4131 19.5811 98.3791 19.6173 98.3374 19.6425C98.2291 19.5381 98.0838 19.4809 97.9334 19.4835C97.4063 19.4835 97.1114 19.9682 97.1114 20.5722V21.884C97.1114 22.0494 97.0447 22.1174 96.878 22.1174H96.8293C96.6639 22.1174 96.5959 22.0507 96.5959 21.884V19.3193C96.5959 19.1603 96.6639 19.0911 96.8293 19.0911H96.8652Z" fill="#FAF9FA"/>
<path d="M100.901 20.2554V21.4673C100.892 21.5569 100.912 21.647 100.958 21.7243C101.005 21.8017 101.074 21.8621 101.158 21.8968C101.13 21.9654 101.082 22.0242 101.021 22.0658C100.96 22.1073 100.888 22.1298 100.814 22.1302C100.557 22.1302 100.416 21.9276 100.416 21.6519C100.303 21.8111 100.154 21.9408 99.9801 22.03C99.8065 22.1193 99.6138 22.1655 99.4186 22.1648C98.7505 22.1648 98.3518 21.7917 98.3518 21.2403C98.3518 20.6453 98.8237 20.2529 99.5892 20.2529C99.8655 20.2483 100.139 20.3025 100.393 20.4119V20.14C100.393 19.6271 100.121 19.454 99.6238 19.454C99.4598 19.4516 99.2977 19.4882 99.1506 19.5606C99.0035 19.633 98.8755 19.7393 98.7774 19.8707C98.6428 19.8528 98.521 19.7848 98.521 19.6309C98.521 19.3245 99.0058 19.0436 99.6008 19.0436C100.436 19.0488 100.901 19.4399 100.901 20.2554ZM98.8493 21.2185C98.8493 21.5429 99.0941 21.7622 99.4994 21.7622C99.6131 21.7664 99.7267 21.748 99.8333 21.7079C99.9398 21.6678 100.037 21.6069 100.12 21.5287C100.203 21.4505 100.269 21.3566 100.315 21.2525C100.361 21.1484 100.386 21.0361 100.388 20.9222V20.8056C100.139 20.6943 99.8697 20.6358 99.5969 20.6337C99.1327 20.635 98.8544 20.8658 98.8544 21.2185H98.8493Z" fill="#FAF9FA"/>
<path d="M105.071 20.2554V21.4673C105.062 21.5569 105.082 21.647 105.128 21.7243C105.174 21.8017 105.244 21.8621 105.327 21.8968C105.3 21.9653 105.252 22.024 105.192 22.0656C105.131 22.1072 105.059 22.1297 104.985 22.1302C104.728 22.1302 104.586 21.9276 104.586 21.6519C104.473 21.8111 104.324 21.9409 104.15 22.0302C103.976 22.1195 103.784 22.1657 103.588 22.1648C102.92 22.1648 102.521 21.7917 102.521 21.2403C102.521 20.6453 102.993 20.2529 103.76 20.2529C104.036 20.2483 104.31 20.3026 104.563 20.4119V20.14C104.563 19.6271 104.291 19.454 103.794 19.454C103.63 19.4518 103.468 19.4884 103.32 19.5609C103.173 19.6333 103.045 19.7395 102.947 19.8707C102.819 19.8528 102.691 19.7848 102.691 19.6309C102.691 19.3245 103.176 19.0436 103.769 19.0436C104.605 19.0488 105.071 19.4399 105.071 20.2554ZM103.019 21.2185C103.019 21.5429 103.264 21.7622 103.668 21.7622C103.782 21.7664 103.895 21.748 104.002 21.7079C104.108 21.6678 104.206 21.6069 104.288 21.5287C104.371 21.4505 104.438 21.3566 104.484 21.2525C104.53 21.1484 104.554 21.0361 104.557 20.9222V20.8056C104.308 20.6942 104.038 20.6357 103.765 20.6337C103.305 20.635 103.023 20.8658 103.023 21.2185H103.019Z" fill="#FAF9FA"/>
<path d="M107.838 19.5643C107.838 19.7297 107.728 19.8105 107.574 19.8285C107.487 19.7045 107.368 19.6057 107.23 19.542C107.092 19.4783 106.94 19.4519 106.789 19.4656C106.276 19.4656 105.839 19.8208 105.839 20.612C105.839 21.4032 106.305 21.7533 106.777 21.7533C106.938 21.7747 107.103 21.7483 107.25 21.6775C107.397 21.6066 107.521 21.4944 107.605 21.3545C107.64 21.3523 107.675 21.3574 107.708 21.3694C107.741 21.3813 107.771 21.3998 107.796 21.4239C107.822 21.4479 107.842 21.4769 107.856 21.5091C107.87 21.5412 107.877 21.5759 107.877 21.6109C107.877 21.8827 107.471 22.1751 106.821 22.1751C106.418 22.1588 106.036 21.9869 105.756 21.6956C105.476 21.4042 105.32 21.0159 105.32 20.612C105.32 20.208 105.476 19.8197 105.756 19.5284C106.036 19.237 106.418 19.0652 106.821 19.0488C107.48 19.0424 107.838 19.336 107.838 19.5643Z" fill="#FAF9FA"/>
<path d="M108.358 19.0911C108.523 19.0911 108.591 19.1591 108.591 19.3193V19.6489C108.664 19.4809 108.781 19.336 108.93 19.23C109.08 19.1239 109.255 19.0608 109.438 19.0475C109.781 19.0475 109.958 19.2193 109.958 19.3976C109.961 19.4462 109.951 19.4948 109.928 19.5379C109.906 19.5811 109.872 19.6173 109.83 19.6425C109.722 19.5381 109.576 19.4809 109.426 19.4835C108.899 19.4835 108.604 19.9682 108.604 20.5722V21.884C108.604 22.0494 108.537 22.1174 108.371 22.1174H108.322C108.157 22.1174 108.089 22.0507 108.089 21.884V19.3193C108.089 19.1603 108.157 19.0911 108.322 19.0911H108.358Z" fill="#FAF9FA"/>
<path d="M112.495 20.0349C112.495 20.6171 111.982 20.9326 111.3 20.9326C110.976 20.9333 110.654 20.8773 110.349 20.7671C110.35 20.9028 110.378 21.0369 110.432 21.1614C110.486 21.2858 110.564 21.3979 110.663 21.4908C110.762 21.5838 110.879 21.6556 111.006 21.7018C111.134 21.748 111.269 21.7677 111.405 21.7597C111.927 21.7597 112.174 21.5519 112.263 21.3365C112.295 21.3327 112.327 21.3357 112.358 21.3454C112.389 21.355 112.417 21.3712 112.442 21.3926C112.466 21.414 112.485 21.4403 112.499 21.4698C112.512 21.4992 112.519 21.5311 112.519 21.5635C112.519 21.8199 112.096 22.17 111.402 22.17C111 22.1632 110.616 22.0019 110.329 21.7195C110.043 21.4372 109.876 21.0554 109.864 20.6533C109.851 20.2513 109.994 19.8598 110.262 19.5601C110.53 19.2604 110.904 19.0755 111.305 19.0437C111.449 19.0253 111.595 19.0369 111.735 19.0776C111.874 19.1183 112.004 19.1873 112.115 19.2803C112.227 19.3733 112.318 19.4883 112.384 19.6181C112.449 19.748 112.487 19.8898 112.495 20.0349V20.0349ZM110.356 20.3837C110.64 20.4741 110.935 20.5237 111.233 20.5312C111.76 20.5312 112.03 20.3658 112.03 20.0182C112.03 19.7118 111.742 19.4476 111.289 19.4476C111.042 19.4547 110.807 19.5563 110.633 19.7314C110.458 19.9064 110.357 20.1417 110.351 20.3888L110.356 20.3837Z" fill="#FAF9FA"/>
<path d="M115.102 17.6984C115.261 17.6984 115.335 17.7715 115.335 17.9203V21.8955C115.335 22.0545 115.261 22.1161 115.102 22.1161H115.053C114.894 22.1161 114.82 22.0558 114.82 21.9071V21.607C114.724 21.7761 114.585 21.9165 114.417 22.0137C114.248 22.1109 114.057 22.1613 113.863 22.1597C113.19 22.1597 112.606 21.7185 112.606 20.6568C112.606 19.5411 113.247 19.0321 113.999 19.0321C114.297 19.0276 114.588 19.1273 114.821 19.3142V17.9164C114.821 17.769 114.888 17.6946 115.054 17.6946L115.102 17.6984ZM113.106 20.6478C113.106 21.4813 113.535 21.7365 113.971 21.7365C114.612 21.7365 114.817 21.2031 114.817 20.6696V19.8104C114.71 19.6995 114.581 19.6121 114.439 19.5541C114.296 19.496 114.143 19.4684 113.989 19.4732C113.482 19.4732 113.109 19.8284 113.109 20.6452L113.106 20.6478Z" fill="#FAF9FA"/>
<path d="M116.486 18.232C116.486 18.3212 116.45 18.4066 116.387 18.4697C116.324 18.5328 116.238 18.5686 116.149 18.5692C116.105 18.5694 116.061 18.5608 116.02 18.5439C115.979 18.527 115.941 18.5022 115.91 18.4708C115.879 18.4395 115.854 18.4022 115.837 18.3612C115.82 18.3203 115.812 18.2763 115.812 18.232C115.811 18.1422 115.847 18.0558 115.909 17.9917C115.972 17.9276 116.058 17.8909 116.148 17.8896C116.238 17.8913 116.323 17.928 116.387 17.9919C116.45 18.0559 116.486 18.142 116.486 18.232V18.232ZM116.168 19.0963C116.328 19.0963 116.402 19.1706 116.402 19.3245V21.8892C116.407 21.921 116.405 21.9537 116.395 21.9845C116.385 22.0152 116.368 22.0432 116.345 22.066C116.322 22.0889 116.294 22.1059 116.264 22.1158C116.233 22.1256 116.2 22.1279 116.168 22.1226H116.131C116.099 22.1279 116.067 22.1256 116.036 22.1158C116.005 22.1059 115.977 22.0889 115.954 22.066C115.931 22.0432 115.914 22.0152 115.904 21.9845C115.895 21.9537 115.892 21.921 115.898 21.8892V19.3245C115.898 19.1706 115.971 19.0963 116.131 19.0963H116.168Z" fill="#FAF9FA"/>
<path d="M117.475 18.2806C117.634 18.2806 117.707 18.3486 117.707 18.5076V19.1141H118.553C118.719 19.1141 118.793 19.1937 118.793 19.3232C118.793 19.4527 118.702 19.5322 118.553 19.5322H117.707V21.071C117.707 21.6109 117.935 21.7699 118.296 21.7699C118.452 21.7713 118.605 21.7218 118.73 21.6288C118.775 21.643 118.813 21.6708 118.841 21.7084C118.868 21.746 118.883 21.7913 118.883 21.8378C118.883 22.0186 118.571 22.1623 118.197 22.1623C117.639 22.1623 117.199 21.8904 117.199 21.0736V19.5348H116.899C116.734 19.5348 116.643 19.4976 116.643 19.3257C116.643 19.1539 116.734 19.1167 116.899 19.1167H117.199V18.5102C117.199 18.3512 117.279 18.2832 117.433 18.2832L117.475 18.2806Z" fill="#FAF9FA"/>
<path d="M121.311 20.2554V21.4673C121.302 21.5569 121.322 21.647 121.368 21.7243C121.414 21.8017 121.484 21.8621 121.567 21.8968C121.54 21.9654 121.492 22.0242 121.431 22.0658C121.37 22.1073 121.298 22.1298 121.224 22.1302C120.967 22.1302 120.826 21.9276 120.826 21.6519C120.713 21.8111 120.563 21.9408 120.39 22.03C120.216 22.1193 120.024 22.1655 119.828 22.1648C119.16 22.1648 118.761 21.7917 118.761 21.2403C118.761 20.6453 119.233 20.2529 119.999 20.2529C120.275 20.2483 120.549 20.3025 120.803 20.4119V20.14C120.803 19.6271 120.531 19.454 120.034 19.454C119.87 19.4515 119.707 19.488 119.56 19.5604C119.413 19.6329 119.285 19.7392 119.187 19.8707C119.051 19.8528 118.931 19.7848 118.931 19.6309C118.931 19.3245 119.415 19.0436 120.01 19.0436C120.841 19.0488 121.311 19.4399 121.311 20.2554ZM119.259 21.2185C119.259 21.5429 119.504 21.7622 119.908 21.7622C120.022 21.7666 120.135 21.7483 120.242 21.7083C120.349 21.6683 120.447 21.6074 120.529 21.5292C120.612 21.451 120.679 21.357 120.725 21.2528C120.771 21.1486 120.796 21.0362 120.798 20.9222V20.8056C120.549 20.6942 120.279 20.6357 120.007 20.6337C119.537 20.635 119.259 20.8658 119.259 21.2185V21.2185Z" fill="#FAF9FA"/>
<path d="M122.019 19.0911C122.184 19.0911 122.251 19.1591 122.251 19.3193V19.6489C122.324 19.4811 122.441 19.3363 122.59 19.2303C122.739 19.1243 122.915 19.0611 123.097 19.0475C123.441 19.0475 123.619 19.2193 123.619 19.3976C123.622 19.4462 123.612 19.4948 123.589 19.5379C123.566 19.5811 123.532 19.6173 123.491 19.6425C123.382 19.5381 123.237 19.4809 123.087 19.4835C122.558 19.4835 122.265 19.9682 122.265 20.5722V21.884C122.265 22.0494 122.198 22.1174 122.031 22.1174H121.987C121.821 22.1174 121.753 22.0507 121.753 21.884V19.3193C121.753 19.1603 121.821 19.0911 121.987 19.0911H122.019Z" fill="#FAF9FA"/>
<path d="M94.7523 11.4471C94.7576 11.5775 94.7282 11.707 94.6671 11.8224C94.606 11.9377 94.5154 12.0348 94.4046 12.1037L94.2623 12.1986L94.1341 12.0883C94.0526 12.007 93.9555 11.943 93.8486 11.9003C93.7417 11.8575 93.6273 11.8369 93.5122 11.8395C92.5902 11.8395 92.176 12.7615 92.176 13.6758V16.1738C92.1875 16.2646 92.1779 16.3568 92.1483 16.4434C92.1187 16.53 92.0696 16.6087 92.0049 16.6734C91.9402 16.7382 91.8616 16.7872 91.775 16.8169C91.6884 16.8465 91.5961 16.8559 91.5052 16.8445H91.4143C91.3234 16.8562 91.231 16.8469 91.1443 16.8173C91.0575 16.7878 90.9786 16.7387 90.9137 16.674C90.8488 16.6092 90.7997 16.5305 90.77 16.4438C90.7403 16.3571 90.7308 16.2647 90.7423 16.1738V11.3009C90.7314 11.2106 90.7415 11.119 90.7716 11.0331C90.8017 10.9472 90.8512 10.8694 90.9161 10.8056C90.981 10.7418 91.0596 10.6938 91.146 10.6652C91.2324 10.6366 91.3242 10.6281 91.4143 10.6405H91.4835C91.5649 10.6288 91.6478 10.6343 91.7269 10.6569C91.806 10.6794 91.8795 10.7184 91.9425 10.7713C92.0054 10.8242 92.0566 10.8899 92.0924 10.9639C92.1282 11.0379 92.1479 11.1187 92.1503 11.2009C92.326 11.0058 92.5395 10.8484 92.7777 10.7382C93.016 10.628 93.2742 10.5673 93.5366 10.5597C94.3701 10.5546 94.7523 11.0175 94.7523 11.4471ZM100.492 15.9815L100.715 16.061L100.624 16.2803C100.552 16.4583 100.427 16.6101 100.266 16.7154C100.105 16.8207 99.9164 16.8745 99.7243 16.8696C99.5322 16.8648 99.3462 16.8014 99.191 16.6881C99.0358 16.5748 98.9188 16.4169 98.8557 16.2354C98.3861 16.6938 97.7538 16.9471 97.0976 16.9394C96.8149 16.9761 96.5276 16.952 96.255 16.8687C95.9824 16.7854 95.7307 16.6448 95.5168 16.4564C95.3029 16.268 95.1316 16.036 95.0146 15.7761C94.8976 15.5162 94.8373 15.2342 94.838 14.9492C94.838 13.6668 95.8523 12.8423 97.4232 12.8423C97.8654 12.8324 98.3059 12.9018 98.7235 13.0475V12.8603C98.7235 12.0844 98.3786 11.7805 97.4926 11.7805C97.2167 11.7761 96.9438 11.837 96.6961 11.9585C96.4484 12.08 96.2332 12.2585 96.0679 12.4794L95.987 12.591L95.8511 12.573C95.6707 12.571 95.498 12.4988 95.3699 12.3717C95.2419 12.2446 95.1684 12.0725 95.165 11.8921C95.165 11.1483 96.191 10.5431 97.4464 10.5431C97.7981 10.4908 98.1571 10.5186 98.4966 10.6244C98.8361 10.7301 99.1472 10.9112 99.407 11.1541C99.6667 11.3969 99.8683 11.6953 99.9966 12.0269C100.125 12.3585 100.177 12.7148 100.148 13.0693V15.3775C100.148 15.8122 100.389 15.943 100.493 15.9776L100.492 15.9815ZM98.73 14.2721C98.3223 14.1072 97.8874 14.0202 97.4476 14.0156C96.7103 14.0156 96.2525 14.3529 96.2525 14.8953C96.2525 15.3954 96.6372 15.7058 97.2604 15.7058C97.4467 15.7128 97.6325 15.6828 97.8072 15.6175C97.9818 15.5523 98.1418 15.453 98.2779 15.3256C98.4139 15.1981 98.5234 15.0449 98.5999 14.8749C98.6764 14.7048 98.7184 14.5213 98.7235 14.3349L98.73 14.2721ZM105.247 15.5378H102.735C103.334 14.8966 103.953 14.2413 104.554 13.5963C104.969 13.1539 105.378 12.7154 105.77 12.2986C105.986 12.1016 106.123 11.8326 106.155 11.542V11.451C106.161 11.3417 106.144 11.2324 106.105 11.1303C106.065 11.0282 106.005 10.9356 105.927 10.8588C105.849 10.782 105.755 10.7227 105.653 10.6848C105.55 10.6469 105.441 10.6314 105.332 10.6393H101.82C101.732 10.6303 101.644 10.6408 101.56 10.67C101.477 10.6993 101.401 10.7466 101.338 10.8086C101.275 10.8705 101.226 10.9456 101.195 11.0285C101.165 11.1114 101.153 11.2 101.16 11.2881C101.148 11.3776 101.158 11.4685 101.187 11.5539C101.216 11.6392 101.264 11.7168 101.328 11.7806C101.392 11.8444 101.469 11.8927 101.555 11.9218C101.64 11.9509 101.731 11.96 101.82 11.9485H104.289C103.835 12.4397 103.391 12.9462 102.953 13.4335C102.44 14.0144 101.897 14.6119 101.361 15.1928C101.152 15.3791 101.022 15.639 100.998 15.9186V16.0353C100.992 16.1449 101.008 16.2546 101.047 16.3572C101.086 16.4598 101.147 16.5528 101.225 16.6301C101.303 16.7073 101.396 16.767 101.499 16.8051C101.602 16.8432 101.712 16.8588 101.822 16.8509H105.567C105.655 16.8592 105.744 16.8477 105.827 16.8173C105.909 16.7868 105.984 16.7382 106.046 16.675C106.107 16.6117 106.154 16.5355 106.182 16.4518C106.21 16.3682 106.219 16.2793 106.209 16.1918C106.209 15.5365 105.651 15.5365 105.244 15.5365L105.247 15.5378ZM112.384 13.7425C112.359 14.3472 112.156 14.9311 111.802 15.4215C111.447 15.9119 110.956 16.2873 110.39 16.5009C109.824 16.7145 109.207 16.7569 108.617 16.6229C108.027 16.4888 107.489 16.1842 107.07 15.747C106.652 15.3097 106.371 14.7591 106.263 14.1636C106.155 13.5681 106.225 12.9539 106.463 12.3976C106.702 11.8413 107.098 11.3673 107.604 11.0346C108.109 10.7019 108.701 10.5252 109.307 10.5264C109.727 10.5101 110.146 10.5832 110.536 10.741C110.927 10.8987 111.279 11.1375 111.57 11.4415C111.861 11.7455 112.084 12.1079 112.224 12.5045C112.364 12.9012 112.419 13.3232 112.384 13.7425ZM110.933 13.731C110.933 12.5153 110.32 11.7882 109.294 11.7882C108.268 11.7882 107.655 12.514 107.655 13.731C107.655 14.9479 108.268 15.684 109.294 15.684C110.32 15.684 110.935 14.953 110.935 13.7297L110.933 13.731ZM118.273 15.5506C118.273 16.2174 117.328 16.9329 115.921 16.9329C115.071 16.9578 114.245 16.6438 113.627 16.0602C113.008 15.4765 112.646 14.671 112.621 13.8207C112.597 12.9705 112.911 12.1452 113.494 11.5264C114.078 10.9077 114.883 10.5461 115.734 10.5213C116.039 10.4837 116.35 10.5097 116.645 10.5978C116.94 10.6858 117.214 10.834 117.449 11.0329C117.684 11.2319 117.875 11.4774 118.011 11.7539C118.146 12.0304 118.223 12.332 118.237 12.6397C118.237 13.813 117.255 14.5709 115.734 14.5709C115.209 14.5695 114.687 14.4966 114.182 14.3542C114.267 14.7487 114.49 15.1 114.811 15.3449C115.132 15.5898 115.53 15.7123 115.933 15.6904C116.669 15.6904 117.187 15.4493 117.355 15.0287L117.412 14.8851H117.566C117.657 14.8785 117.748 14.8908 117.833 14.9209C117.919 14.9511 117.998 14.9985 118.064 15.0604C118.131 15.1222 118.184 15.1971 118.22 15.2803C118.256 15.3635 118.275 15.4534 118.275 15.5442L118.273 15.5506ZM114.177 13.1449C114.642 13.2783 115.122 13.3515 115.606 13.3629C116.888 13.3629 116.888 12.8192 116.888 12.6115C116.888 12.1139 116.39 11.7549 115.703 11.7549C115.326 11.7718 114.968 11.9201 114.69 12.1741C114.411 12.4281 114.231 12.7716 114.179 13.1449H114.177ZM121.29 13.0064C120.196 12.7602 120.196 12.5525 120.196 12.3076C120.196 11.7831 120.986 11.7421 121.222 11.7421C121.423 11.7196 121.626 11.7411 121.817 11.8051C122.008 11.8691 122.183 11.9741 122.33 12.1127L122.41 12.3127L122.613 12.2447C122.811 12.1781 123.224 12.0409 123.224 11.5843C123.224 11.0919 122.711 10.5161 121.258 10.5161C120.068 10.5161 118.801 11.1971 118.801 12.4602C118.801 13.3796 119.459 13.9541 120.871 14.2734C122.17 14.5568 122.266 14.7709 122.266 15.0646C122.266 15.4493 121.789 15.7237 121.105 15.7237C120.145 15.7237 119.627 15.3942 119.464 15.0825L119.361 14.8902L119.165 14.9812C119.012 15.0479 118.881 15.1582 118.79 15.2984C118.699 15.4387 118.651 15.6026 118.652 15.7699C118.652 16.4687 119.57 16.924 120.993 16.924C122.531 16.924 123.612 16.1353 123.612 15.0005C123.612 13.7015 122.498 13.2706 121.29 13V13.0064ZM107.611 9.94552C107.696 9.97646 107.787 9.98163 107.874 9.96039C107.962 9.93916 108.041 9.89247 108.101 9.82626C108.138 9.78203 108.186 9.74731 108.239 9.725C108.292 9.7027 108.35 9.69345 108.408 9.69802C108.656 9.69794 108.901 9.75684 109.122 9.86986L109.235 9.91858C109.523 10.0716 109.844 10.1517 110.17 10.152C110.463 10.1649 110.752 10.0741 110.985 9.89551C111.096 9.803 111.184 9.68587 111.242 9.55342C111.3 9.42097 111.326 9.27686 111.319 9.13252C111.321 9.04658 111.296 8.96219 111.247 8.89145C111.198 8.82072 111.128 8.76728 111.047 8.73883C110.963 8.70835 110.871 8.70341 110.785 8.72463C110.698 8.74584 110.619 8.79228 110.558 8.85809C110.521 8.90232 110.474 8.93705 110.42 8.95935C110.367 8.98166 110.309 8.9909 110.252 8.98633C110.003 8.98572 109.759 8.92639 109.537 8.81321L109.426 8.76448C109.138 8.61144 108.816 8.5313 108.49 8.53109C108.196 8.51798 107.907 8.60881 107.674 8.78757C107.563 8.88015 107.475 8.99729 107.417 9.12972C107.36 9.26215 107.333 9.40623 107.341 9.55056C107.338 9.63734 107.362 9.72287 107.411 9.7948C107.459 9.86672 107.53 9.92131 107.611 9.95065V9.94552Z" fill="#FAF9FA"/>
<path d="M81.394 17.7498C81.2402 20.2041 83.4753 22.9637 84.1703 23.4895C83.9895 20.9748 83.9395 20.9735 83.2637 20.5401C82.318 19.872 81.6523 18.8784 81.394 17.7498V17.7498Z" fill="#FAF9FA"/>
<path d="M82.1918 19.3809C82.1041 19.7159 82.0365 20.0559 81.9892 20.399C81.8289 22.9432 83.8678 24.9039 84.0409 25.504C84.8424 22.3302 83.3151 23.4651 82.2046 19.3488C82.1995 19.3539 82.1956 19.3642 82.1918 19.3809Z" fill="#FAF9FA"/>
</svg>
