<svg width="24" height="24" viewBox="0 0 24 24" fill="none" xmlns="http://www.w3.org/2000/svg">
<g clip-path="url(#clip0_2019_2)">
<path d="M20.4112 3.4877C18.165 1.23993 15.1782 0.00137141 11.996 0C5.43856 0 0.102106 5.33475 0.0994811 11.8919C0.0987171 13.988 0.64638 16.034 1.68734 17.8375L-0.000396729 24L6.30609 22.3464C8.04365 23.294 10 23.7933 11.9909 23.7941H11.996H11.996C18.5524 23.7941 23.8897 18.4584 23.8925 11.9016C23.8936 8.72365 22.6572 5.73562 20.4112 3.4877V3.4877ZM11.996 21.7855H11.9922C10.2176 21.7846 8.47739 21.3082 6.95951 20.4075L6.59828 20.1933L2.85588 21.1745L3.85505 17.5271L3.6197 17.1531C2.62983 15.5792 2.10727 13.7603 2.10801 11.8927C2.11018 6.44258 6.54564 2.00867 11.9998 2.00867C14.6409 2.00977 17.1233 3.03926 18.9903 4.90754C20.8572 6.77579 21.8845 9.25938 21.8837 11.9007C21.8814 17.351 17.4458 21.7855 11.996 21.7855V21.7855Z" fill="#E0E0E0"/>
<path fill-rule="evenodd" clip-rule="evenodd" d="M9.05797 6.84321C8.83788 6.35387 8.60615 6.34408 8.39675 6.33551C8.22548 6.32817 8.02941 6.32862 7.83365 6.32862C7.63773 6.32862 7.31937 6.40224 7.05014 6.69627C6.78075 6.9903 6.02158 7.70111 6.02158 9.14675C6.02158 10.5925 7.07463 11.9895 7.22141 12.1857C7.36835 12.3817 9.2542 15.4432 12.2409 16.6209C14.723 17.5998 15.2281 17.4051 15.7669 17.3561C16.3057 17.3071 17.5053 16.6454 17.7502 15.9593C17.9951 15.2732 17.9951 14.6852 17.9217 14.5623C17.8482 14.4398 17.6523 14.3664 17.3584 14.2194C17.0645 14.0725 15.62 13.3615 15.3506 13.2636C15.0812 13.1656 14.8853 13.1166 14.6894 13.4108C14.4934 13.7047 13.9306 14.3664 13.7592 14.5623C13.5878 14.7586 13.4163 14.7831 13.1225 14.6362C12.8286 14.4888 11.8822 14.1788 10.7595 13.1778C9.88603 12.3991 9.29628 11.4372 9.12486 11.1431C8.95343 10.8492 9.10648 10.69 9.25389 10.5435C9.38582 10.4119 9.54776 10.2005 9.6947 10.0289C9.84132 9.85736 9.8903 9.73491 9.98826 9.53899C10.0862 9.34276 10.0372 9.1712 9.96377 9.02426C9.8903 8.87733 9.31924 7.42422 9.05797 6.84321V6.84321Z" fill="white"/>
<path d="M20.3143 3.44987C18.0938 1.22791 15.1413 0.00358827 11.9957 0.00219727C5.51345 0.00219727 0.23826 5.27571 0.235654 11.7576C0.23489 13.8296 0.776264 15.8521 1.80527 17.6349L0.136932 23.7267L6.37103 22.092C8.08866 23.0287 10.0226 23.5224 11.9906 23.5231H11.9956H11.9957C18.4768 23.5231 23.7527 18.2487 23.7555 11.7671C23.7566 8.62571 22.5344 5.67199 20.3143 3.44987V3.44987ZM11.9957 21.5377H11.9918C10.2376 21.5367 8.51739 21.0658 7.01695 20.1754L6.65985 19.9637L2.96041 20.9337L3.9481 17.3281L3.71545 16.9584C2.73695 15.4026 2.22038 13.6046 2.22114 11.7584C2.22328 6.37086 6.60781 1.98784 11.9993 1.98784C14.6102 1.98892 17.0641 3.00661 18.9097 4.85343C20.7551 6.70025 21.7706 9.15531 21.7699 11.7664C21.7676 17.154 17.3829 21.5377 11.9957 21.5377Z" fill="white"/>
</g>
<defs>
<clipPath id="clip0_2019_2">
<rect width="23.8944" height="24" fill="white"/>
</clipPath>
</defs>
</svg>
